<svg width="823" height="318" viewBox="0 0 823 318" fill="none" xmlns="http://www.w3.org/2000/svg">
<path d="M421.765 119.392C400.409 113.085 377.976 125.284 371.667 146.645C365.361 167.997 377.563 190.435 398.92 196.742C420.276 203.05 442.711 190.842 449.017 169.49C455.326 148.13 443.125 125.701 421.765 119.392ZM422.646 144.882C423.277 142.746 425.52 141.526 427.656 142.157C429.792 142.787 431.012 145.03 430.381 147.166L428.097 154.901C427.466 157.037 425.223 158.257 423.087 157.627C420.951 156.996 419.731 154.753 420.362 152.617L422.646 144.882ZM399.441 138.028C400.072 135.892 402.315 134.672 404.451 135.303C406.587 135.934 407.807 138.177 407.176 140.313L404.892 148.048C404.261 150.184 402.018 151.404 399.882 150.773C397.746 150.142 396.526 147.899 397.157 145.763L399.441 138.028ZM425.171 183.886C422.827 185.16 419.915 183.972 418.521 181.698C415.771 177.21 411.451 173.747 406.176 172.189C400.886 170.627 395.379 171.192 390.632 173.471C388.228 174.626 385.137 174.042 383.863 171.698C382.836 169.809 383.358 167.421 385.24 166.382C392.241 162.515 400.641 161.425 408.656 163.792C416.65 166.153 423.117 171.624 426.904 178.666C427.924 180.563 427.063 182.857 425.171 183.886Z" fill="url(#paint0_linear_65_15224)"/>
<path d="M0 256.712H147.056V310.567H208.99V256.712H246.988V204.801H208.99V4.18877H127.907L0 205.698V256.712ZM148.252 204.801H65.2251V202.407L145.859 74.7994H148.252V204.801Z" fill="url(#paint1_linear_65_15224)"/>
<path d="M410.275 317.299C487.318 317.299 533.843 258.656 533.993 157.677C534.142 57.4459 487.019 0 410.275 0C333.381 0 286.706 57.2964 286.556 157.677C286.257 258.357 333.082 317.149 410.275 317.299ZM410.275 263.593C375.119 263.593 352.38 228.288 352.53 157.677C352.679 88.1137 375.269 53.1076 410.275 53.1076C445.131 53.1076 467.87 88.1137 467.87 157.677C468.02 228.288 445.281 263.593 410.275 263.593Z" fill="url(#paint2_linear_65_15224)"/>
<path d="M575.544 256.712H722.599V310.567H784.533V256.712H822.531V204.801H784.533V4.18877H703.451L575.544 205.698V256.712ZM723.796 204.801H640.769V202.407L721.403 74.7994H723.796V204.801Z" fill="url(#paint3_linear_65_15224)"/>
<defs>
<linearGradient id="paint0_linear_65_15224" x1="58.1603" y1="-71.946" x2="702.704" y2="330.788" gradientUnits="userSpaceOnUse">
<stop stop-color="#5F62F1"/>
<stop offset="1" stop-color="#232478"/>
</linearGradient>
<linearGradient id="paint1_linear_65_15224" x1="58.1603" y1="-71.946" x2="702.704" y2="330.788" gradientUnits="userSpaceOnUse">
<stop stop-color="#5F62F1"/>
<stop offset="1" stop-color="#232478"/>
</linearGradient>
<linearGradient id="paint2_linear_65_15224" x1="58.1603" y1="-71.946" x2="702.704" y2="330.788" gradientUnits="userSpaceOnUse">
<stop stop-color="#5F62F1"/>
<stop offset="1" stop-color="#232478"/>
</linearGradient>
<linearGradient id="paint3_linear_65_15224" x1="58.1603" y1="-71.946" x2="702.704" y2="330.788" gradientUnits="userSpaceOnUse">
<stop stop-color="#5F62F1"/>
<stop offset="1" stop-color="#232478"/>
</linearGradient>
</defs>
</svg>
