<svg width="16" height="16" viewBox="0 0 16 16" fill="none" xmlns="http://www.w3.org/2000/svg">
<path d="M13.3333 0H2.66667C1.19644 0 0 1.19644 0 2.66666V14.2222C0 15.2027 0.797333 16 1.77778 16H14.2222C15.2027 16 16 15.2027 16 14.2222V2.66666C16 1.19644 14.8044 0 13.3333 0ZM6.22222 1.77777H9.77778V3.55554H6.22222V1.77777ZM4.44444 3.55554H1.77778V2.66666C1.77778 2.17599 2.17689 1.77777 2.66667 1.77777H4.44444V3.55554ZM10.6667 10.6666H8.88889V12.4445H7.11111V10.6666H5.33333V8.88886H7.11111V7.11109H8.88889V8.88886H10.6667V10.6666ZM14.2222 3.55554H11.5556V1.77777H13.3333C13.8231 1.77777 14.2222 2.17599 14.2222 2.66666V3.55554Z" fill="white"/>
</svg>
