<svg width="16" height="10" viewBox="0 0 16 10" fill="none" xmlns="http://www.w3.org/2000/svg">
<path d="M15.4804 0.0584529C15.1646 -0.0600086 14.8033 0.00538404 14.5625 0.225384L12.7528 1.87845C11.3541 0.676143 9.51326 0 7.57895 0C3.40126 0 0.00168421 3.10384 0 6.91923C0 6.92154 0 6.92154 0 6.92308C0 7.34769 0.377263 7.69231 0.842105 7.69231C1.30695 7.69231 1.68421 7.34769 1.68421 6.92308V6.92153C1.68589 5.22537 3.19579 3.84615 5.05263 3.84615C6.53053 3.84615 7.81642 4.72692 8.25432 5.98769L5.29934 8.68692C5.0585 8.90692 4.9861 9.23769 5.11662 9.52538C5.24715 9.8123 5.55368 10 5.89474 10H15.1579C15.6227 10 16 9.65539 16 9.23077V0.769231C16 0.457692 15.7954 0.176914 15.4804 0.0584529Z" fill="white"/>
</svg>
