<svg width="16" height="16" viewBox="0 0 16 16" fill="none" xmlns="http://www.w3.org/2000/svg">
<path d="M12.8 0C12.4272 0 12.104 0.256795 12.02 0.619995L11.24 4H0.799917C0.553516 4 0.320695 4.1136 0.169494 4.3072C0.0182932 4.5016 -0.0360637 4.7552 0.0239366 4.9936L1.62395 11.3936C1.71275 11.7496 2.03272 11.9992 2.39993 11.9992H10.4C10.7728 11.9992 11.096 11.7416 11.18 11.3792L13.4368 1.6H16V0H12.8Z" fill="#A6AAC3"/>
<path d="M3.19992 16C4.08358 16 4.79993 15.2837 4.79993 14.4C4.79993 13.5163 4.08358 12.8 3.19992 12.8C2.31626 12.8 1.59991 13.5163 1.59991 14.4C1.59991 15.2837 2.31626 16 3.19992 16Z" fill="#A6AAC3"/>
<path d="M9.59995 16C10.4836 16 11.2 15.2837 11.2 14.4C11.2 13.5163 10.4836 12.8 9.59995 12.8C8.71629 12.8 7.99995 13.5163 7.99995 14.4C7.99995 15.2837 8.71629 16 9.59995 16Z" fill="#A6AAC3"/>
</svg>
