<svg width="18" height="16" viewBox="0 0 18 16" fill="none" xmlns="http://www.w3.org/2000/svg">
<path d="M4.96151 12.1905C4.9275 11.9406 4.90431 11.6869 4.90431 11.4286C4.90431 8.06248 7.87055 5.33333 11.5302 5.33333C13.1312 5.33333 14.5993 5.85593 15.745 6.72526C15.7697 6.51802 15.7821 6.30781 15.7821 6.09524C15.7821 2.73448 12.6604 0 8.8245 0C4.98857 0 1.86694 2.73448 1.86694 6.09524C1.86694 7.24952 2.22874 8.34884 2.91831 9.31417L0 12.1905H4.96151Z" fill="#A3A2B5"/>
<path d="M18 16L16.1392 13.2487C16.4129 12.6765 16.5559 12.0556 16.5559 11.4286C16.5559 8.90743 14.3017 6.85714 11.531 6.85714C8.76035 6.85714 6.50611 8.90743 6.50611 11.4286C6.50611 13.9497 8.76035 16 11.531 16" fill="#A3A2B5"/>
</svg>
