<svg width="62" height="36" viewBox="0 0 62 36" fill="none" xmlns="http://www.w3.org/2000/svg">
<g opacity="0.5">
<path d="M4.03151 0.12814C3.59466 0.260209 3.26875 0.440936 3.02605 0.739831C2.67934 1.15689 2.66547 1.21945 2.69321 2.46369C2.70708 3.17964 2.70708 4.44473 2.69321 5.29971C2.67934 6.82894 2.67934 6.82894 2.39504 6.73857C1.82644 6.54395 0.467334 6.63431 0.238506 6.88455C0.0443482 7.09308 0.0443482 7.09308 0.266242 7.01662C0.432663 6.96796 0.488137 6.98881 0.446532 7.09308C0.418795 7.18344 0.314782 7.246 0.238506 7.22515C0.148361 7.21125 0.0928876 7.44758 0.0928876 7.87159C0.0928876 8.24695 0.0512824 8.76828 0.0166114 9.01156C-0.031928 9.37302 0.0166114 9.53289 0.287045 9.81788C0.599084 10.1515 0.703097 10.1793 1.63228 10.1793C2.49905 10.1793 2.65161 10.221 2.70708 10.4018C2.78336 10.7007 2.69321 25.4925 2.61694 25.701C2.57533 25.8192 2.28409 25.8678 1.72242 25.8678C1.16075 25.8678 0.751636 25.9443 0.495071 26.0903C0.106756 26.3266 0.0928876 26.3474 0.0790192 27.3623C0.0512824 29.4268 0.106756 29.5032 1.73629 29.5032H2.82496L2.78336 31.9917C2.73482 35.495 2.83189 35.6479 5.34207 35.787C9.06574 35.9816 19.9663 36.058 21.7553 35.9051C22.3794 35.8565 22.9341 35.8426 23.5374 35.8565C24.3764 35.8704 24.5845 35.8565 24.737 35.7105C24.8688 35.6062 24.9173 35.6062 24.9173 35.7105C24.9173 35.787 24.9797 35.8565 25.0491 35.8565C25.1253 35.8565 25.1808 35.7383 25.1808 35.5854C25.1808 35.4394 25.1323 35.3629 25.0491 35.4046C24.9867 35.4464 24.9173 35.4185 24.9173 35.3421C24.9173 35.1058 25.2294 35.2656 25.368 35.5784C25.4998 35.8634 25.5345 35.8634 28.4052 35.8634C30.007 35.8634 32.2052 35.9051 33.2938 35.9399C36.227 36.058 40.8244 35.8912 40.8244 35.6549C40.8244 35.5506 40.8868 35.4742 40.97 35.4742C41.0462 35.4742 41.0879 35.5645 41.0324 35.6688C40.9838 35.8356 41.1225 35.8634 41.9616 35.8634C42.5024 35.8773 45.4911 35.8912 48.6115 35.9051C51.718 35.919 54.2212 35.8912 54.1866 35.8287C54.1588 35.78 54.2282 35.7383 54.3391 35.7383C54.4709 35.7383 54.5055 35.8009 54.457 35.8912C54.3044 36.1345 57.6883 35.9329 58.2569 35.6479C59.2 35.1822 59.2555 34.9876 59.2624 32.1724C59.2763 30.7822 59.3109 29.5658 59.3664 29.4476C59.4149 29.2947 59.519 29.2669 59.727 29.3294C60.1014 29.4615 61.5091 29.392 61.7726 29.253C61.939 29.1487 61.9251 29.1348 61.731 29.1209C61.5853 29.1209 61.5091 29.0583 61.5507 28.9541C61.5784 28.8776 61.6686 28.8081 61.731 28.822C61.8974 28.8637 62.0291 26.7854 61.8835 26.5282C61.5715 25.9721 61.5229 25.9443 60.3441 25.8817L59.1653 25.8192L59.1376 17.9993L59.096 10.1932H60.247C61.308 10.1932 61.3981 10.1654 61.7102 9.83179C61.9806 9.54679 62.0361 9.39387 61.9806 9.02547C61.939 8.78218 61.9043 8.26085 61.9043 7.8994C61.9043 7.46148 61.8558 7.22515 61.7587 7.25295C61.6824 7.26685 61.5784 7.20429 61.5507 7.10698C61.5091 7.00271 61.5645 6.97491 61.731 7.03052C61.939 7.10698 61.939 7.09308 61.7726 6.91235C61.5645 6.68992 60.2886 6.58565 59.7062 6.74553C59.1237 6.89845 59.0752 6.75943 58.992 4.42388C58.8463 0.816292 58.5759 0.301916 56.8077 0.350573C56.2876 0.364475 55.8022 0.336671 55.719 0.301916C55.5803 0.176797 53.3822 0.0238742 52.2727 0.0238742C51.8428 0.0377763 51.0939 0.0377763 50.5946 0.0377763C50.1023 0.0377763 47.5436 0.0655804 44.9017 0.0794825C42.2736 0.0933846 39.6247 0.121189 39.0145 0.142042C38.4043 0.162895 37.6554 0.190699 37.3365 0.183748C32.3161 0.107287 28.1556 0.0794825 27.9337 0.135091C27.7673 0.176797 27.6494 0.253258 27.6771 0.301916C27.691 0.350573 27.6494 0.406181 27.5731 0.420083C27.5107 0.447887 27.4414 0.378377 27.4414 0.288014C27.4414 0.169846 26.8173 0.135091 24.7925 0.135091C22.733 0.135091 22.1575 0.176797 22.1644 0.288014C22.1922 0.378377 22.1159 0.454838 21.998 0.454838C21.894 0.454838 21.8316 0.406181 21.8663 0.336671C22.0188 0.100336 21.1798 0.0655804 15.2857 0.0655804C12.0128 0.0655804 8.28911 0.0377763 7.00628 0.0169232C5.3074 -0.024783 4.4961 0.00997215 4.03151 0.12814ZM30.319 3.63841C48.0221 3.66622 53.8815 3.62451 53.8815 3.52025C53.8815 3.40208 53.9231 3.41598 53.9855 3.52025C54.034 3.61061 54.3738 3.70097 54.7205 3.71487L55.3654 3.75658L55.3792 4.40303C55.407 5.43873 55.5734 15.9139 55.5595 16.1364C55.5179 17.2416 55.5595 25.5759 55.6219 28.4814C55.6843 31.3869 55.6705 32.2141 55.5457 32.2906C55.4555 32.3392 54.9632 32.367 54.4709 32.3531C53.5139 32.3114 50.0191 32.3114 36.6222 32.3253C29.6742 32.3392 28.7727 32.367 28.8351 32.5339C28.8837 32.6659 28.8213 32.7285 28.6548 32.7285C28.4884 32.7285 28.4191 32.6659 28.4746 32.5339C28.537 32.367 27.7257 32.3531 21.9703 32.3531C18.3645 32.367 14.3427 32.4018 13.0321 32.4435C11.7354 32.4922 10.6814 32.4922 10.6814 32.4296C10.6814 32.2767 10.2307 32.3253 10.0573 32.4922C9.93945 32.6103 9.86317 32.6242 9.80076 32.52C9.75222 32.4157 9.12815 32.367 8.10882 32.3531C7.22818 32.3392 6.45155 32.3045 6.40301 32.2628C6.3406 32.2211 6.28512 31.7345 6.28512 31.1506C6.28512 30.2817 6.25739 30.1288 6.09097 30.1914C5.95922 30.24 5.89681 30.1775 5.89681 30.0106C5.89681 29.8438 5.95922 29.7743 6.09097 29.8299C6.25739 29.8925 6.28512 29.3225 6.29899 25.2005C6.34753 9.69276 6.34753 9.87349 6.16724 9.81093C6.06323 9.76923 6.03549 9.72057 6.12564 9.66496C6.3198 9.54679 6.34753 7.98281 6.16724 7.40587C6.0771 7.14869 6.04936 6.86369 6.1187 6.77333C6.16724 6.68297 6.22272 5.95311 6.25045 5.18154C6.26432 4.38912 6.27819 3.68012 6.27819 3.57585C6.29206 3.45769 6.36833 3.42988 6.52089 3.51329C6.63877 3.56195 17.3521 3.62451 30.319 3.63841Z" fill="white"/>
<path d="M47.3286 6.9054L44.5758 6.9332L44.0696 7.42673C43.6396 7.84379 43.5495 8.01061 43.4871 8.6223C43.3415 9.85264 43.3415 11.5765 43.4594 14.3291C43.5218 15.7958 43.5634 17.2207 43.5356 17.5057C43.5079 17.7907 43.4871 20.1749 43.4871 22.8233L43.4732 27.6195L43.7853 28.1269C43.9517 28.398 44.2776 28.6969 44.5064 28.8012C45.0265 29.0236 50.2202 29.0723 50.9067 28.8637C51.5377 28.6691 52.0439 28.0226 52.1202 27.3067C52.2519 26.0485 52.1964 16.47 52.0578 16.1086L51.9121 15.761H50.137C48.9374 15.761 48.3133 15.8097 48.2093 15.9139C48.1053 16.0182 48.0567 16.5256 48.0567 17.3111V18.5553L48.445 18.7778L48.8334 19.0141L48.8472 20.4669C48.8472 21.2732 48.8472 22.5661 48.8334 23.3724C48.8195 24.2413 48.875 24.9155 48.9651 25.0546C49.0691 25.2214 49.083 25.3882 48.979 25.6384C48.8472 25.986 48.8334 25.986 47.8695 25.9373C46.767 25.8887 46.5659 25.8053 46.767 25.5481C46.9126 25.3673 46.975 16.3032 46.8571 12.0422L46.7947 9.9569L47.7239 9.90825C49.1107 9.84569 49.0969 9.83179 49.0969 10.7632C49.0969 11.215 49.1593 11.6321 49.2494 11.7225C49.3673 11.8406 49.3673 11.8754 49.2494 11.8754C48.9651 11.8754 49.083 12.2368 49.395 12.3064C49.8596 12.3967 51.6833 12.3203 51.8151 12.1882C51.8636 12.1256 51.9468 11.1247 51.9815 9.9569L52.03 7.82989L51.6694 7.46843C51.3574 7.15564 51.087 7.05137 50.2202 6.91235C50.137 6.88455 48.8264 6.88455 47.3286 6.9054ZM10.3694 7.15564C10.2515 7.2738 10.2168 8.01061 10.2515 9.81093C10.2931 12.7165 10.2792 12.494 10.4318 12.2507C10.5358 12.0978 10.5635 12.1326 10.5635 12.4037C10.5635 12.5844 10.5011 12.7651 10.411 12.7929C10.2931 12.8346 10.2584 13.3907 10.2584 14.7253C10.2446 16.3449 10.2168 16.6438 10.0227 16.8384C9.8285 17.0192 9.78689 17.3041 9.78689 18.4997C9.78689 19.2921 9.8285 19.8969 9.87704 19.8621C9.99492 19.744 10.4318 20.1471 10.4318 20.3835C10.4318 20.4738 10.3902 20.5503 10.3416 20.5503C10.2792 20.5503 10.2237 22.3297 10.196 24.5054C10.1821 26.6811 10.2237 28.4606 10.2723 28.4606C10.3347 28.4606 10.4526 28.6065 10.5289 28.7873C10.6745 29.1001 10.723 29.114 11.9642 29.114C13.8781 29.114 13.7741 29.3503 13.7394 24.6305C13.7116 22.5661 13.6908 20.8214 13.6631 20.7519C13.5175 20.1958 13.5868 20.168 15.4244 20.168C17.4145 20.168 18.1634 20.022 18.6072 19.5563L18.9054 19.2296L18.947 13.6062C18.9747 9.81788 18.9331 7.8855 18.843 7.71867C18.517 7.12088 18.1703 7.07222 14.2248 7.03052C11.4927 7.00967 10.4664 7.03747 10.3694 7.15564ZM15.4729 10.2627C15.4868 10.3948 15.4868 11.7781 15.5007 13.349C15.5007 14.9199 15.5423 16.0947 15.5631 15.9696C15.6671 15.5803 15.8612 15.7332 15.8612 16.2128C15.8612 16.5882 15.8196 16.6647 15.6532 16.6021C15.5076 16.5534 15.4729 16.5882 15.5215 16.755C15.5839 16.9496 15.5076 16.9774 14.731 16.9357C14.2386 16.9079 13.8018 16.8037 13.6978 16.7133C13.4898 16.5048 13.4759 16.1294 13.67 16.1294C13.7602 16.1294 13.7879 15.2188 13.7325 13.1613C13.7047 11.5278 13.7047 10.1515 13.7463 10.1168C13.7949 10.0751 14.197 10.0403 14.6547 10.0403C15.3481 10.0473 15.4729 10.082 15.4729 10.2627ZM21.4363 7.11393C21.2145 7.37112 21.2907 10.2488 21.5265 10.2002C21.6028 10.1863 21.679 10.2627 21.679 10.367C21.679 10.4713 21.6028 10.5477 21.5265 10.5199C21.4086 10.506 21.3462 10.7146 21.3185 11.1803C21.2907 11.7225 21.3185 11.8545 21.4502 11.7781C21.582 11.7016 21.582 11.7155 21.4779 11.8684C21.2699 12.1395 21.1312 26.8271 21.3254 27.6959C21.4433 28.1617 21.582 28.4119 21.9079 28.6413L22.3378 28.9749L25.7286 28.9263C29.5078 28.8776 29.7782 28.8081 30.1873 28.0157C30.4716 27.4596 30.5895 23.0874 30.5201 15.476C30.4924 12.3759 30.4716 9.28961 30.4716 8.64316C30.4716 7.89245 30.4231 7.41283 30.326 7.34331C30.2358 7.30161 30.1457 7.32941 30.118 7.40587C30.0556 7.62831 29.8337 7.6005 29.8337 7.36417C29.8337 7.21125 29.6256 7.16954 28.7311 7.16954C26.956 7.16954 27.0877 6.73857 27.1016 12.7165C27.1155 15.476 27.1501 18.5136 27.1917 19.4451C27.2541 20.6754 27.2333 21.1689 27.1293 21.1689C26.8936 21.1689 26.9629 21.6624 27.2195 21.8015C27.372 21.9057 27.3998 21.9683 27.2819 22.0378C27.1917 22.1143 27.1155 22.7538 27.0877 23.9146C27.0461 25.416 27.0114 25.7288 26.8173 25.9234C26.5954 26.1459 26.5746 26.1459 26.4151 25.9234C26.2209 25.6801 25.6801 25.6384 25.2918 25.847C24.9034 26.0416 24.5013 25.6662 24.6053 25.2005C24.6954 24.8113 24.7578 14.0511 24.6954 10.1515L24.6469 7.48234L24.0921 7.18344C23.7177 6.97491 23.4473 6.89845 23.2878 6.97491C23.0451 7.07918 22.1783 7.07918 21.8039 6.96101C21.686 6.96101 21.5265 7.00967 21.4363 7.11393ZM32.961 7.10003C32.8154 7.29466 32.7668 12.0005 32.9124 12.6331C32.9748 12.8763 32.9748 13.488 32.9402 13.9955C32.8916 14.5029 32.8986 14.9686 32.9679 15.059C33.1343 15.2675 32.9679 15.7471 32.7322 15.7471C32.6281 15.7471 32.5796 15.8097 32.6143 15.8792C32.6559 15.9556 32.6004 16.1016 32.4964 16.2128C32.2606 16.4492 32.1982 18.2634 32.4201 18.4024C32.4964 18.4441 32.5519 18.597 32.5519 18.7291C32.5519 18.8612 32.6143 18.9863 32.6975 19.0141C32.8154 19.0558 32.85 20.2166 32.85 23.2681C32.8362 25.7079 32.8916 27.543 32.9679 27.6403C33.0303 27.7168 33.0303 27.8211 32.9818 27.8489C32.9194 27.8906 32.8916 28.1617 32.9194 28.4467L32.9679 28.9749L36.4211 28.9332C41.5663 28.8915 41.2682 29.2599 41.282 22.8789C41.282 18.5901 41.2682 18.3955 41.0255 18.1313C40.2488 17.2902 40.1587 17.1304 40.3667 17.0192C40.8868 16.7342 41.0116 16.1364 41.0393 14.1901C41.0532 13.1544 41.0809 11.2706 41.1017 10.0056C41.1433 7.82989 41.1295 7.68392 40.866 7.44063C40.4638 7.03747 39.8605 6.96101 36.3518 6.94711C33.904 6.94711 33.065 6.97491 32.961 7.10003ZM37.8011 10.0612C37.8773 10.1932 37.8773 11.1733 37.8011 14.9756C37.7872 15.9209 37.7248 15.9765 36.754 15.8166L36.1993 15.7402L36.123 14.6141C36.0814 13.9885 36.0467 13.3977 36.0328 13.2934C36.0328 13.1891 36.0744 12.3828 36.123 11.507L36.2131 9.92215H36.962C37.3711 9.9152 37.7456 9.97776 37.8011 10.0612ZM37.7456 19.174C37.7941 19.2504 37.8496 20.2514 37.8496 21.3914C37.8496 22.5313 37.8635 23.998 37.8635 24.6583C37.8773 25.3048 37.8496 25.9026 37.8011 25.9651C37.697 26.132 36.3518 26.0694 36.1299 25.8748C35.9843 25.7566 35.9635 25.6037 36.0398 25.2492C36.1022 24.992 36.1576 23.5253 36.1576 21.9822C36.1576 19.5702 36.1854 19.167 36.3657 19.0419C36.6084 18.8612 37.6069 18.9515 37.7456 19.174Z" fill="white"/>
</g>
</svg>
