<svg width="32" height="24" viewBox="0 0 32 24" fill="none" xmlns="http://www.w3.org/2000/svg">
<path d="M22.3048 7.20279C22.3048 9.08544 23.754 10.6106 25.5401 10.6106C27.3278 10.6106 28.7778 9.08544 28.7778 7.20279C28.7778 5.32015 27.3278 3.79324 25.5401 3.79324C23.754 3.79324 22.3048 5.32015 22.3048 7.20279Z" fill="url(#paint0_linear_124_3433)"/>
<path fill-rule="evenodd" clip-rule="evenodd" d="M0 15.3133V9.20216L12.1103 14.4739C12.3592 14.302 12.6244 14.1525 12.9075 14.0314C13.5497 13.7529 14.2269 13.6292 14.9017 13.6601L19.0679 7.29817C19.0663 7.26987 19.0663 7.23985 19.0663 7.20983C19.0663 3.45486 21.967 0.400009 25.5336 0.400009C29.1001 0.400009 32 3.45469 32 7.20966C32 10.9646 29.1001 14.021 25.5336 14.021C25.4846 14.021 25.4356 14.0202 25.3867 14.0185L19.4253 18.4969C19.4433 19.1886 19.3217 19.8821 19.0622 20.542C18.0619 23.0699 15.2917 24.2729 12.8887 23.2169C11.42 22.5733 10.4245 21.2345 10.0998 19.7102L0 15.3133ZM13.3032 22.1694C15.1587 22.9823 17.2932 22.0551 18.0676 20.1029C18.4413 19.1594 18.4429 18.1154 18.0725 17.1685C17.7029 16.2216 17.0052 15.4818 16.106 15.0882C15.2142 14.6981 14.2595 14.7102 13.4199 15.0453L15.5961 15.993C16.9636 16.5928 17.6107 18.246 17.0403 19.6853C16.4716 21.1237 14.9017 21.806 13.5333 21.2062L11.4282 20.2885C11.8011 21.1074 12.4473 21.7939 13.3032 22.1694ZM21.2253 7.20966C21.2253 9.71184 23.1583 11.7483 25.5336 11.7483C27.9088 11.7483 29.8426 9.71184 29.8426 7.20966C29.8426 4.70921 27.9088 2.67276 25.5336 2.67276C23.1583 2.67276 21.2253 4.70921 21.2253 7.20966Z" fill="url(#paint1_linear_124_3433)"/>
<defs>
<linearGradient id="paint0_linear_124_3433" x1="32" y1="0.400009" x2="1.63008e-06" y2="23.6" gradientUnits="userSpaceOnUse">
<stop stop-color="#A0C1FF"/>
<stop offset="1" stop-color="#23375E"/>
</linearGradient>
<linearGradient id="paint1_linear_124_3433" x1="32" y1="0.400009" x2="1.63008e-06" y2="23.6" gradientUnits="userSpaceOnUse">
<stop stop-color="#A0C1FF"/>
<stop offset="1" stop-color="#23375E"/>
</linearGradient>
</defs>
</svg>
