<svg width="106" height="26" viewBox="0 0 106 26" fill="none" xmlns="http://www.w3.org/2000/svg">
<path opacity="0.5" fill-rule="evenodd" clip-rule="evenodd" d="M24.806 0.310486H-0.00012207V25.6907H24.806V0.310486ZM15.6612 3.51809L10.4851 3.54375L10.4459 3.60347C11.3283 5.97676 11.4491 8.31936 11.4491 8.31936L14.5992 8.30408C14.6318 6.41712 15.6612 3.51809 15.6612 3.51809ZM17.9473 22.0604L21.5795 18.3726L21.5647 18.3024C19.2598 17.2544 17.5135 15.6879 17.5135 15.6879L15.3029 17.9323C16.618 19.2862 17.9473 22.0604 17.9473 22.0604ZM8.93526 11.7317L10.4566 11.7012L10.4871 15.0793H8.99605L8.93526 11.7317ZM12.9212 12.3858L11.9389 13.4339L12.9844 14.4942L13.9523 13.3971L12.9212 12.3858ZM11.4301 9.24937L14.6977 9.2341L14.7283 10.8148H11.4756L11.4301 9.24937ZM15.6857 13.8848L13.3602 16.195L14.5001 17.3043L16.6886 15.0793L15.6857 13.8848ZM3.33761 15.9217L3.3121 10.7456C3.3121 10.7456 6.07427 11.7296 7.96154 11.7621L7.99209 15.0794C7.99209 15.0794 5.77093 15.0786 3.39763 15.961L3.33761 15.9217Z" fill="white"/>
<path opacity="0.5" d="M27.3325 0.310486H45.2481V5.59319H27.3325V0.310486ZM27.3325 5.59319V25.6909H32.8449V18.3023H35.2567V25.6907H45.2481V20.2932H40.195V18.3023H45.2481V5.59319H40.195V13.0476H32.8451V5.59319H27.3325ZM48.0044 0.310486V25.6907H65.5752V0.310486H60.5223V20.2932H53.2871V0.310486H48.0044ZM85.7876 0.310486H68.3315V15.0793H80.6198V20.2932H68.3315V25.6907H85.7876V9.68436H73.4995V5.59319H85.7876V0.310486ZM88.429 0.310486H106V5.59319H99.7984V25.6909H94.8603V5.59304H88.429V0.310486Z" fill="white"/>
</svg>
