<svg width="26" height="34" viewBox="0 0 26 34" fill="none" xmlns="http://www.w3.org/2000/svg">
<path d="M12.4432 0.0457423C12.6272 -0.0581055 12.8993 0.0190592 12.9626 0.234688C13.0308 0.412815 12.9128 0.575798 12.8162 0.713541C12.132 1.69793 11.678 2.8417 11.4634 4.02513C11.3334 4.08138 11.2958 4.21984 11.3363 4.35038C11.4002 4.37417 11.4649 4.39509 11.5302 4.41528C12.8581 4.29701 14.2052 4.32153 15.5125 4.60495C17.8912 5.09101 20.1144 6.31266 21.8231 8.05933C23.5269 9.78796 24.7226 12.0279 25.2065 14.4243C25.7429 17.0191 25.4431 19.7811 24.3702 22.1978C22.0952 27.1327 18.26 31.3068 13.5672 33.9527C13.4159 34.0241 13.1977 34.027 13.094 33.8741C12.9718 33.714 13.0223 33.4862 13.143 33.3405C13.7761 32.4441 14.218 31.4135 14.4582 30.339C14.5043 30.1161 14.5676 29.8904 14.5484 29.6611C14.4709 29.5587 14.3431 29.5897 14.2344 29.5933C11.9565 29.8248 9.61261 29.4116 7.55431 28.3904C5.34966 27.3123 3.47894 25.5497 2.24197 23.4072C1.09595 21.4362 0.493455 19.1407 0.535374 16.851C0.543189 14.7496 1.10803 12.6654 2.10272 10.8257C4.41821 6.31339 8.05379 2.50564 12.4432 0.0457423ZM12.3153 12.1043C10.9604 12.289 9.71065 13.0967 8.95185 14.2476C8.43817 15.038 8.12697 15.977 8.13336 16.9275C8.095 18.2011 8.59518 19.4768 9.46198 20.3941C10.2194 21.222 11.2716 21.7615 12.375 21.9057C13.4983 22.0564 14.6713 21.7896 15.6227 21.1629C16.5896 20.5398 17.3264 19.5561 17.6561 18.4419C18.2749 16.5078 17.5332 14.2419 15.9189 13.0469C14.9051 12.2637 13.5757 11.9161 12.3153 12.1043Z" fill="url(#paint0_linear_124_3440)"/>
<defs>
<linearGradient id="paint0_linear_124_3440" x1="25.4667" y1="-2.17968e-06" x2="0.533326" y2="34" gradientUnits="userSpaceOnUse">
<stop stop-color="#F15A23"/>
<stop offset="1" stop-color="#913616"/>
</linearGradient>
</defs>
</svg>
