<svg width="24" height="28" viewBox="0 0 24 28" fill="none" xmlns="http://www.w3.org/2000/svg">
<path d="M9.05143 18.9399L9.06473 18.9803L9.08243 19.0204H8.33668L8.35414 18.9803L8.36744 18.9399L8.38519 18.8953L8.40294 18.8552L8.41595 18.8148L8.43365 18.7747L8.4514 18.7301L8.4689 18.6897L8.48215 18.6496L8.49991 18.6096L8.51761 18.5692L8.53066 18.5246L8.54841 18.4845L8.56611 18.4441L8.57946 18.404L8.59692 18.3639L8.61467 18.3191L8.63237 18.2789L8.64543 18.2388L8.66318 18.1985L8.68093 18.1539L8.69418 18.1135L8.71164 18.0734L8.72939 18.1135L8.74269 18.1539L8.76014 18.1985L8.77789 18.2388L8.79119 18.2789L8.8089 18.3191L8.8264 18.3639L8.83965 18.404L8.8574 18.4441L8.87515 18.4845L8.88816 18.5246L8.90591 18.5692L8.91926 18.6096L8.93667 18.6496L8.95442 18.6897L8.96777 18.7301L8.98547 18.7747L9.00292 18.8148L9.01622 18.8552L9.03398 18.8953L9.05143 18.9399Z" fill="url(#paint0_linear_124_3446)"/>
<path d="M10.8677 8.49054C10.8677 8.92001 10.6705 9.1195 10.2606 9.1195H9.59255V5.16256H10.2606C10.6705 5.16256 10.8677 5.36186 10.8677 5.79123V8.49054Z" fill="url(#paint1_linear_124_3446)"/>
<path fill-rule="evenodd" clip-rule="evenodd" d="M2.17949 0H21.8205C23.4124 0 24 0.59069 24 2.19199V21.5142C24 21.6954 23.9927 21.8637 23.9768 22.0197C23.9737 22.0488 23.9709 22.0779 23.9681 22.1069C23.9372 22.426 23.9067 22.7401 23.6104 23.0935C23.5788 23.1313 23.2487 23.3783 23.2487 23.3783C23.2167 23.3941 23.1864 23.4091 23.1573 23.4237C23.0248 23.4896 22.9138 23.5449 22.7496 23.6113L13.0782 27.6852C12.576 27.9166 12.3661 28.0068 12.0014 27.9995L12 27.9996H11.9985C11.6339 28.0069 11.4239 27.9166 10.9218 27.6852L1.25035 23.6113C1.08602 23.5448 0.974899 23.4895 0.842205 23.4234C0.813191 23.409 0.783146 23.394 0.751287 23.3783C0.751287 23.3783 0.421184 23.1313 0.389587 23.0935C0.0932109 22.7401 0.0627712 22.426 0.0318411 22.1069C0.0290283 22.0779 0.0262114 22.0488 0.02319 22.0197C0.00726832 21.8637 0 21.6954 0 21.5142V2.19199C0 0.59069 0.587521 0 2.17949 0ZM16.6712 24.1636H7.37263L11.9251 25.7372L16.6712 24.1636ZM20.5005 19.4705L20.505 19.4259L20.5094 19.3769V19.2699L20.505 19.2209L20.5005 19.1764L20.4828 19.0872L20.474 19.0471L20.4609 19.007L20.4476 18.9669L20.4299 18.9312L20.4077 18.8911L20.3858 18.8554L20.3592 18.8154L20.3329 18.7797L20.3018 18.7485L20.2711 18.7128L20.2356 18.6816L20.2004 18.6504L20.1652 18.6281L20.1297 18.6014L20.0946 18.5791L20.0549 18.5569L20.015 18.5345L19.9709 18.5123L19.9268 18.4945L19.8828 18.4721L19.834 18.4546L19.7548 18.4279L19.7104 18.4145L19.6708 18.4011L19.5827 18.3744L19.5383 18.3655L19.4898 18.3521L19.4457 18.3387L19.3973 18.3298L19.3488 18.3164L19.2515 18.2897L19.2074 18.2807L19.1678 18.2674L19.1279 18.2585L19.0927 18.2451L19.0575 18.2362L19.0045 18.2184L18.9558 18.2006L18.9117 18.1827L18.8765 18.1604L18.8366 18.1382L18.8059 18.107L18.7881 18.0802L18.7662 18.0312L18.7617 17.9733V17.9643L18.7662 17.9198L18.7836 17.8797L18.8103 17.8395L18.8499 17.8039L18.881 17.7861L18.9162 17.7682L18.9558 17.7593L19.0001 17.7504L19.0486 17.7415H19.1456L19.1853 17.7459L19.2296 17.7504L19.2737 17.7548L19.3177 17.7638L19.4061 17.7816L19.4502 17.795L19.4942 17.8084L19.5428 17.8217L19.5783 17.8395L19.6179 17.8529L19.6531 17.8707L19.693 17.8886L19.7282 17.9064L19.7678 17.9242L19.8033 17.9465L19.8429 17.9643L19.8783 17.9911L19.9136 18.0133L19.9532 18.0357L19.9887 18.0624L20.015 18.0267L20.0372 17.9911L20.0635 17.9554L20.0901 17.9198L20.1164 17.8797L20.1386 17.844L20.1652 17.8084L20.1916 17.7727L20.2137 17.737L20.24 17.7014L20.2666 17.6657L20.2888 17.6301L20.3152 17.59L20.3418 17.5543L20.3681 17.5187L20.3903 17.483L20.4166 17.4473L20.3462 17.3939L20.3108 17.3671L20.2755 17.3449L20.2356 17.3181L20.2004 17.2958L20.1608 17.2735L20.1209 17.2512L20.0857 17.2334L20.046 17.2111L20.0017 17.1933L19.9224 17.1576L19.8828 17.1443L19.8385 17.1265L19.7988 17.1175L19.7592 17.1041L19.7149 17.0908L19.6752 17.0819L19.6312 17.0729L19.5871 17.064L19.5472 17.0551L19.5031 17.0462L19.4546 17.0418L19.4105 17.0329L19.3618 17.0284H19.3177L19.2207 17.0195H19.0309L18.8544 17.0373L18.8147 17.0462L18.7706 17.0551L18.6911 17.0729L18.6559 17.0819L18.616 17.0952L18.5719 17.113L18.5279 17.1265L18.488 17.1443L18.4484 17.1665L18.4087 17.1844L18.3688 17.2067L18.3336 17.2289L18.2984 17.2557L18.2629 17.2824L18.2322 17.3047L18.1967 17.3359L18.1659 17.3716L18.1349 17.4028L18.1042 17.4384L18.0775 17.4741L18.0512 17.5098L18.0291 17.5498L18.0071 17.59L17.9716 17.6702L17.9542 17.7103L17.9453 17.7504L17.932 17.7905L17.9143 17.8707L17.9098 17.9153L17.9054 17.9554L17.901 18V18.1025L17.9054 18.1515L17.9098 18.1961L17.9143 18.2406L17.9231 18.2807L17.932 18.3253L17.9453 18.361L17.9583 18.4011L17.9716 18.4368L17.9894 18.4677L18.0115 18.5078L18.0334 18.5435L18.0557 18.5746L18.082 18.6058L18.1086 18.637L18.1394 18.6683L18.1704 18.6994L18.2011 18.7262L18.2366 18.7485L18.2718 18.7752L18.3114 18.7975L18.3469 18.8198L18.391 18.8421L18.4306 18.8643L18.519 18.9L18.5631 18.9178L18.6116 18.9357L18.6515 18.949L18.7308 18.9758L18.7748 18.9847L18.8147 18.9981L18.8588 19.0114L18.9028 19.0204L18.9472 19.0338L18.9912 19.0426L19.0397 19.056L19.0838 19.0649L19.1323 19.0783L19.1766 19.0872L19.2207 19.1006L19.2604 19.1095L19.3003 19.1229L19.3354 19.1318L19.3662 19.1407L19.4191 19.163L19.4635 19.1808L19.5031 19.1986L19.5383 19.2164L19.5738 19.2432L19.6046 19.2699L19.6268 19.3011L19.6445 19.3457L19.6489 19.3992V19.4081L19.6445 19.4527L19.6312 19.4928L19.6134 19.5284L19.5871 19.5597L19.5517 19.5864L19.5208 19.6042L19.4854 19.6176L19.4457 19.6265L19.4061 19.6354L19.3618 19.6443L19.3133 19.6487H19.2163L19.1678 19.6443H19.1237L19.0794 19.6354L19.0309 19.631L18.8984 19.6042L18.8588 19.5908L18.7706 19.5641L18.7308 19.5463L18.6911 19.5329L18.6515 19.5151L18.6116 19.4973L18.5719 19.4794L18.5368 19.4571L18.4968 19.4393L18.4617 19.417L18.422 19.3903L18.3865 19.368L18.3469 19.3413L18.3114 19.3145L18.2718 19.2878L18.2366 19.261L18.21 19.2967L18.1792 19.3279L18.1526 19.3635L18.1219 19.3992L18.0953 19.4304L18.0689 19.4661L18.0379 19.5017L18.0115 19.5329L17.9805 19.5686L17.9542 19.5997L17.9231 19.6354L17.8968 19.6711L17.8702 19.7022L17.8394 19.7379L17.8128 19.7736L17.7821 19.8048L17.7555 19.8404L17.7907 19.8716L17.8217 19.8984L17.8569 19.9251L17.8924 19.9518L17.9628 20.0053L17.9982 20.0276L18.0334 20.0499L18.0734 20.0722L18.1086 20.0944L18.1482 20.1167L18.1881 20.1346L18.2277 20.1566L18.2674 20.1744L18.3072 20.1923L18.3513 20.2101L18.391 20.2234L18.4351 20.2368L18.4749 20.2547L18.5631 20.2814L18.6027 20.2903L18.647 20.3037L18.6911 20.3126L18.7351 20.3215L18.7792 20.3304L18.8236 20.3393L18.8677 20.3438L18.9117 20.3527L18.9602 20.3572L19.0486 20.3661H19.0971L19.1412 20.3705H19.3266L19.3707 20.3661L19.4191 20.3616L19.4635 20.3572L19.5031 20.3527L19.5472 20.3483L19.5916 20.3393L19.6708 20.3215L19.7149 20.3126L19.7548 20.2992L19.7988 20.2858L19.8429 20.2725L19.8869 20.2547L19.9313 20.2368L19.9709 20.2145L20.0106 20.1967L20.0505 20.1744L20.0857 20.1477L20.1209 20.1257L20.1563 20.0989L20.1871 20.0722L20.2225 20.041L20.2489 20.0142L20.2799 19.983L20.3062 19.9518L20.3284 19.9162L20.3548 19.8806L20.3991 19.8092L20.4166 19.7692L20.4343 19.7335L20.452 19.6933L20.4654 19.6487L20.474 19.6086L20.4872 19.5641L20.4961 19.5195L20.5005 19.4705ZM14.8811 17.0729V20.3171H17.454V19.5819H15.7239V19.0293H17.2598V18.3387H15.7239V17.8084H17.4319V17.0729H14.8811ZM13.3777 18.3987V20.3171H14.2294V17.0729H13.3248L13.3027 17.1086L13.2808 17.1487L13.2542 17.1841L13.232 17.2242L13.2101 17.2598L13.1879 17.3L13.1616 17.3354L13.1394 17.3755L13.1173 17.4112L13.0953 17.4468L13.0688 17.4866L13.0468 17.5223L13.0247 17.5624L13.0025 17.5981L12.9762 17.6379L12.954 17.6736L12.9321 17.7092L12.9099 17.7491L12.8878 17.7847L12.8614 17.8248L12.8393 17.8605L12.8171 17.9003L12.7952 17.936L12.7686 17.9761L12.7468 18.0115L12.7246 18.0471L12.7024 18.0873L12.676 18.123L12.6539 18.1631L12.6319 18.1985L12.6098 18.2386L12.5835 18.2742L12.5613 18.3141L12.5392 18.3498L12.5173 18.3141L12.4951 18.2742L12.4685 18.2386L12.4466 18.1985L12.4244 18.1631L12.4025 18.123L12.3804 18.0873L12.3538 18.0471L12.3318 18.0115L12.3096 17.9761L12.2878 17.936L12.2656 17.9003L12.239 17.8605L12.2171 17.8248L12.1949 17.7847L12.1731 17.7491L12.1509 17.7092L12.1243 17.6736L12.1024 17.6379L12.0802 17.5981L12.0581 17.5624L12.0317 17.5223L12.0096 17.4866L11.9876 17.4468L11.9654 17.4112L11.9433 17.3755L11.9169 17.3354L11.8948 17.3L11.8729 17.2598L11.8507 17.2242L11.8285 17.1841L11.8022 17.1487L11.7801 17.1086L11.7582 17.0729H10.8533V20.3171H11.6919V18.4077L11.7182 18.4433L11.7405 18.4837L11.7668 18.5193L11.7889 18.5594L11.8155 18.5951L11.8374 18.6352L11.864 18.6711L11.8859 18.7113L11.9125 18.7469L11.9347 18.787L11.961 18.8227L11.9832 18.8631L12.0096 18.8987L12.0317 18.9388L12.0581 18.9745L12.0802 19.0149L12.1068 19.0505L12.1331 19.0906L12.1553 19.1263L12.1816 19.1666L12.2038 19.2023L12.2304 19.2424L12.2523 19.278L12.2789 19.3185L12.3008 19.3541L12.3274 19.3942L12.3496 19.4299L12.3759 19.47L12.3981 19.5059L12.4244 19.546L12.4466 19.5816L12.4729 19.6218L12.4951 19.6577L12.5217 19.6978H12.5392L12.5613 19.6622L12.5877 19.6218L12.6098 19.5861L12.6364 19.5505L12.6583 19.5103L12.6849 19.4747L12.7068 19.4388L12.729 19.3987L12.7556 19.363L12.7775 19.3274L12.8041 19.2915L12.826 19.2513L12.8526 19.2157L12.8748 19.18L12.8967 19.1396L12.9233 19.104L12.9451 19.0683L12.9717 19.0282L12.9936 18.9925L13.0202 18.9566L13.0424 18.9165L13.0643 18.8809L13.0909 18.8452L13.1129 18.8049L13.1394 18.7692L13.1616 18.7335L13.1879 18.6979L13.2101 18.6575L13.232 18.6219L13.2586 18.5862L13.2808 18.5461L13.3071 18.5104L13.3293 18.4748L13.3556 18.4344L13.3777 18.3987ZM9.568 20.2769L9.5855 20.3171H10.4947L10.477 20.2769L10.4593 20.2368L10.4419 20.1967L10.4285 20.1521L10.4108 20.1123L10.3931 20.0722L10.3756 20.0321L10.3401 19.9518L10.3227 19.9073L10.3049 19.8671L10.2916 19.8271L10.2741 19.787L10.2564 19.7468L10.2387 19.7067L10.221 19.6622L10.2035 19.6221L10.168 19.5418L10.155 19.5017L10.1373 19.4616L10.1195 19.417L10.1018 19.3769L10.0843 19.3368L10.0666 19.2967L10.0489 19.2566L10.0314 19.2164L10.0181 19.1719L10.0004 19.1318L9.98285 19.0917L9.96515 19.0515L9.9474 19.0114L9.9297 18.9713L9.91219 18.9268L9.89449 18.8867L9.88119 18.8465L9.86373 18.8064L9.82823 18.7262L9.81053 18.6816L9.79303 18.6415L9.77527 18.6014L9.75757 18.5613L9.74452 18.5212L9.72682 18.481L9.70907 18.4412L9.69161 18.3966L9.63841 18.2763L9.62095 18.2362L9.6076 18.1961L9.5899 18.1515L9.57245 18.1114L9.5547 18.0713L9.53699 18.0312L9.51924 17.9911L9.50174 17.951L9.48404 17.9064L9.47073 17.8663L9.45328 17.8262L9.43553 17.7861L9.41783 17.7459L9.40037 17.7058L9.38262 17.6613L9.34712 17.581L9.33411 17.5409L9.29861 17.4607L9.28116 17.4161L9.26341 17.376L9.2457 17.3359L9.22795 17.2958L9.2105 17.2557L9.1972 17.2156L9.1795 17.171L9.16199 17.1309L9.14424 17.0908L9.12654 17.0507H8.31008L8.29263 17.0908L8.27488 17.1309L8.25717 17.171L8.24382 17.2156L8.22637 17.2557L8.20867 17.2958L8.19092 17.3359L8.17346 17.376L8.15571 17.4161L8.13796 17.4607L8.12021 17.5009L8.1072 17.5409L8.0717 17.6212L8.05425 17.6613L8.0365 17.7058L8.01879 17.7459L8.00129 17.7861L7.98359 17.8262L7.97029 17.8663L7.95258 17.9064L7.93508 17.951L7.91738 17.9911L7.89963 18.0312L7.88212 18.0713L7.86442 18.1114L7.84667 18.1515L7.83337 18.1961L7.81592 18.2362L7.79816 18.2763L7.78046 18.3164L7.76296 18.3566L7.74526 18.3966L7.72755 18.4412L7.71005 18.481L7.69675 18.5212L7.679 18.5613L7.6613 18.6014L7.64384 18.6415L7.62609 18.6816L7.60834 18.7262L7.59088 18.7663L7.57313 18.8064L7.55983 18.8465L7.54213 18.8867L7.52463 18.9268L7.50693 18.9713L7.48922 19.0114L7.47172 19.0515L7.45402 19.0917L7.43627 19.1318L7.42297 19.1719L7.40551 19.2164L7.37001 19.2967L7.35255 19.3368L7.31705 19.417L7.2996 19.4616L7.28629 19.5017L7.26859 19.5418L7.25084 19.5819L7.23334 19.6221L7.21564 19.6622L7.19789 19.7067L7.18043 19.7468L7.16268 19.787L7.14943 19.8271L7.13168 19.8671L7.11422 19.9073L7.09647 19.9518L7.07872 19.992L7.06126 20.0321L7.04356 20.0722L7.02581 20.1123L7.01251 20.1521L6.99501 20.1967L6.9773 20.2368L6.95956 20.2769L6.9421 20.3171H7.83337L7.85112 20.2769L7.86442 20.2368L7.88212 20.1967L7.89963 20.1521L7.91293 20.1123L7.93068 20.0722L7.94813 20.0321L7.96144 19.992L7.97919 19.9518L7.99689 19.9117L8.00994 19.8716L8.02764 19.8271L8.0454 19.787L8.0587 19.7468L8.07615 19.7067H9.34267L9.36042 19.7468L9.37372 19.787L9.39147 19.8271L9.40898 19.8716L9.42223 19.9117L9.43998 19.9518L9.45768 19.992L9.47073 20.0321L9.50619 20.1123L9.51924 20.1521L9.53699 20.1967L9.5547 20.2368L9.568 20.2769ZM6.5489 19.9295L6.58436 19.9028L6.61511 19.8761V18.4279H5.15872V19.0783H5.80311V19.4839L5.76785 19.5062L5.73685 19.524L5.69724 19.5418L5.66179 19.5597L5.62208 19.5775L5.58248 19.5864L5.53842 19.5997L5.49407 19.6086L5.45001 19.6176L5.40595 19.6221L5.30864 19.631H5.20723L5.15872 19.6265L5.11466 19.6221L5.02625 19.6042L4.93809 19.5775L4.89824 19.5597L4.81892 19.524L4.78347 19.5017L4.74832 19.4794L4.71311 19.4527L4.67761 19.4259L4.6469 19.3992L4.62025 19.368L4.58949 19.3368L4.56289 19.3056L4.53654 19.2699L4.49223 19.1986L4.47033 19.1585L4.45263 19.1184L4.43488 19.0738L4.42182 19.0382L4.40852 18.9981L4.38192 18.8778L4.37747 18.8332L4.37307 18.793L4.36891 18.7485V18.6459L4.37307 18.6014L4.37747 18.5569L4.38637 18.5078L4.39522 18.4677L4.40407 18.4234L4.41737 18.3788L4.43488 18.3387L4.44818 18.2986L4.46588 18.2585L4.48808 18.2228L4.50993 18.1827L4.53209 18.1471L4.55404 18.1159L4.58064 18.0802L4.6114 18.049L4.638 18.0178L4.66876 17.9911L4.69981 17.9643L4.73056 17.9376L4.76607 17.9153L4.80122 17.893L4.83668 17.8707L4.87633 17.8529L4.91599 17.8351L4.95559 17.8217L4.9955 17.8084L5.03515 17.7994L5.07921 17.7905L5.11911 17.7861L5.16317 17.7816H5.25573L5.30449 17.7861L5.35299 17.7905L5.3971 17.795L5.44116 17.8039L5.48521 17.8128L5.52512 17.8217L5.60438 17.8484L5.63983 17.8618L5.67504 17.8797L5.71049 17.8975L5.7501 17.9198L5.82081 17.9643L5.85601 17.9866L5.89122 18.0133L5.92667 18.0357L5.96188 18.0668L5.99733 18.0936L6.02368 18.0579L6.05469 18.0267L6.08109 17.9911L6.11209 17.9554L6.1384 17.9198L6.165 17.8886L6.19581 17.8529L6.22236 17.8173L6.25316 17.7816L6.27977 17.7504L6.30607 17.7147L6.33712 17.6791L6.36348 17.6479L6.39008 17.6122L6.42084 17.5766L6.44744 17.5409L6.47819 17.5098L6.5048 17.4741L6.46959 17.4473L6.43414 17.4161L6.39893 17.3894L6.36348 17.3627L6.32827 17.3403L6.29307 17.3136L6.25316 17.2913L6.21796 17.269L6.17835 17.2468L6.14285 17.2245L6.10324 17.2067L6.06359 17.1844L6.02368 17.1665L5.98408 17.1487L5.94442 17.1309L5.90452 17.1175L5.86931 17.1041L5.82971 17.0952L5.7898 17.0819L5.71049 17.064L5.67064 17.0551L5.62653 17.0462L5.58248 17.0373L5.54257 17.0329L5.49407 17.0239L5.45001 17.0195H5.40595L5.30864 17.0105H5.11911L4.94254 17.0284L4.89824 17.0373L4.85413 17.0418L4.81007 17.0507L4.77042 17.064L4.72611 17.0729L4.68651 17.0863L4.6469 17.0952L4.60695 17.113L4.56289 17.1265L4.52769 17.1398L4.48358 17.1621L4.44373 17.1799L4.40407 17.1978L4.36446 17.22L4.32456 17.2423L4.2849 17.2646L4.24975 17.2869L4.21425 17.3092L4.17904 17.3359L4.14359 17.3582L4.10838 17.3849L4.07758 17.4117L4.04212 17.4429L4.01137 17.4696L3.94956 17.532L3.92296 17.5632L3.8922 17.5944L3.8656 17.6256L3.83925 17.6613L3.81264 17.6969L3.78634 17.7326L3.76414 17.7682L3.74203 17.8039L3.72008 17.8395L3.69793 17.8752L3.67578 17.9153L3.65832 17.9554L3.64057 17.9955L3.62287 18.0357L3.60536 18.0757L3.58761 18.1203L3.57431 18.1604L3.56101 18.205L3.54801 18.2451L3.53911 18.2897L3.52581 18.3342L3.51695 18.3744L3.51255 18.419L3.5037 18.4632L3.4992 18.5123L3.49505 18.5569V18.6014L3.49065 18.6504V18.7975L3.49505 18.8421L3.4992 18.8867L3.5037 18.9312L3.50805 18.9713L3.51695 19.0159L3.5214 19.056L3.53026 19.1006L3.54356 19.1407L3.55241 19.1853L3.56546 19.2253L3.57431 19.2655L3.59206 19.3056L3.60536 19.3413L3.62287 19.3813L3.64057 19.4215L3.65832 19.4616L3.67578 19.5017L3.69793 19.5373L3.72008 19.5775L3.74203 19.6132L3.76414 19.6487L3.79049 19.6844L3.81264 19.7201L3.83925 19.7513L3.8656 19.787L3.8922 19.8181L3.92296 19.8493L3.95401 19.8806L3.98477 19.9073L4.01582 19.9385L4.04657 19.9652L4.07758 19.992L4.14804 20.0454L4.18349 20.0722L4.2187 20.0944L4.25415 20.1167L4.29381 20.139L4.32896 20.1611L4.36891 20.1834L4.40852 20.2012L4.44818 20.219L4.48808 20.2368L4.53209 20.2547L4.57174 20.268L4.6114 20.2858L4.6513 20.2992L4.69536 20.3081L4.73501 20.3215L4.77932 20.3304L4.81892 20.3393L4.90709 20.3572L5.03955 20.3705L5.08806 20.375L5.13212 20.3794H5.32199L5.37045 20.375L5.4148 20.3705L5.46331 20.3661L5.50737 20.3616L5.55587 20.3572L5.59998 20.3527L5.64428 20.3438L5.68834 20.3349L5.728 20.326L5.77235 20.3171L5.81195 20.3037L5.85601 20.2903L5.89567 20.2769L5.93552 20.2635L5.97523 20.2502L6.01483 20.2323L6.05919 20.2145L6.09879 20.1967L6.14285 20.1789L6.18251 20.1566L6.22236 20.139L6.30167 20.0944L6.34157 20.0722L6.37678 20.0499L6.41223 20.0276L6.44744 20.0009L6.48264 19.9786L6.5181 19.9518L6.5489 19.9295ZM7.07771 9.7327H5.16498V12.9689H7.18412V14.4565H3.54072V3.72091H7.15386V5.20842H5.16498V8.24519H7.07771V9.7327ZM18.8653 10.0549V12.4781C18.8653 12.9076 18.6679 13.1069 18.2582 13.1069H17.9544C17.5294 13.1069 17.332 12.9076 17.332 12.4781V5.6992C17.332 5.26978 17.5294 5.07053 17.9544 5.07053H18.2277C18.6376 5.07053 18.835 5.26978 18.835 5.6992V7.80051H20.4288V5.60718C20.4288 4.27303 19.7912 3.62885 18.4708 3.62885H17.6812C16.3607 3.62885 15.7077 4.28825 15.7077 5.62264V12.5547C15.7077 13.8891 16.3607 14.5485 17.6812 14.5485H18.4859C19.8067 14.5485 20.4593 13.8891 20.4593 12.5547V10.0549H18.8653ZM14.8492 14.4565H13.2247V3.72088H14.8492V14.4565ZM10.5185 3.72088H7.96824V14.4565H9.59255V10.5609H10.5185C11.8393 10.5609 12.492 9.90154 12.492 8.56739V5.71467C12.492 4.38027 11.8393 3.72088 10.5185 3.72088Z" fill="url(#paint2_linear_124_3446)"/>
<defs>
<linearGradient id="paint0_linear_124_3446" x1="24" y1="4.27485e-07" x2="-0.393993" y2="27.6524" gradientUnits="userSpaceOnUse">
<stop stop-color="white"/>
<stop offset="1" stop-color="#808080"/>
</linearGradient>
<linearGradient id="paint1_linear_124_3446" x1="24" y1="4.27485e-07" x2="-0.393993" y2="27.6524" gradientUnits="userSpaceOnUse">
<stop stop-color="white"/>
<stop offset="1" stop-color="#808080"/>
</linearGradient>
<linearGradient id="paint2_linear_124_3446" x1="24" y1="4.27485e-07" x2="-0.393993" y2="27.6524" gradientUnits="userSpaceOnUse">
<stop stop-color="white"/>
<stop offset="1" stop-color="#808080"/>
</linearGradient>
</defs>
</svg>
