<svg width="137" height="32" viewBox="0 0 137 32" fill="none" xmlns="http://www.w3.org/2000/svg">
<g opacity="0.5">
<path d="M78.7394 7.63363C78.7776 7.65295 78.7776 7.65295 78.7394 7.63363V7.63363Z" fill="white"/>
<path d="M76.3164 0.580047C76.8887 0.0582751 77.7473 -0.134974 78.4914 0.0969249C78.7776 0.193549 79.0256 0.367473 79.2927 0.541397C79.5026 0.676671 79.7506 0.734646 79.9414 0.889245C80.0368 0.966545 79.9605 1.10182 79.9605 1.19844C80.2085 1.79751 80.3421 2.45456 80.1322 3.09228C79.9605 3.30486 79.6552 3.36283 79.4072 3.45945C79.369 3.73 79.4644 3.98123 79.5026 4.25177C79.4453 4.29042 79.4072 4.32907 79.3499 4.36772C79.7124 4.3484 80.0749 4.2711 80.4374 4.1938C80.571 4.05853 80.7809 4.13583 80.9526 4.1165C80.9717 3.84595 81.0671 3.59473 81.0671 3.32418C81.1052 3.32418 81.1815 3.30486 81.2197 3.28553C81.2388 3.47878 81.2197 3.67203 81.2769 3.86528C81.3723 3.94258 81.525 3.90393 81.6394 3.92325C81.6394 4.00055 81.6394 4.07785 81.6585 4.15515C83.8717 4.13583 86.1039 4.15515 88.3171 4.15515C88.3171 4.2711 88.3171 4.38705 88.3171 4.48367C88.3744 4.48367 88.4507 4.48367 88.527 4.48367C88.527 4.05853 88.527 3.6527 88.527 3.22756C88.5842 3.22756 88.7178 3.22756 88.775 3.22756C88.775 3.5754 88.7559 3.90393 88.775 4.25177C88.7941 4.2711 88.8322 4.29042 88.8704 4.29042C88.8704 4.32907 88.8895 4.40637 88.8895 4.44502C88.9658 4.36772 89.0612 4.30975 89.1757 4.3484C89.1947 4.40637 89.2138 4.46435 89.2329 4.54165C89.1566 4.61895 89.1184 4.71557 89.1566 4.83152C89.7671 4.85085 90.3777 4.83152 91.0073 4.83152C91.0645 4.75422 91.1599 4.71557 91.2553 4.67692C91.2934 4.69625 91.3507 4.7349 91.3698 4.75422C91.675 4.75422 91.9612 4.75422 92.2665 4.75422C92.3046 4.90882 92.3046 5.06342 92.2856 5.19869C91.9803 5.19869 91.675 5.19869 91.3698 5.19869C91.3507 5.21802 91.2934 5.27599 91.2553 5.29532C91.1599 5.23734 91.0836 5.19869 90.9882 5.14072C90.4349 5.14072 89.8816 5.14072 89.3283 5.14072C89.004 5.23734 88.6605 5.21802 88.3362 5.16004C88.3362 5.27599 88.3362 5.41127 88.3362 5.52722C87.4204 5.52722 86.5237 5.52722 85.6079 5.52722C85.4934 5.62384 85.3789 5.68182 85.2263 5.70114C85.2835 5.99101 84.9592 6.06831 84.8447 6.28089C84.7684 6.39684 84.6539 6.47414 84.5395 6.51279C84.4441 7.11186 84.6539 7.67228 84.8066 8.2327C84.6348 8.27135 84.4441 8.32933 84.2723 8.36798C84.177 8.75447 84.0816 9.1603 84.0052 9.54679C83.9289 9.89464 83.6618 10.1845 83.3375 10.3198C83.1085 10.5903 82.8033 10.8609 82.4408 10.8802C82.3072 10.9189 82.2118 10.8222 82.1164 10.7449C81.6394 10.7836 81.2006 10.5517 80.7809 10.3584C80.323 10.1459 79.9032 9.87532 79.4644 9.62409C79.5026 9.89464 79.369 10.1265 79.2736 10.3584C79.4835 10.4551 79.7697 10.5324 79.8842 10.7643C79.9605 10.9382 80.0368 11.1314 80.0368 11.344C80.0177 12.0397 79.9414 12.7354 79.9032 13.4311C79.9223 13.9335 79.6743 14.436 79.3309 14.8032C79.1019 14.7838 78.9111 14.6872 78.7013 14.5906C78.6249 14.7645 78.4532 14.9384 78.5486 15.151C78.6249 15.4022 78.6249 15.6728 78.7394 15.9047C79.3881 16.6004 79.9414 17.3734 80.3421 18.243C80.7427 19.074 81.048 19.9436 81.3723 20.8132C81.4296 20.8132 81.544 20.7939 81.6013 20.7939C81.6776 21.0451 81.6013 21.335 81.7539 21.5669C81.8875 21.7794 81.8493 22.0307 81.8493 22.2819C81.8111 22.8616 81.773 23.4414 81.7157 24.0211C81.6776 24.427 81.5822 24.8328 81.5249 25.2386C81.544 25.5478 81.6776 25.857 81.6585 26.1662C81.6394 26.4561 81.6394 26.7653 81.4105 26.9778C81.4296 27.6349 81.2579 28.2919 81.4868 28.9297C81.7921 29.3548 82.1355 29.7606 82.498 30.1278C82.8987 30.321 83.3756 30.3597 83.719 30.7075C83.8526 30.9201 83.7763 31.1713 83.7381 31.4032C82.9177 31.5192 82.0973 31.5192 81.2769 31.4032C80.9526 31.3259 80.6473 31.1907 80.323 31.152C79.8842 31.1713 79.369 31.3453 78.9684 31.0361C78.9302 30.5143 79.121 30.0118 79.2164 29.5094C79.2545 29.3355 79.4263 29.2195 79.4072 29.0456C79.369 28.4465 79.3309 27.8281 79.2927 27.2291C79.2164 27.1904 79.0828 27.1518 79.1019 27.0358C79.1019 26.7459 79.0065 26.4561 78.9302 26.1855C78.7966 25.4512 78.7394 24.6975 78.7203 23.9438C78.7013 23.7313 78.8348 23.5767 78.9874 23.4414C79.0256 23.1129 79.0638 22.765 79.0828 22.4365C79.0256 22.2626 78.892 22.1273 78.8157 21.9727C78.4723 22.0113 77.9762 22.0886 77.7664 21.7215C77.2703 20.9678 76.7552 20.1948 76.2591 19.4411C76.0493 19.4218 75.8012 19.4411 75.6104 19.3059C75.4006 19.074 75.267 18.7648 75.1335 18.4749C75.0762 18.7068 75.0381 18.958 74.9045 19.1513C74.79 19.3445 74.5992 19.4798 74.4657 19.6537C74.3321 19.9629 74.2177 20.2721 74.1032 20.5813C73.9696 20.9678 73.7788 21.3543 73.7407 21.7794C73.7216 21.992 73.6834 22.1853 73.6071 22.3785C73.5117 22.5331 73.34 22.5911 73.1874 22.6684C73.0729 22.9196 72.9966 23.1708 72.8249 23.3834C72.7104 23.5187 72.5196 23.5573 72.4433 23.7313C72.367 23.9632 72.2525 24.1757 72.1571 24.3883C72.119 24.6202 72.2716 24.8714 72.1953 25.1033C72.0617 25.6831 71.7755 26.2242 71.5084 26.7459C71.3749 27.1324 71.2795 27.5383 71.0887 27.9054C71.0124 28.06 70.8216 28.0987 70.669 28.118C70.4972 28.5432 70.3064 28.949 70.192 29.3934C70.1347 29.8186 70.1347 30.2631 70.1538 30.6882C70.1538 30.8815 70.2683 31.0361 70.3446 31.21C70.4209 31.4419 70.3637 31.6738 70.3255 31.9057C69.5815 32.0023 68.8183 32.0796 68.0933 31.8477C68.017 31.7897 68.036 31.6931 68.017 31.6158C67.9597 31.268 67.9216 30.9008 68.036 30.5723C68.2841 29.664 68.4939 28.7557 68.742 27.8475C68.6466 27.7508 68.513 27.6735 68.513 27.5189C68.4939 27.2677 68.513 26.9972 68.5703 26.7459C68.6847 26.3208 68.99 25.9923 69.1426 25.5864C69.1999 25.4125 69.1808 25.2386 69.1999 25.0647C69.1999 24.6589 69.4288 24.3303 69.6005 23.9825C69.7722 23.6926 69.9058 23.3834 70.1347 23.1322C70.2874 22.9969 70.2874 22.7843 70.4018 22.6104C70.5163 22.3978 70.7071 22.2239 70.7071 21.9727C70.7453 21.6635 70.6308 21.3543 70.669 21.0451C70.7453 20.1368 70.917 19.2479 71.0696 18.3396C70.9933 18.243 70.8788 18.1464 70.8407 18.0111C70.8597 17.9145 70.8788 17.8372 70.8979 17.7405C70.8407 17.6439 70.7834 17.5473 70.7262 17.4507C70.8025 17.3347 70.8788 17.1994 70.9551 17.0835C70.8788 17.0255 70.7834 16.9482 70.7071 16.8902C70.8025 16.6004 70.7644 16.1752 71.1078 16.04C71.1459 16.0593 71.2413 16.0786 71.2795 16.0979C71.2223 15.5955 71.2222 15.0737 71.165 14.5713C71.0315 14.0302 71.0124 13.4697 71.0696 12.9286C71.2604 12.6388 71.6229 12.5228 71.9473 12.5035C71.5275 12.4069 71.1078 12.3682 70.7071 12.233C70.688 11.8851 70.7453 11.5373 70.8025 11.1894C70.9742 10.513 70.8979 9.81734 70.9933 9.12164C71.0887 8.9284 71.3367 8.88975 71.5466 8.9284C71.7946 8.96705 72.0426 8.88975 72.2907 8.81245C72.2907 8.71582 72.3098 8.59987 72.2907 8.50325C72.138 7.82688 72.1762 7.13118 72.2907 6.47414C72.4433 5.62384 72.7867 4.79287 73.4163 4.1938C73.8361 3.78798 74.4466 3.59473 75.019 3.61405C75.2098 3.61405 75.3242 3.8073 75.4769 3.92325C75.5532 3.84595 75.6295 3.76865 75.6868 3.69135C75.5914 3.36283 75.4387 3.01498 75.4578 2.66713C75.496 1.89414 75.744 1.10182 76.3164 0.580047ZM82.269 6.04899C82.3072 6.08764 82.3072 6.08764 82.269 6.04899V6.04899ZM82.5361 6.08764C82.5552 6.22291 82.5934 6.35819 82.5171 6.47414C82.4217 6.51279 82.3072 6.51279 82.2118 6.57076C82.4789 6.57076 82.746 6.59009 83.0131 6.57076C83.223 6.51279 83.1467 6.24224 83.1467 6.08764C83.0131 5.93304 82.7269 6.02966 82.5361 6.08764ZM81.8684 6.89928C82.0592 7.11186 82.1546 7.44038 82.3263 7.65295C82.5743 7.32443 82.7651 6.97658 83.0513 6.68671C82.7079 6.66739 82.3644 6.70604 82.021 6.66739C81.9638 6.74469 81.9256 6.82198 81.8684 6.89928Z" fill="white"/>
<path d="M135.939 17.0255C136.339 16.8516 136.854 17.0835 136.969 17.5086C137.083 17.8951 136.873 18.3396 136.492 18.4556C136.129 18.5908 135.671 18.4169 135.538 18.0304C135.385 17.6826 135.557 17.1801 135.939 17.0255ZM135.824 17.2574C135.519 17.528 135.557 18.0691 135.9 18.2816C136.11 18.4362 136.396 18.3976 136.625 18.301C136.492 18.1464 136.377 17.9724 136.282 17.7985C136.244 17.7985 136.148 17.7985 136.11 17.7792C136.091 17.9338 136.167 18.127 136.015 18.2237C135.958 17.9145 135.996 17.6053 135.977 17.2961C136.167 17.2961 136.415 17.2188 136.568 17.3734C136.683 17.528 136.568 17.7405 136.396 17.7985C136.473 17.8951 136.53 18.0111 136.606 18.1077L136.644 18.0111C136.644 18.0691 136.625 18.185 136.606 18.2623C136.931 18.0691 136.969 17.5666 136.721 17.2961C136.492 17.0448 136.053 17.0255 135.824 17.2574ZM136.091 17.3927C136.091 17.4893 136.091 17.6053 136.091 17.7019C136.225 17.6826 136.492 17.7405 136.492 17.528C136.454 17.354 136.206 17.412 136.091 17.3927Z" fill="white"/>
<path d="M0 18.8807C0.0190791 17.9145 0.877638 17.0835 1.81251 17.0642C3.43424 17.0642 5.07504 17.0642 6.71584 17.0642C7.65072 17.0642 8.4902 17.8951 8.54743 18.8421C6.3915 18.8421 4.25464 18.8421 2.0987 18.8421C2.0987 20.2914 2.0987 21.7601 2.0987 23.2095C4.25464 23.2095 6.3915 23.2095 8.54743 23.2095C8.50928 23.8279 8.16585 24.427 7.63164 24.7361C7.30729 24.9294 6.94479 25.0067 6.58229 25.0067C4.97964 25.0067 3.377 25.0067 1.79343 25.0067C0.858559 24.9874 0.0190791 24.1371 0.0190791 23.1902C0 21.7601 0 20.3301 0 18.8807Z" fill="white"/>
<path d="M10.9514 17.1415C11.1613 17.0835 11.3902 17.0642 11.6192 17.0642C13.279 17.0642 14.9198 17.0642 16.5797 17.0642C17.5146 17.1028 18.3159 17.9145 18.3541 18.8614C18.3541 20.2914 18.3541 21.7408 18.3541 23.1708C18.335 24.1371 17.4764 25.0067 16.5225 25.0067C14.8054 25.0067 13.0883 25.0067 11.3711 25.0067C10.4363 24.9874 9.59678 24.1371 9.59678 23.1902C9.59678 21.7794 9.59678 20.3687 9.59678 18.9387C9.55863 18.127 10.1501 17.354 10.9514 17.1415ZM11.4856 18.8034C11.4856 20.3108 11.4856 21.8181 11.4856 23.3254C13.1264 23.3254 14.7863 23.3254 16.4271 23.3254C16.4271 21.8181 16.4271 20.3108 16.4271 18.8034C14.7672 18.8034 13.1264 18.8034 11.4856 18.8034Z" fill="white"/>
<path d="M19.785 22.9003C19.785 20.9485 19.785 18.9967 19.785 17.0642C20.3574 17.0835 20.9488 17.3347 21.2923 17.8178C21.5403 18.1464 21.6738 18.5522 21.6929 18.958C21.6929 20.4074 21.6929 21.8761 21.6929 23.3254C23.3337 23.3061 24.9745 23.3254 26.6344 23.3254C26.6344 21.2383 26.6344 19.1706 26.6344 17.0835C27.264 17.0835 27.9127 17.0835 28.5423 17.0835C28.5423 19.1319 28.5423 21.161 28.5423 23.2095C28.5232 24.1757 27.7028 25.0067 26.7489 25.0453C25.0508 25.0647 23.3528 25.0453 21.6548 25.0453C20.9107 25.0453 20.1857 24.5622 19.8995 23.8472C19.8041 23.538 19.785 23.2288 19.785 22.9003Z" fill="white"/>
<path d="M30.164 17.0642C31.1943 16.9869 32.2818 17.2767 33.0831 17.9724C34.6095 19.4411 36.1549 20.8905 37.6812 22.3399C37.6812 21.2383 37.6812 20.1175 37.6812 19.016C37.6621 18.3203 38.0437 17.6439 38.6542 17.2961C38.9404 17.1221 39.2648 17.0642 39.5891 17.0448C39.6082 19.6924 39.5891 22.3592 39.5891 25.0067C38.9786 25.0067 38.3681 25.0067 37.7384 25.0067C35.8496 23.1902 33.9608 21.3736 32.072 19.5571C32.072 21.3736 32.072 23.1902 32.072 25.0067C31.4423 25.0067 30.7937 25.0067 30.164 25.0067C30.164 22.3785 30.164 19.731 30.164 17.0642Z" fill="white"/>
<path d="M40.1806 18.8034C40.1806 17.9145 40.9056 17.0448 41.8214 17.0835C44.2444 17.0835 46.6675 17.0835 49.0905 17.0835C49.0905 17.528 48.8997 17.9724 48.6135 18.301C48.2892 18.6488 47.8122 18.8034 47.3543 18.8034C46.7629 18.8034 46.1523 18.8034 45.5609 18.8034C45.5609 20.8712 45.5609 22.9583 45.5609 25.026C44.9122 25.026 44.2826 25.026 43.6339 25.026C43.6339 22.9583 43.6339 20.8712 43.6339 18.8034C42.4891 18.8034 41.3444 18.8034 40.1806 18.8034Z" fill="white"/>
<path d="M49.7583 17.0835C52.2958 17.0835 54.8333 17.0835 57.3899 17.0835C57.3708 17.6439 57.1037 18.2237 56.6458 18.5329C56.3596 18.7261 55.9971 18.8227 55.6537 18.8227C54.3373 18.8227 53.0017 18.8227 51.6853 18.8227C51.6853 19.2865 51.6853 19.731 51.6853 20.1948C53.2879 20.1948 54.8906 20.1948 56.5123 20.1948C56.5123 20.8712 56.1116 21.5475 55.482 21.8181C55.253 21.9147 54.9859 21.9534 54.7379 21.9534C53.7267 21.9534 52.7155 21.9534 51.7043 21.9534C51.7043 22.4172 51.7043 22.881 51.7043 23.3254C53.6123 23.3254 55.5202 23.3254 57.4472 23.3254C57.4472 24.1951 56.7603 25.026 55.8827 25.0453C53.8412 25.0453 51.8188 25.0453 49.7774 25.0453C49.7774 22.3785 49.7583 19.731 49.7583 17.0835Z" fill="white"/>
<path d="M58.5728 17.0835C60.4807 17.0835 62.3886 17.0835 64.3156 17.0835C64.9834 17.1028 65.7275 17.1801 66.2426 17.6632C66.7387 18.1657 66.7959 18.9387 66.7959 19.6151C66.7768 20.1948 66.7959 20.7939 66.5669 21.3156C66.2617 21.8374 65.7275 22.2046 65.136 22.3592C65.9755 23.3254 66.7959 24.311 67.6354 25.2772C66.9485 25.2772 66.2617 25.2772 65.5939 25.2772C65.384 25.2772 65.1742 25.2772 65.0025 25.1806C64.7926 25.0647 64.659 24.8521 64.5064 24.6782C63.4761 23.4027 62.4649 22.108 61.4347 20.8325C62.2932 20.8325 63.1709 20.8325 64.0294 20.8325C64.2775 20.8132 64.5446 20.8132 64.7354 20.6199C64.888 20.3687 64.8498 20.0595 64.8689 19.7697C64.8498 19.5184 64.888 19.2286 64.7163 19.016C64.5255 18.8614 64.2584 18.8421 64.0294 18.8421C62.8465 18.8421 61.6827 18.8421 60.4998 18.8421C60.4998 20.9098 60.4998 22.9969 60.4998 25.0647C59.8511 25.084 59.2215 25.0647 58.5728 25.0647C58.5537 22.3785 58.5728 19.731 58.5728 17.0835Z" fill="white"/>
<path d="M85.0164 18.2237C85.3026 17.5473 85.9895 17.0835 86.7145 17.0835C88.279 17.0835 89.8434 17.0835 91.3888 17.0835C91.7704 17.0642 92.1711 17.1221 92.5145 17.3154C93.0487 17.6053 93.3922 18.185 93.4875 18.7841C91.2553 18.8034 89.004 18.7841 86.7717 18.7841C86.7717 19.2479 86.7717 19.6924 86.7717 20.1562C88.298 20.1562 89.8053 20.1562 91.3316 20.1562C91.675 20.1562 92.0375 20.1368 92.381 20.2528C93.1441 20.504 93.6783 21.2963 93.6402 22.108C93.6211 22.6877 93.7165 23.3061 93.4875 23.8665C93.2014 24.5429 92.4954 25.026 91.7704 25.0067C90.0724 25.0067 88.3744 25.0067 86.6572 25.0067C85.7414 24.9874 84.921 24.1951 84.8638 23.2868C87.1533 23.2868 89.4237 23.2868 91.7132 23.2868C91.7132 22.823 91.7132 22.3399 91.7132 21.8761C90.0533 21.8761 88.3744 21.8761 86.7145 21.8761C85.7033 21.8954 84.7875 20.9678 84.8447 19.9436C84.8829 19.3832 84.7684 18.7648 85.0164 18.2237Z" fill="white"/>
<path d="M95.052 17.1994C95.3764 17.0448 95.7389 17.0835 96.0632 17.0835C98.2001 17.0835 100.337 17.0835 102.455 17.0835C102.455 17.7599 102.054 18.4556 101.386 18.6875C100.967 18.8421 100.528 18.8034 100.089 18.8034C99.7646 18.8034 99.4593 18.8034 99.135 18.8034C99.135 20.8712 99.135 22.9583 99.135 25.026C98.5053 25.026 97.8567 25.026 97.2271 25.026C97.2271 22.9583 97.2271 20.8712 97.2271 18.8034C96.1586 18.8227 95.0711 18.8034 94.0027 18.8034C94.0408 18.127 94.4224 17.4507 95.052 17.1994Z" fill="white"/>
<path d="M103.218 17.0835C105.126 17.0835 107.015 17.0835 108.923 17.0835C109.571 17.1028 110.296 17.1608 110.83 17.6053C111.365 18.0884 111.441 18.8614 111.441 19.5378C111.422 20.1175 111.441 20.7359 111.231 21.2963C110.926 21.8374 110.392 22.2046 109.8 22.3592C110.353 22.9776 110.907 23.6153 111.46 24.2337C111.689 24.5043 111.937 24.7362 112.147 25.0453C111.441 25.0453 110.716 25.0453 110.01 25.0453C109.724 25.0453 109.419 24.9294 109.247 24.6975C108.198 23.4027 107.148 22.1273 106.099 20.8325C106.976 20.8325 107.854 20.8325 108.732 20.8325C108.999 20.8132 109.361 20.7939 109.438 20.4847C109.533 20.0595 109.533 19.6151 109.457 19.1899C109.4 18.8807 109.037 18.8421 108.789 18.8227C107.568 18.8227 106.366 18.8227 105.145 18.8227C105.145 20.8905 105.145 22.9776 105.145 25.0453C104.496 25.0453 103.867 25.0453 103.218 25.0453C103.218 22.3785 103.218 19.731 103.218 17.0835Z" fill="white"/>
<path d="M113.578 17.0835C114.207 17.0835 114.856 17.0835 115.486 17.0835C115.505 19.731 115.486 22.3978 115.486 25.0453C114.856 25.0453 114.207 25.0453 113.578 25.0453C113.578 22.3785 113.578 19.731 113.578 17.0835Z" fill="white"/>
<path d="M117.642 17.0835C118.271 17.0835 118.92 17.0835 119.55 17.0835C119.55 18.0884 119.55 19.0933 119.55 20.1175C119.664 20.0982 119.798 20.1368 119.893 20.0402C121.133 19.0546 122.354 18.0691 123.594 17.0835C124.529 17.0835 125.445 17.0835 126.38 17.0835C124.93 18.3783 123.461 19.6537 121.992 20.9485C123.709 22.3205 125.445 23.6733 127.143 25.0453C126.208 25.0453 125.292 25.0453 124.358 25.0453C124.109 25.0453 123.881 24.9681 123.69 24.8134C122.392 23.8279 121.095 22.823 119.817 21.8374C119.721 21.8374 119.626 21.8374 119.531 21.8374C119.531 22.9003 119.531 23.9825 119.531 25.0453C118.901 25.026 118.252 25.0453 117.623 25.0453C117.642 22.3785 117.642 19.731 117.642 17.0835Z" fill="white"/>
<path d="M127.334 17.0835C129.871 17.0835 132.428 17.0835 134.965 17.0835C134.946 17.5666 134.756 18.0304 134.412 18.3589C134.069 18.6681 133.611 18.8227 133.153 18.8034C131.856 18.8034 130.558 18.8034 129.242 18.8034C129.242 19.2672 129.242 19.7117 129.242 20.1755C130.844 20.1755 132.466 20.1755 134.069 20.1755C134.05 20.8712 133.649 21.5669 132.981 21.7988C132.581 21.9727 132.142 21.9147 131.722 21.9147C130.902 21.9147 130.062 21.9147 129.242 21.9147C129.223 22.3785 129.223 22.8423 129.242 23.2868C131.15 23.2868 133.058 23.2868 134.965 23.2868C134.985 24.0018 134.508 24.7168 133.821 24.9294C133.458 25.0453 133.077 25.0067 132.714 25.0067C130.902 25.0067 129.108 25.0067 127.296 25.0067C127.353 22.3785 127.334 19.731 127.334 17.0835Z" fill="white"/>
<path d="M86.3138 28.0407C86.5046 27.8088 86.848 27.8088 87.1342 27.7895C87.4967 27.7895 87.8783 27.7702 88.2217 27.9054C88.4888 28.0407 88.4888 28.3886 88.5079 28.6591C88.3362 28.6591 88.1454 28.6591 87.9737 28.6591C87.9355 28.5045 87.9355 28.2919 87.7447 28.2726C87.4585 28.234 87.1533 28.2146 86.8671 28.2919C86.6382 28.3692 86.6572 28.6591 86.6382 28.8717C86.6572 29.2195 86.6 29.5867 86.6954 29.9345C86.7526 30.1278 86.9816 30.1471 87.1533 30.1664C87.3822 30.1664 87.6493 30.2051 87.8592 30.0891C88.0118 29.9539 87.9737 29.7026 87.9928 29.5094C87.7638 29.5094 87.5158 29.5094 87.2868 29.5094C87.2868 29.3741 87.2868 29.2388 87.2868 29.1036C87.6875 29.1036 88.1072 29.1036 88.5079 29.1036C88.4888 29.548 88.6033 30.0505 88.3171 30.4177C87.9928 30.6496 87.573 30.6109 87.2105 30.6302C86.8671 30.6109 86.4283 30.6109 86.2375 30.2824C86.0467 29.8959 86.0849 29.4321 86.1039 29.0069C86.123 28.6784 86.0849 28.3113 86.3138 28.0407Z" fill="white"/>
<path d="M89.7099 27.8088C89.8816 27.8088 90.0724 27.8088 90.2441 27.8088C90.2441 28.5818 90.2441 29.3548 90.2441 30.1278C90.6829 30.1471 91.1217 30.1278 91.5415 30.1278C91.5415 30.2824 91.5415 30.4563 91.5415 30.6109C90.9309 30.6109 90.3204 30.6109 89.7099 30.6109C89.7099 29.6833 89.7099 28.7364 89.7099 27.8088Z" fill="white"/>
<path d="M93.0678 27.8475C93.5639 27.7508 94.079 27.7315 94.556 27.8861C94.9185 28.0214 94.9376 28.4659 94.9757 28.8137C94.9757 29.3161 95.033 29.8572 94.8231 30.321C94.6132 30.6109 94.2126 30.6109 93.8882 30.6302C93.5066 30.6302 93.0487 30.6689 92.7435 30.3983C92.5336 30.1278 92.5336 29.7606 92.5145 29.4514C92.5145 29.0263 92.4954 28.6011 92.6481 28.1953C92.6862 28.0021 92.877 27.8861 93.0678 27.8475ZM93.354 28.2726C93.2586 28.2919 93.125 28.3306 93.106 28.4465C93.0296 28.8524 93.0487 29.2582 93.0487 29.664C93.0678 29.8379 93.0678 30.1085 93.2968 30.1278C93.6211 30.1664 94.0218 30.2437 94.327 30.0505C94.4797 29.664 94.4224 29.2195 94.4224 28.7944C94.4033 28.6205 94.4415 28.3499 94.2316 28.2919C93.9454 28.2146 93.6402 28.234 93.354 28.2726Z" fill="white"/>
<path d="M96.1586 27.8088C96.6738 27.8088 97.1889 27.8088 97.704 27.8088C97.933 27.8281 98.2192 27.8861 98.2955 28.1373C98.41 28.4852 98.3909 29.0263 97.9711 29.1615C98.4863 29.2775 98.5053 29.9539 98.3146 30.3404C98.181 30.5723 97.8757 30.6109 97.6277 30.6109C97.1317 30.6109 96.6356 30.6109 96.1586 30.6109C96.1586 29.6833 96.1586 28.7364 96.1586 27.8088ZM96.6928 28.2533C96.6928 28.4852 96.6928 28.7364 96.6928 28.9683C96.979 28.9683 97.2652 28.9876 97.5514 28.949C97.9139 28.949 97.8948 28.2726 97.5514 28.2533C97.2652 28.234 96.979 28.2533 96.6928 28.2533ZM96.6928 30.1664C97.0172 30.1664 97.3224 30.1858 97.6468 30.1471C97.952 30.1085 97.9139 29.6833 97.8185 29.4707C97.4751 29.2968 97.0744 29.4321 96.6928 29.3741C96.6928 29.6447 96.6928 29.8959 96.6928 30.1664Z" fill="white"/>
<path d="M100.299 27.8088C100.566 27.7895 100.833 27.8088 101.1 27.8088C101.405 28.7364 101.73 29.6833 102.035 30.6109C101.844 30.6109 101.672 30.6109 101.482 30.6109C101.424 30.437 101.367 30.2437 101.31 30.0698C100.909 30.0698 100.509 30.0698 100.127 30.0698C100.07 30.2437 100.013 30.437 99.9554 30.6109C99.7646 30.6109 99.5738 30.6109 99.383 30.6109C99.6883 29.6833 100.013 28.7557 100.299 27.8088ZM100.242 29.6833C100.547 29.6833 100.871 29.6833 101.176 29.6833C101.024 29.2195 100.871 28.7364 100.719 28.2726C100.528 28.7171 100.413 29.2002 100.242 29.6833Z" fill="white"/>
<path d="M103.103 27.8088C103.275 27.8088 103.466 27.8088 103.638 27.8088C103.638 28.5818 103.638 29.3548 103.638 30.1278C104.076 30.1278 104.496 30.1278 104.935 30.1278C104.935 30.2824 104.935 30.4563 104.935 30.6109C104.324 30.6109 103.714 30.6109 103.103 30.6109C103.103 29.6833 103.103 28.7364 103.103 27.8088Z" fill="white"/>
<path d="M108.388 27.8281C108.865 27.7508 109.38 27.7122 109.838 27.8861C110.163 28.0021 110.22 28.4079 110.239 28.7171C110.258 29.2195 110.296 29.7413 110.125 30.2244C110.029 30.5143 109.667 30.5723 109.4 30.6109C108.98 30.6302 108.541 30.6689 108.14 30.495C107.854 30.3597 107.797 29.9925 107.778 29.722C107.74 29.2195 107.74 28.6978 107.873 28.1953C107.95 27.9827 108.178 27.8668 108.388 27.8281ZM108.598 28.2726C108.446 28.2919 108.35 28.4272 108.35 28.5818C108.312 29.0263 108.293 29.5094 108.369 29.9539C108.426 30.1858 108.732 30.1664 108.923 30.1858C109.151 30.1664 109.457 30.2244 109.628 30.0312C109.762 29.6447 109.705 29.2195 109.705 28.8137C109.686 28.6398 109.705 28.3499 109.495 28.3113C109.19 28.2146 108.884 28.234 108.598 28.2726Z" fill="white"/>
<path d="M111.422 27.8088C112.032 27.8088 112.643 27.8088 113.253 27.8088C113.253 27.9634 113.253 28.118 113.253 28.2533C112.815 28.2533 112.376 28.2533 111.937 28.2533C111.937 28.5045 111.937 28.7557 111.937 29.0069C112.357 29.0069 112.777 29.0069 113.177 29.0069C113.177 29.1615 113.177 29.3161 113.177 29.4707C112.757 29.4707 112.338 29.4707 111.937 29.4707C111.937 29.8572 111.937 30.2437 111.937 30.6109C111.765 30.6109 111.594 30.6109 111.403 30.6109C111.422 29.6833 111.441 28.7364 111.422 27.8088Z" fill="white"/>
<path d="M114.417 27.8088C115.028 27.8088 115.638 27.8088 116.268 27.8088C116.268 27.9634 116.268 28.118 116.268 28.2533C115.829 28.2533 115.39 28.2533 114.952 28.2533C114.952 28.5045 114.952 28.7557 114.952 29.0069C115.371 29.0069 115.772 29.0069 116.192 29.0069C116.192 29.1615 116.192 29.3161 116.192 29.4707C115.772 29.4707 115.371 29.4707 114.952 29.4707C114.952 29.8572 114.952 30.2437 114.952 30.6302C114.78 30.6302 114.589 30.6302 114.417 30.6302C114.417 29.6833 114.417 28.7364 114.417 27.8088Z" fill="white"/>
<path d="M117.355 27.8088C117.985 27.8088 118.615 27.8088 119.244 27.8088C119.244 27.9634 119.244 28.118 119.244 28.2726C118.786 28.2726 118.329 28.2726 117.871 28.2726C117.871 28.5045 117.871 28.7557 117.871 28.9876C118.309 28.9876 118.729 28.9876 119.168 28.9876C119.168 29.1229 119.168 29.2582 119.168 29.3934C118.729 29.3934 118.29 29.3934 117.871 29.3934C117.871 29.6447 117.871 29.9152 117.871 30.1664C118.329 30.1858 118.786 30.1664 119.263 30.1664C119.263 30.321 119.263 30.4756 119.263 30.6109C118.634 30.6109 117.985 30.6109 117.355 30.6109C117.355 29.6833 117.355 28.7364 117.355 27.8088Z" fill="white"/>
<path d="M120.484 27.8088C120.79 27.8088 121.076 27.8088 121.381 27.8088C121.782 28.5625 122.144 29.3355 122.526 30.1085C122.526 29.3355 122.526 28.5818 122.526 27.8088C122.698 27.8088 122.888 27.8088 123.06 27.8088C123.06 28.7364 123.06 29.6833 123.06 30.6109C122.755 30.6109 122.469 30.6109 122.163 30.6109C121.763 29.8379 121.343 29.0649 121 28.2533C121.019 29.0456 121 29.8186 121.019 30.6109C120.847 30.6109 120.656 30.6109 120.484 30.6109C120.484 29.6833 120.484 28.7364 120.484 27.8088Z" fill="white"/>
<path d="M124.358 28.118C124.491 27.8475 124.834 27.8088 125.083 27.7895C125.445 27.7895 125.827 27.7508 126.17 27.9054C126.418 28.0407 126.418 28.3692 126.437 28.6204C126.265 28.6398 126.094 28.6398 125.903 28.6204C125.865 28.4852 125.884 28.2533 125.693 28.234C125.445 28.1953 125.178 28.1953 124.949 28.2533C124.758 28.3306 124.777 28.5818 124.796 28.7364C124.815 28.949 125.063 28.9103 125.197 28.949C125.559 28.9876 125.979 28.949 126.304 29.1615C126.533 29.4514 126.475 29.8572 126.418 30.2051C126.361 30.495 126.075 30.5916 125.827 30.6109C125.407 30.6496 124.949 30.6689 124.548 30.5336C124.243 30.3983 124.243 30.0118 124.224 29.722C124.396 29.722 124.567 29.722 124.739 29.722C124.758 29.8766 124.72 30.1085 124.911 30.1664C125.216 30.2244 125.521 30.2437 125.827 30.1471C125.998 30.0118 125.979 29.722 125.903 29.5287C125.655 29.3741 125.331 29.4514 125.044 29.3934C124.777 29.3548 124.415 29.3548 124.3 29.0456C124.243 28.7557 124.243 28.4079 124.358 28.118Z" fill="white"/>
<path d="M127.696 27.8088C127.868 27.8088 128.059 27.8088 128.231 27.8088C128.231 28.7364 128.231 29.6833 128.231 30.6109C128.059 30.6109 127.868 30.6109 127.696 30.6109C127.696 29.6833 127.696 28.7364 127.696 27.8088Z" fill="white"/>
<path d="M129.28 27.8088C129.471 27.8088 129.642 27.8088 129.833 27.8088C130.081 28.6011 130.367 29.3741 130.577 30.1664C130.787 29.3741 131.073 28.5818 131.321 27.8088C131.512 27.8088 131.703 27.8088 131.894 27.8088C131.588 28.7364 131.302 29.6833 130.997 30.6109C130.73 30.6109 130.444 30.6109 130.177 30.6109C129.871 29.6833 129.585 28.7364 129.28 27.8088Z" fill="white"/>
<path d="M132.886 27.8088C133.515 27.8088 134.145 27.8088 134.794 27.8088C134.794 27.9634 134.794 28.118 134.794 28.2533C134.336 28.2533 133.878 28.2533 133.42 28.2533C133.42 28.4852 133.42 28.7364 133.42 28.9683C133.859 28.9683 134.279 28.9683 134.717 28.9683C134.717 29.1036 134.717 29.2388 134.717 29.3741C134.279 29.3741 133.84 29.3741 133.42 29.3741C133.42 29.6253 133.42 29.8959 133.42 30.1471C133.878 30.1664 134.336 30.1471 134.813 30.1471C134.813 30.3017 134.813 30.4563 134.813 30.5916C134.183 30.5916 133.535 30.5916 132.905 30.5916C132.886 29.6833 132.886 28.7364 132.886 27.8088Z" fill="white"/>
</g>
</svg>
