<svg width="28" height="25" viewBox="0 0 28 25" fill="none" xmlns="http://www.w3.org/2000/svg">
<path d="M12.834 5.51428V7.91428H11.6673C11.0234 7.91428 10.5007 8.45188 10.5007 9.11428V10.3143H17.5004V9.11428C17.5004 8.45188 16.9778 7.91428 16.3338 7.91428H15.1672V5.51428C15.1672 2.86708 13.0743 0.714279 10.5007 0.714279H4.66762V3.11428H10.5007C11.7875 3.11428 12.834 4.19068 12.834 5.51428Z" fill="url(#paint0_linear_124_3453)"/>
<path d="M21.0003 10.3143C19.6353 10.3143 18.3171 10.7283 17.1633 11.5143H10.8367C9.68294 10.7283 8.36466 10.3143 6.99971 10.3143C3.13937 10.3143 0 13.5435 0 17.5143C0 21.4851 3.13937 24.7143 6.99971 24.7143C8.36466 24.7143 9.68294 24.3003 10.8367 23.5143H17.1633C18.3171 24.3003 19.6353 24.7143 21.0003 24.7143C24.8606 24.7143 28 21.4851 28 17.5143C28 13.5435 24.8606 10.3143 21.0003 10.3143ZM10.5007 18.7143H8.16747V21.1143H5.83424V18.7143H3.501V16.3143H5.83424V13.9143H8.16747V16.3143H10.5007V18.7143ZM20.9991 13.9143C21.6443 13.9143 22.1658 14.4507 22.1658 15.1143C22.1658 15.7779 21.6443 16.3143 20.9991 16.3143C20.3552 16.3143 19.8325 15.7779 19.8325 15.1143C19.8325 14.4507 20.3552 13.9143 20.9991 13.9143ZM18.667 18.7143C18.0231 18.7143 17.5004 18.1767 17.5004 17.5143C17.5004 16.8507 18.0219 16.3143 18.667 16.3143C19.311 16.3143 19.8337 16.8507 19.8337 17.5143C19.8337 18.1767 19.3122 18.7143 18.667 18.7143ZM20.9991 21.1143C20.3552 21.1143 19.8325 20.5779 19.8325 19.9143C19.8325 19.2507 20.3552 18.7143 20.9991 18.7143C21.6443 18.7143 22.1658 19.2507 22.1658 19.9143C22.1658 20.5779 21.6443 21.1143 20.9991 21.1143ZM23.3335 18.7143C22.6884 18.7143 22.1658 18.1779 22.1658 17.5143C22.1669 16.8507 22.6895 16.3131 23.3335 16.3143C23.9775 16.3143 24.5001 16.8507 24.5001 17.5143C24.5013 18.1767 23.9787 18.7143 23.3335 18.7143Z" fill="url(#paint1_linear_124_3453)"/>
<defs>
<linearGradient id="paint0_linear_124_3453" x1="28" y1="0.464286" x2="-1.74879e-06" y2="24.9643" gradientUnits="userSpaceOnUse">
<stop stop-color="white"/>
<stop offset="1" stop-color="#929292"/>
</linearGradient>
<linearGradient id="paint1_linear_124_3453" x1="28" y1="0.464286" x2="-1.74879e-06" y2="24.9643" gradientUnits="userSpaceOnUse">
<stop stop-color="white"/>
<stop offset="1" stop-color="#929292"/>
</linearGradient>
</defs>
</svg>
