<svg width="170" height="39" viewBox="0 0 170 39" fill="none" xmlns="http://www.w3.org/2000/svg">
<path d="M76.6116 7H69.899L60.8058 23.2055L51.6736 7H45L60.8058 35.0975L76.6116 7Z" fill="url(#paint0_linear_402_10277)"/>
<path d="M76.3362 32.0572H69.6236L60.5304 15.8518L51.3982 32.0572H44.7246L60.5304 4L76.3362 32.0572Z" fill="url(#paint1_linear_402_10277)"/>
<path d="M0 11.9358V7H21V11.8957H13.4687V32H7.53131V11.9358H0Z" fill="white"/>
<path d="M23 32V7H33.1581C35.0158 7 36.5968 7.32051 37.9407 8.0016C39.2846 8.68269 40.3123 9.64423 41.0632 10.8862C41.7747 12.1282 42.17 13.6106 42.17 15.3333C42.17 17.0561 41.8142 18.5385 41.0632 19.7404C40.3123 20.9423 39.2846 21.8638 37.9012 22.4647L43 31.9599H36.4783L32.0119 23.4263H28.9289V31.9599H23V32ZM28.9289 18.6987H31.8538C33.1976 18.6987 34.2253 18.4183 34.8972 17.8974C35.6087 17.3766 35.9249 16.4952 35.9249 15.3734C35.9249 13.0897 34.5415 11.9279 31.8142 11.9279H28.9289V18.6987Z" fill="white"/>
<path d="M87.9944 32H79V7H87.9944C90.4972 7 92.6089 7.48077 94.4078 8.48237C96.2067 9.48397 97.5754 10.9263 98.5531 12.7692C99.5307 14.6122 100 16.8558 100 19.4599C100 22.0641 99.5307 24.3077 98.5531 26.1506C97.5754 28.0337 96.2067 29.4359 94.4078 30.4375C92.6089 31.4792 90.4972 32 87.9944 32ZM84.905 26.8317H87.7989C89.8715 26.8317 91.4358 26.2708 92.5307 25.1891C93.6257 24.1074 94.1732 22.1843 94.1732 19.5C94.1732 16.8157 93.6257 14.9327 92.5307 13.8109C91.4358 12.7292 89.8324 12.1683 87.7207 12.1683H84.905V26.8317Z" fill="white"/>
<path d="M103 32V7H120V11.8878H108.901V17.016H119.14V21.9439H108.901V27.0721H120V31.9599H103V32Z" fill="white"/>
<path d="M137.944 15.2683C137.676 14.2933 137.178 13.5133 136.411 12.9672C135.645 12.4212 134.686 12.1482 133.537 12.1482C131.812 12.1482 130.432 12.7722 129.397 14.0593C128.401 15.3463 127.864 17.1404 127.864 19.4415C127.864 21.7816 128.362 23.5757 129.359 24.8627C130.355 26.1498 131.735 26.8128 133.537 26.8128C135.108 26.8128 136.296 26.4228 137.139 25.6817C137.983 24.9407 138.443 23.8877 138.443 22.6396H133.69V18.3495H144V21.5476C144 23.7317 143.54 25.6037 142.659 27.1638C141.739 28.7239 140.512 29.8939 138.941 30.752C137.369 31.571 135.53 32 133.498 32C131.237 32 129.206 31.493 127.481 30.4789C125.756 29.4649 124.415 28.0218 123.456 26.1888C122.498 24.3167 122 22.1326 122 19.5585C122 16.9064 122.498 14.6443 123.533 12.7722C124.568 10.9002 125.909 9.4961 127.634 8.48206C129.359 7.50702 131.275 7 133.422 7C135.261 7 136.948 7.35101 138.443 8.05304C139.937 8.75507 141.164 9.73011 142.084 10.9782C143.042 12.2262 143.578 13.6693 143.77 15.2683H137.944Z" fill="white"/>
<path d="M170 19.5195C170 22.2106 169.497 24.4727 168.454 26.3058C167.449 28.1778 166.057 29.5819 164.318 30.5569C162.578 31.532 160.645 32 158.481 32C156.316 32 154.383 31.532 152.644 30.5569C150.904 29.5819 149.513 28.1778 148.508 26.3058C147.503 24.4337 147 22.1716 147 19.5195C147 16.8284 147.503 14.5663 148.508 12.6942C149.513 10.8222 150.904 9.4181 152.644 8.44306C154.383 7.46802 156.316 7 158.481 7C160.645 7 162.578 7.46802 164.318 8.44306C166.057 9.4181 167.449 10.8222 168.454 12.6942C169.497 14.5663 170 16.8284 170 19.5195ZM164.047 19.5195C164.047 17.1404 163.545 15.3073 162.578 14.0593C161.612 12.8112 160.22 12.1872 158.481 12.1872C156.741 12.1872 155.388 12.8112 154.422 14.0593C153.455 15.3073 152.953 17.1404 152.953 19.5195C152.953 21.8986 153.455 23.7317 154.422 24.9797C155.388 26.2278 156.78 26.8518 158.481 26.8518C160.22 26.8518 161.573 26.2278 162.578 24.9797C163.545 23.7317 164.047 21.8986 164.047 19.5195Z" fill="white"/>
<defs>
<linearGradient id="paint0_linear_402_10277" x1="60.8058" y1="7" x2="60.8058" y2="35.0975" gradientUnits="userSpaceOnUse">
<stop stop-color="#5F62F1"/>
<stop offset="1" stop-color="#5FD7F1"/>
</linearGradient>
<linearGradient id="paint1_linear_402_10277" x1="60.5183" y1="32.0669" x2="60.5183" y2="4" gradientUnits="userSpaceOnUse">
<stop stop-color="#40F99B"/>
<stop offset="0.1596" stop-color="#39FB8C"/>
<stop offset="0.4283" stop-color="#2FFD79"/>
<stop offset="0.7051" stop-color="#2AFF6E"/>
<stop offset="1" stop-color="#28FF6A"/>
</linearGradient>
</defs>
</svg>
