<svg width="24" height="24" viewBox="0 0 24 24" fill="none" xmlns="http://www.w3.org/2000/svg">
<path d="M13.7838 0.5842C12.7164 -0.194759 11.2826 -0.194731 10.2153 0.584271L2.22033 6.41944C0.826945 7.43641 0 9.07832 0 10.8279V19.7229C0 22.0851 1.87416 24 4.18605 24H7.37495C9.07033 24 10.4447 22.5957 10.4447 20.8634V19.1526C10.4447 18.6802 10.8195 18.2972 11.2819 18.2972H12.7171C13.1795 18.2972 13.5544 18.6802 13.5544 19.1526V20.8634C13.5544 22.5957 14.9287 24 16.6241 24H19.814C22.1258 24 24 22.0851 24 19.7229V10.828C24 9.07835 23.173 7.43638 21.7795 6.41943L13.7838 0.5842Z" fill="#5F62F1"/>
</svg>
