<svg width="24" height="24" viewBox="0 0 24 24" fill="none" xmlns="http://www.w3.org/2000/svg">
<path d="M1.19883 14.3859V21.5964C1.19883 22.922 2.27523 24 3.59883 24H10.7988V14.3859H1.19883Z" fill="#4E4C66"/>
<path d="M13.1988 14.3859V24H20.3988C21.7224 24 22.7988 22.922 22.7988 21.5964V14.3859H13.1988Z" fill="#4E4C66"/>
<path d="M21.5988 7.17522H17.862C18.4032 6.89281 18.9156 6.54911 19.344 6.12008C20.7468 4.7152 20.7468 2.4282 19.344 1.01972C17.9832 -0.339487 15.6156 -0.340717 14.2536 1.02089C12.2904 2.9882 12.0252 6.6909 12.0012 7.10671C12 7.13075 12.012 7.15119 12.012 7.17522H11.9868C11.9868 7.15119 11.9988 7.13075 11.9976 7.10671C11.9736 6.6909 11.7084 2.98823 9.74399 1.01972C8.38319 -0.339487 6.01439 -0.339515 4.65359 1.02089C3.25079 2.42697 3.25079 4.71395 4.65359 6.11883C5.08199 6.54786 5.59562 6.89156 6.13682 7.17398H2.4C1.0764 7.17398 0 8.25197 0 9.57753V13.1829H10.8V8.37575H13.2V13.1829H24V9.57753C23.9988 8.25317 22.9224 7.17522 21.5988 7.17522ZM6.35039 4.42076C5.88239 3.95207 5.88239 3.1901 6.35039 2.72021C6.57599 2.49427 6.87718 2.3693 7.19758 2.3693C7.51918 2.3693 7.82039 2.49427 8.04719 2.72021C8.75519 3.42925 9.16804 4.70074 9.38884 5.76191C8.33404 5.54078 7.05479 5.12621 6.35039 4.42076ZM14.6088 5.76433C14.8296 4.70316 15.2424 3.43045 15.9504 2.72021C16.1772 2.49307 16.4784 2.3693 16.7988 2.3693C17.1192 2.3693 17.4216 2.4943 17.646 2.71903C18.114 3.18893 18.1152 3.95203 17.646 4.41952C16.9392 5.13097 15.6684 5.5444 14.6088 5.76433Z" fill="#4E4C66"/>
</svg>
