<svg width="22" height="24" viewBox="0 0 22 24" fill="none" xmlns="http://www.w3.org/2000/svg">
<path d="M19.5556 7.2H19.4578C18.8626 3.1356 15.3022 0 11 0C6.69778 0 3.13745 3.1356 2.54222 7.2H2.44444C1.09511 7.2 0 8.2752 0 9.6V12C0 13.3248 1.09511 14.4 2.44444 14.4H4.88889V8.4C4.88889 5.0916 7.63033 2.4 11 2.4C14.3697 2.4 17.1111 5.0916 17.1111 8.4V14.4H19.5556C20.9049 14.4 22 13.3248 22 12V9.6C22 8.274 20.9061 7.2 19.5556 7.2Z" fill="#4E4C66"/>
<path d="M11 14.4C13.7001 14.4 15.8889 12.251 15.8889 9.6C15.8889 6.94903 13.7001 4.8 11 4.8C8.29994 4.8 6.11111 6.94903 6.11111 9.6C6.11111 12.251 8.29994 14.4 11 14.4Z" fill="#4E4C66"/>
<path d="M11 15.6C5.24333 15.6 1.22222 18.5604 1.22222 22.8V24H20.7778V22.8C20.7778 18.5604 16.7579 15.6 11 15.6Z" fill="#4E4C66"/>
</svg>
