<svg width="20" height="31" viewBox="0 0 20 31" fill="none" xmlns="http://www.w3.org/2000/svg">
<path d="M9.07689 1.21593C9.41874 0.395323 10.5813 0.395322 10.9231 1.21593L12.6003 5.24197C12.7555 5.61465 13.1196 5.85742 13.5234 5.85742H17.1776C18.1198 5.85742 18.5392 7.04119 17.8072 7.63435L14.42 10.3792C14.0666 10.6656 13.951 11.1545 14.1387 11.5689L15.7593 15.1454C16.1694 16.0506 15.1513 16.935 14.3123 16.4023L10.5361 14.0043C10.2089 13.7965 9.79111 13.7965 9.46393 14.0043L5.68765 16.4023C4.84874 16.935 3.83058 16.0506 4.24073 15.1454L5.86128 11.5689C6.04903 11.1545 5.93345 10.6656 5.58001 10.3792L2.19278 7.63435C1.46081 7.04119 1.88023 5.85742 2.82237 5.85742H6.47663C6.88036 5.85742 7.24448 5.61465 7.39974 5.24197L9.07689 1.21593Z" fill="#4E4C66"/>
<path d="M20 28.8C20 28.2477 19.5523 27.8 19 27.8H1C0.447715 27.8 0 28.2477 0 28.8V30C0 30.5523 0.447715 31 1 31H19C19.5523 31 20 30.5523 20 30V28.8Z" fill="#4E4C66"/>
<path d="M16.6667 21.4H12.6667C12.1144 21.4 11.6667 20.9523 11.6667 20.4V17.6C11.6667 17.0477 11.219 16.6 10.6667 16.6H9.33333C8.78105 16.6 8.33333 17.0477 8.33333 17.6V20.4C8.33333 20.9523 7.88562 21.4 7.33333 21.4H3.33333C2.41333 21.4 1.66667 22.1168 1.66667 23V25.2C1.66667 25.7523 2.11438 26.2 2.66667 26.2H17.3333C17.8856 26.2 18.3333 25.7523 18.3333 25.2V23C18.3333 22.1168 17.5883 21.4 16.6667 21.4Z" fill="#4E4C66"/>
</svg>
