<svg width="36" height="36" viewBox="0 0 36 36" fill="none" xmlns="http://www.w3.org/2000/svg">
<path fill-rule="evenodd" clip-rule="evenodd" d="M35.5 18C35.5 27.665 27.665 35.5 18 35.5C8.33502 35.5 0.5 27.665 0.5 18C0.5 8.33502 8.33502 0.5 18 0.5C27.665 0.5 35.5 8.33502 35.5 18ZM31.125 18C31.125 10.7513 25.2487 4.875 18 4.875C15.1654 4.875 12.5406 5.77361 10.3951 7.30149L28.6985 25.6049C30.2264 23.4594 31.125 20.8346 31.125 18ZM4.875 18C4.875 25.2487 10.7513 31.125 18 31.125C20.8346 31.125 23.4594 30.2264 25.6049 28.6985L7.30149 10.3951C5.7736 12.5406 4.875 15.1654 4.875 18Z" fill="#A6AAC3"/>
</svg>
