<svg width="80" height="49" viewBox="0 0 80 49" fill="none" xmlns="http://www.w3.org/2000/svg">
<path d="M7.22051 44.8795C7.22051 45.0559 7.07282 45.1995 6.89641 45.1995H0.652308C0.808205 46.7421 1.96923 48.1493 3.60205 48.1493C4.71795 48.1493 5.54667 47.7226 6.17026 46.8324C6.26051 46.7093 6.3959 46.6313 6.56821 46.7052C6.66256 46.7462 6.72821 46.8324 6.74462 46.9308C6.76103 47.0334 6.73231 47.0908 6.70359 47.1482C6.0759 48.2436 4.82462 48.7811 3.59795 48.7811C1.49744 48.7811 0 46.9021 0 44.8918C0 42.8816 1.49744 41.0026 3.59795 41.0026C5.69846 40.9985 7.21641 42.8734 7.22051 44.8795ZM6.5518 44.5759C6.41641 43.0334 5.23487 41.6262 3.60205 41.6262C1.96923 41.6262 0.808205 43.0334 0.652308 44.5759H6.5518ZM14.7979 41.1544C14.9785 41.1544 15.1097 41.3103 15.1097 41.4662C15.1097 41.6467 14.9744 41.778 14.7979 41.778H13.1241V48.3462C13.1241 48.5021 12.9887 48.658 12.8123 48.658C12.6318 48.658 12.5005 48.5021 12.5005 48.3462V41.778H10.8923C10.7118 41.778 10.5805 41.6426 10.5805 41.4662C10.5805 41.3103 10.7159 41.1544 10.8923 41.1544H12.5005V38.7503C12.5005 38.5985 12.6031 38.459 12.7508 38.4344C12.96 38.4016 13.1241 38.5452 13.1241 38.7421V41.1544H14.7979ZM25.0092 44.3298V48.3093C25.0092 48.4898 24.8533 48.6211 24.6974 48.6211C24.5169 48.6211 24.3856 48.4857 24.3856 48.3093V44.3298C24.3856 42.9882 23.6267 41.6467 22.1292 41.6467C20.2092 41.6467 19.3805 43.3247 19.4913 45.0436C19.4913 45.0888 19.5118 45.2898 19.5118 45.3103V48.297C19.5118 48.4488 19.4092 48.5882 19.2615 48.6129C19.0523 48.6457 18.8882 48.5021 18.8882 48.3052V35.2344C18.8882 35.0785 19.0236 34.9226 19.2 34.9226C19.3805 34.9226 19.5118 35.0785 19.5118 35.2344V42.6313C20.0492 41.6713 21.0092 41.0231 22.1251 41.0231C23.959 41.0231 25.0092 42.6313 25.0092 44.3298ZM36.2051 44.8795C36.2051 45.0559 36.0574 45.1995 35.881 45.1995H29.6328C29.7887 46.7421 30.9497 48.1493 32.5826 48.1493C33.6985 48.1493 34.5272 47.7226 35.1508 46.8324C35.241 46.7093 35.3764 46.6313 35.5487 46.7052C35.6431 46.7462 35.7087 46.8324 35.7251 46.9308C35.7415 47.0334 35.7128 47.0908 35.6841 47.1482C35.0564 48.2436 33.8051 48.7811 32.5785 48.7811C30.4779 48.7811 28.9805 46.9021 28.9805 44.8918C28.9805 42.8816 30.4779 41.0026 32.5785 41.0026C34.6831 40.9985 36.201 42.8734 36.2051 44.8795ZM35.5323 44.5759C35.3969 43.0334 34.2154 41.6262 32.5826 41.6262C30.9497 41.6262 29.7887 43.0334 29.6328 44.5759H35.5323ZM43.8687 41.4457C43.8687 41.6467 43.7579 41.7575 43.5774 41.7821C41.7436 42.0488 40.919 43.5462 40.919 45.2898V48.2765C40.919 48.4282 40.8164 48.5677 40.6687 48.5924C40.4595 48.6252 40.2954 48.4816 40.2954 48.2847V41.4785C40.2954 41.3267 40.3979 41.1872 40.5456 41.1626C40.7549 41.1298 40.919 41.2734 40.919 41.4703V42.857C41.4318 41.9872 42.4615 41.1585 43.5323 41.1585C43.6882 41.1544 43.8687 41.2693 43.8687 41.4457ZM54.1251 44.8795C54.1251 45.0559 53.9774 45.1995 53.801 45.1995H47.5569C47.7128 46.7421 48.8738 48.1493 50.5067 48.1493C51.6226 48.1493 52.4513 47.7226 53.0749 46.8324C53.1651 46.7093 53.3005 46.6313 53.4728 46.7052C53.5672 46.7462 53.6328 46.8324 53.6492 46.9308C53.6656 47.0334 53.6369 47.0908 53.6082 47.1482C52.9805 48.2436 51.7292 48.7811 50.5026 48.7811C48.4021 48.7811 46.9046 46.9021 46.9046 44.8918C46.9046 42.8816 48.4021 41.0026 50.5026 41.0026C52.6031 40.9985 54.121 42.8734 54.1251 44.8795ZM53.4564 44.5759C53.321 43.0334 52.1395 41.6262 50.5067 41.6262C48.8738 41.6262 47.7128 43.0334 47.5569 44.5759H53.4564ZM64.2051 41.5236V48.3462C64.2051 48.5267 64.0492 48.658 63.8933 48.658C63.7128 48.658 63.5815 48.5226 63.5815 48.3462V47.0498C63.0687 48.0795 62.1497 48.8139 60.9887 48.8139C59.1344 48.8139 58.1046 47.2057 58.1046 45.5072V41.5072C58.1046 41.3513 58.24 41.1954 58.4164 41.1954C58.5969 41.1954 58.7282 41.3513 58.7282 41.5072V45.5072C58.7282 46.8488 59.4872 48.1903 60.9846 48.1903C63.0851 48.1903 63.5774 46.2252 63.5774 44.0549V41.5072C63.5774 41.3267 63.7579 41.1421 63.9795 41.2077C64.1149 41.2529 64.2051 41.3841 64.2051 41.5236ZM80 44.3052V48.3052C80 48.4857 79.8441 48.617 79.6882 48.617C79.5077 48.617 79.3764 48.4816 79.3764 48.3052V44.3052C79.3764 42.9636 78.6174 41.6467 77.12 41.6467C75.241 41.6467 74.5272 43.657 74.5272 45.22V48.3052C74.5272 48.4857 74.3713 48.617 74.2154 48.617C74.0349 48.617 73.9036 48.4816 73.9036 48.3052V44.3052C73.9036 42.9636 73.1446 41.6467 71.6472 41.6467C69.7477 41.6467 68.9641 43.1441 69.0338 45.1339C69.0338 45.179 69.0544 45.2693 69.0338 45.2898V48.297C69.0338 48.4488 68.9313 48.5882 68.7795 48.6129C68.5703 48.6457 68.4062 48.5021 68.4062 48.3052V41.4785C68.4062 41.3267 68.5087 41.1872 68.6564 41.1626C68.8656 41.1298 69.0297 41.2734 69.0297 41.4703V42.6108C69.5672 41.6508 70.5272 41.0231 71.6431 41.0231C72.9149 41.0231 73.8995 41.8272 74.3015 43.0129C74.8144 41.8518 75.8195 41.0231 77.1159 41.0231C78.9497 41.0231 80 42.6067 80 44.3052Z" fill="white"/>
<g opacity="0.6">
<path opacity="0.6" d="M40.0043 12.5703L29.5674 17.317L40.0043 23.4831L50.4371 17.317L40.0043 12.5703Z" fill="white"/>
</g>
<g opacity="0.45">
<path opacity="0.45" d="M29.5674 17.3169L40.0043 23.4831V0L29.5674 17.3169Z" fill="white"/>
</g>
<g opacity="0.8">
<path opacity="0.8" d="M40.0044 0V23.4831L50.4372 17.3169L40.0044 0Z" fill="white"/>
</g>
<g opacity="0.45">
<path opacity="0.45" d="M29.5674 19.2944L40.0043 33.998V25.4606L29.5674 19.2944Z" fill="white"/>
</g>
<g opacity="0.8">
<path opacity="0.8" d="M40.0044 25.4606V33.998L50.4454 19.2944L40.0044 25.4606Z" fill="white"/>
</g>
</svg>
