<svg width="80" height="15" viewBox="0 0 80 15" fill="none" xmlns="http://www.w3.org/2000/svg">
<path fill-rule="evenodd" clip-rule="evenodd" d="M7.64326 0.0177535V7.26727H5.89712V14.3406C4.46233 14.0871 3.19824 13.4116 2.11031 12.3241C0.70556 10.9184 0 9.21962 0 7.22584C0 5.2216 0.70556 3.51551 2.11031 2.11031C3.39852 0.817085 4.93255 0.117897 6.72057 0.0177535L7.22584 0L7.64326 0.0177535ZM5.30945 4.79189C5.38058 4.71941 5.46576 4.6622 5.55976 4.62377C5.65376 4.58534 5.75461 4.5665 5.85615 4.56839C6.07419 4.56839 6.25581 4.64532 6.40284 4.79189C6.54942 4.94438 6.62635 5.12692 6.62635 5.33859C6.62635 5.55617 6.54942 5.73871 6.40284 5.88574C6.25581 6.03231 6.07373 6.10879 5.85615 6.10879C5.63856 6.10879 5.45694 6.03277 5.30945 5.88574C5.23692 5.81455 5.17968 5.72931 5.14125 5.63522C5.10281 5.54114 5.084 5.4402 5.08595 5.33859C5.08595 5.12692 5.16242 4.94438 5.30945 4.79189Z" fill="#8CBE4F"/>
<path fill-rule="evenodd" clip-rule="evenodd" d="M31.987 6.05002H36.7152V5.29757H30.8427C30.5809 5.30531 30.3601 5.38952 30.1735 5.55931C30.0292 5.70316 29.9445 5.86475 29.9195 6.05093L29.8936 6.2544V10.0585L29.9195 10.2788C29.9593 10.4549 30.0472 10.6165 30.1735 10.7454C30.3498 10.9259 30.5903 11.0295 30.8427 11.0335H36.7156V10.2788H31.987C31.8263 10.2788 31.6739 10.211 31.5464 10.084C31.4112 9.95791 31.3434 9.80496 31.3434 9.62607V8.59276H36.7156V7.73653H31.3434V6.70232C31.3434 6.52433 31.4135 6.37457 31.5464 6.24484C31.6752 6.11966 31.8259 6.05002 31.987 6.05002ZM16.6322 11.0331V4.81278L16.8357 4.49915C17.031 4.31343 17.2677 4.21966 17.5385 4.21966H19.1153C19.2732 4.21583 19.427 4.27028 19.5473 4.3726L22.8616 10.033L26.2178 4.44043L26.3694 4.32982L26.7595 4.22831H27.1405L27.3526 4.21966H27.9967C28.1228 4.21786 28.2478 4.24171 28.3644 4.28976C28.4809 4.3378 28.5864 4.40904 28.6745 4.49915C28.8694 4.69398 28.9709 4.9234 28.9709 5.19424V11.0331H27.3522V5.72864L27.1401 5.75368H26.8861L24.0046 10.7449C23.8554 10.8842 23.6579 10.9601 23.4539 10.9566H22.2335C22.0369 10.9561 21.8473 10.8837 21.7004 10.7531L18.768 5.73684H18.7084C18.5732 5.73684 18.4457 5.7027 18.3187 5.64307V11.0331H16.6322ZM69.5784 6.72827C69.9926 7.14341 70.1961 7.64322 70.1961 8.21131C70.1961 8.77029 69.9926 9.25326 69.5784 9.65201C69.1791 10.0672 68.6962 10.2788 68.1363 10.2788H66.5868C66.0278 10.2788 65.5439 10.0672 65.1297 9.65201C64.7305 9.25371 64.5279 8.7712 64.5279 8.21176V8.20266C64.5279 7.63548 64.7305 7.14386 65.1297 6.72827C65.5439 6.32997 66.0273 6.13469 66.5868 6.13469H68.1363C68.6962 6.13469 69.1791 6.32997 69.5784 6.72827ZM73.865 7.60134V5.29666H72.3482V11.0331H73.865V8.59276H78.4666V11.0331H80.0002V5.29666H78.4666V7.60134H73.865ZM53.2644 5.29666L53.4424 5.21108C53.6969 5.10093 53.9686 5.0504 54.2563 5.0504H55.2646V9.49861H54.2563C53.6545 9.49861 53.1292 9.27875 52.6891 8.84677C52.2562 8.41478 52.0445 7.88948 52.0445 7.26176C52.0445 6.65998 52.2562 6.14333 52.6891 5.71135C52.857 5.54273 53.0514 5.40265 53.2644 5.29666ZM63.6626 10.3808C63.2133 9.93151 62.9939 9.39756 62.9939 8.76255V7.55855C62.9939 6.93083 63.2137 6.39733 63.6626 5.94805C64.1032 5.51561 64.6208 5.30394 65.213 5.29621H69.4331C70.0518 5.30394 70.5693 5.51607 71.0013 5.94805C71.4424 6.39779 71.6627 6.93128 71.6627 7.55855V8.76255C71.6627 9.39756 71.4424 9.93196 71.0013 10.3808C70.5693 10.8132 70.0518 11.0244 69.4331 11.0335H65.213C64.6208 11.0244 64.1037 10.8128 63.6626 10.3808ZM59.248 5.21108L59.426 5.29666C59.6313 5.40298 59.8172 5.54318 59.9759 5.71135C60.4083 6.14333 60.6296 6.65998 60.6296 7.26176C60.6296 7.88902 60.4079 8.41433 59.9759 8.84677C59.5439 9.27921 59.0273 9.49861 58.4255 9.49861H57.0954V5.0504H58.4255L59.248 5.21108ZM39.5629 6.05002H44.2233V5.29666H38.3507C38.0885 5.3044 37.8678 5.38861 37.6811 5.5584C37.5373 5.70224 37.4522 5.86384 37.4271 6.05002L37.4016 6.21116V11.0335H38.8678L38.9275 6.70277L38.9361 6.60946C38.9502 6.46897 39.0165 6.33887 39.1218 6.24484L39.1478 6.21116C39.2661 6.101 39.4018 6.05002 39.5629 6.05002ZM47.9777 8.89684L46.3418 6.00768L44.6384 8.89684H47.9777ZM50.2742 6.49065C50.2722 6.09823 50.3743 5.71229 50.5701 5.37222L50.6124 5.29666L50.9434 4.8888C51.3845 4.43998 51.918 4.2192 52.5543 4.2192H60.1034C60.7393 4.2192 61.2737 4.43998 61.7225 4.8888L62.0534 5.29666L62.0953 5.37222C62.282 5.71135 62.3753 6.08416 62.3753 6.49065V8.14348C62.3753 8.77848 62.1545 9.31289 61.7225 9.76172C61.2732 10.2028 60.7388 10.4231 60.1034 10.4231H57.0959V11.0331H55.2655V10.4231H52.5548C51.9184 10.4231 51.3849 10.2028 50.9438 9.76172C50.4945 9.31243 50.2742 8.77848 50.2742 8.14348V6.49065ZM51.0458 11.0331L47.477 5.53291L47.1971 5.34719C46.477 4.97392 45.8074 5.04175 45.1719 5.54156L41.6896 11.0331H43.3843L44.19 9.65156H48.4184L49.1981 11.0331H51.0458ZM12.3415 12.324C13.7463 10.9184 14.4518 9.21957 14.4518 7.2258C14.4518 5.22155 13.7467 3.51546 12.3415 2.11026C11.2295 1.01141 9.94807 0.340898 8.49598 0.100098V8.17853H6.7207V14.4339L7.22598 14.4516L7.64339 14.4339L8.49598 14.3406C9.94853 14.0984 11.2295 13.4229 12.3415 12.324ZM13.0939 9.60067C12.9464 9.4541 12.7648 9.37762 12.5472 9.37762C12.3351 9.37762 12.153 9.4541 12.0064 9.60067C11.859 9.74725 11.7829 9.93023 11.7829 10.1474C11.7813 10.248 11.8003 10.3479 11.8387 10.4409C11.8772 10.5339 11.9342 10.618 12.0064 10.6881C12.153 10.8356 12.3351 10.9121 12.5472 10.9121C12.6488 10.914 12.7497 10.8952 12.8437 10.8567C12.9377 10.8181 13.0229 10.7608 13.0939 10.6881C13.2405 10.542 13.317 10.359 13.317 10.1474C13.317 9.93069 13.2405 9.74725 13.0939 9.60067ZM11.0419 10.6886C11.1889 10.5425 11.2654 10.3595 11.2654 10.1478C11.2654 9.93069 11.1884 9.7477 11.0419 9.60113C10.8948 9.45455 10.7128 9.37808 10.4947 9.37808C10.278 9.37808 10.096 9.45455 9.94848 9.60113C9.80099 9.7477 9.72498 9.93069 9.72498 10.1478C9.72333 10.2484 9.74232 10.3483 9.78076 10.4413C9.8192 10.5343 9.87628 10.6185 9.94848 10.6886C10.096 10.8361 10.2776 10.9126 10.4947 10.9126C10.5964 10.9147 10.6974 10.896 10.7916 10.8574C10.8857 10.8189 10.9709 10.7614 11.0419 10.6886ZM8.37212 9.37808C8.15454 9.37808 7.97246 9.45455 7.82543 9.60113C7.67885 9.7477 7.60238 9.93069 7.60192 10.1478C7.6005 10.2484 7.61958 10.3482 7.658 10.4412C7.69643 10.5342 7.7534 10.6184 7.82543 10.6886C7.97246 10.8361 8.15454 10.9126 8.37212 10.9126C8.58971 10.9126 8.77224 10.8361 8.91927 10.6886C9.0663 10.5425 9.14232 10.3595 9.14232 10.1478C9.14232 9.93114 9.0663 9.7477 8.91927 9.60113C8.77179 9.45455 8.58971 9.37808 8.37212 9.37808Z" fill="#8CBE4F"/>
</svg>
