<svg width="68" height="33" viewBox="0 0 68 33" fill="none" xmlns="http://www.w3.org/2000/svg">
<path d="M0 32.8344H32.8365V0H0V32.8344Z" fill="#FF0000"/>
<path d="M16.418 3.37231C21.0844 3.37231 26.071 11.7149 26.071 18.9394C26.071 24.614 22.7352 29.4549 16.418 29.4549C10.0961 29.4549 6.76904 24.614 6.76904 18.9394C6.76904 11.7149 11.751 3.37231 16.418 3.37231Z" fill="white"/>
<path d="M68.0001 32.8481H35.167V0.0141602H68.0001V32.8481Z" fill="#FF0000"/>
<path d="M37.5703 12.5391H41.0276L42.1569 17.1764H42.1755L43.3061 12.5391H46.7606V20.4214H44.4634V15.3623H44.4393L43.0725 20.4214H41.2597L39.8903 15.3623H39.8702V20.4214H37.5703V12.5391Z" fill="white"/>
<path d="M50.2933 14.5577H48.0859V12.5391H54.9335V14.5577H52.7207V20.4214H50.2933V14.5577Z" fill="white"/>
<path d="M60.7967 15.4731C60.7525 15.1891 60.5295 14.3149 59.5293 14.3149C58.3892 14.3149 58.0241 15.4203 58.0241 16.4826C58.0241 17.5433 58.3892 18.6456 59.5293 18.6456C60.3429 18.6456 60.6651 18.0719 60.8075 17.328H63.1934C63.1934 18.9183 61.9004 20.6114 59.5923 20.6114C57.04 20.6114 55.5967 18.8115 55.5967 16.4826C55.5967 13.9961 57.1636 12.353 59.5923 12.353C61.7581 12.3618 62.9516 13.4984 63.157 15.4731H60.7967Z" fill="white"/>
</svg>
