<svg width="80" height="15" viewBox="0 0 80 15" fill="none" xmlns="http://www.w3.org/2000/svg">
<path d="M69.5655 3.91821C68.8215 3.91821 68.008 4.17784 67.3505 4.8527C66.7448 5.47564 66.4336 6.25412 66.4336 7.15393C66.4336 7.56923 66.52 7.96705 66.6756 8.36521C66.8315 8.76338 67.0564 9.10946 67.3332 9.40346C67.6274 9.7151 67.9735 9.95712 68.337 10.1129C68.7175 10.2686 69.0634 10.3552 69.5135 10.3552C69.8421 10.3552 70.1537 10.3032 70.4652 10.1994C70.7594 10.1129 71.1747 9.87087 71.3304 9.61131V10.2342H72.6799V4.05644H71.3132V4.67966C71.123 4.36819 70.7594 4.16027 70.4652 4.05644C70.171 3.96992 69.877 3.91821 69.5655 3.91821ZM62.5054 3.93545C62.1939 3.93545 61.8995 3.97019 61.6053 4.07401C61.3112 4.17784 60.9482 4.38542 60.7577 4.69689V4.07401H59.3906V12.553V12.5706H60.7401V9.62888C60.8959 9.88844 61.3112 10.1131 61.6053 10.217C61.8995 10.3209 62.2283 10.3724 62.5571 10.3724C63.007 10.3724 63.3532 10.2862 63.7339 10.1304C64.0974 9.97487 64.4436 9.73234 64.7376 9.42069C65.0147 9.1267 65.2396 8.78062 65.3953 8.38245C65.5509 8.00176 65.6373 7.58646 65.6373 7.17117C65.6373 6.27136 65.3257 5.49288 64.7201 4.86993C64.0625 4.19508 63.2666 3.93545 62.5054 3.93545ZM73.511 4.07401L76.1411 9.87087L74.9991 12.553H76.4179L80 4.07401H78.5636L76.816 8.4345L74.947 4.07401H73.511ZM69.6176 5.11226C70.1019 5.11226 70.5346 5.26799 70.8982 5.63138C71.2614 6.01207 71.3997 6.5658 71.3997 7.10222C71.3997 7.69056 71.2789 8.24426 70.9154 8.62477C70.552 9.00529 70.1191 9.1439 69.6 9.1439C69.0809 9.1439 68.6656 8.93631 68.337 8.60754C67.9735 8.22668 67.8003 7.72507 67.8003 7.17117C67.8003 6.58283 67.9735 6.04654 68.337 5.66585C68.6485 5.33707 69.081 5.12973 69.6176 5.11226ZM62.4536 5.12949C62.9728 5.12949 63.4226 5.33701 63.7342 5.68309C64.0978 6.06378 64.2709 6.5831 64.2709 7.18874C64.2709 7.74247 64.0978 8.24426 63.7342 8.62477C63.4227 8.95372 62.9903 9.16113 62.4712 9.16113C61.9521 9.16113 61.5192 9.02287 61.1558 8.64201C60.8098 8.26149 60.6712 7.69032 60.6712 7.11946C60.6712 6.56573 60.8097 6.0293 61.1731 5.64861C61.5192 5.28523 61.9518 5.12949 62.4536 5.12949Z" fill="white"/>
<path d="M22.1696 4.74902C21.2351 4.74902 20.4738 5.0607 20.3354 5.9086C20.3008 6.13355 20.3007 6.34113 20.3526 6.618C20.5603 7.7078 22.4291 8.00205 22.6887 8.67691C22.7406 8.79786 22.7232 8.97094 22.7059 9.05746C22.654 9.2305 22.5502 9.40354 22.1868 9.40354C21.858 9.40354 21.6677 9.21316 21.6677 8.93647V8.43458H20.2661V8.83271C20.2661 10.0096 21.1832 10.3556 22.1696 10.3556C23.1213 10.3556 23.9002 10.0268 24.0213 9.16155C24.0905 8.71165 24.0386 8.41765 24.0213 8.29635C23.7963 7.20637 21.8061 6.87745 21.6677 6.25468C21.6504 6.15085 21.6504 6.0471 21.6677 5.97788C21.7023 5.80484 21.8235 5.6318 22.1523 5.6318C22.4638 5.6318 22.637 5.82201 22.637 6.09887V6.42772H23.9348V6.0644C23.9348 4.92233 22.9136 4.74902 22.1696 4.74902H22.1696ZM55.0128 4.7835C54.0782 4.7835 53.2994 5.09497 53.1783 6.0813C53.1783 6.16782 53.161 6.34086 53.161 6.42738V8.62486C53.161 8.72868 53.161 8.7979 53.1783 8.97094C53.2648 9.92266 54.0955 10.2687 55.0128 10.2687C55.947 10.2687 56.7776 9.92266 56.8642 8.97094C56.8816 8.7979 56.8814 8.72868 56.8814 8.62486V7.2233H55.03V7.98474H55.5664V8.74585C55.5664 8.79794 55.5664 8.88438 55.5491 8.93647C55.5143 9.07473 55.3933 9.31702 55.0128 9.31702C54.6321 9.31702 54.4936 9.0921 54.4936 8.91889C54.4762 8.86715 54.4761 8.79783 54.4761 8.72861V6.34086C54.4761 6.25434 54.4762 6.16775 54.4936 6.09854C54.5281 5.97741 54.6321 5.71798 55.0128 5.71798C55.4108 5.71798 55.5144 5.97741 55.5319 6.09854C55.5492 6.18506 55.5491 6.30605 55.5491 6.30605V6.60042H56.8642V6.42738C56.8642 6.42738 56.8642 6.23704 56.8469 6.0813C56.7604 5.09497 55.947 4.7835 55.0128 4.7835L55.0128 4.7835ZM39.2144 4.81831C38.2973 4.81831 37.5359 5.11241 37.3975 5.96031C37.3628 6.18526 37.3455 6.39291 37.4147 6.65247C37.6049 7.70784 39.4391 8.00205 39.6987 8.67691C39.7506 8.79786 39.7332 8.95381 39.7159 9.05746C39.6813 9.2305 39.5601 9.40354 39.214 9.40354C38.8853 9.40354 38.6949 9.21316 38.6949 8.93647V8.43458H37.3106V8.83271C37.3106 9.99225 38.2278 10.338 39.1968 10.338C40.1312 10.338 40.9098 10.0264 41.031 9.16122C41.1002 8.71131 41.0484 8.41759 41.031 8.31359C40.806 7.22361 38.8507 6.91203 38.7125 6.30639C38.6779 6.20256 38.6952 6.09881 38.7125 6.02959C38.7471 5.85655 38.8681 5.68351 39.1796 5.68351C39.491 5.68351 39.6642 5.87372 39.6642 6.15058V6.47943H40.962V6.11611C40.962 4.99135 39.9411 4.81831 39.2144 4.81831H39.2144ZM25.8727 4.9393L24.9037 10.165H26.3053L27.0319 5.40637H27.0495L27.7589 10.165H29.1605L28.1915 4.9393H25.8727ZM30.3197 4.9393L30.1987 10.165H31.5137L31.5486 5.45842H31.583L32.4482 10.165H33.7805L34.6457 5.45842H34.6805L34.715 10.165H36.03L35.909 4.9393H33.7805L33.1232 8.93647H33.1059L32.4655 4.9393H30.3197ZM42.2595 4.9393V8.69414C42.2595 8.79797 42.2767 8.98814 42.2767 9.04022C42.3632 10.0264 43.1246 10.338 44.0936 10.338C45.0628 10.338 45.8416 10.0093 45.9281 9.04022C45.9281 8.98814 45.9454 8.79797 45.9454 8.69414V4.9393H44.6131V8.78066C44.6131 8.84988 44.6128 8.93644 44.5955 8.98817C44.5782 9.12678 44.4575 9.36907 44.094 9.36907C43.7306 9.36907 43.6265 9.12681 43.609 9.02299C43.5917 8.95377 43.5918 8.88435 43.5918 8.81513V4.9393H42.2595ZM47.399 4.9393V10.1129H48.6796L48.6103 5.85621H48.6447L49.9253 10.1129H51.7943V4.9393H50.4965L50.5654 9.04022H50.5482L49.3369 4.9393H47.399Z" fill="white"/>
<path d="M14.4695 5.11199C14.2964 3.76228 13.8119 2.53369 12.964 1.63388C12.0642 0.785982 10.8356 0.301469 9.48589 0.128428C8.18809 -0.044612 7.30558 0.00730014 7.30558 0.00730014C7.30558 0.00730014 6.42308 -0.0273079 5.12527 0.128428C3.77556 0.301469 2.54697 0.785982 1.64716 1.63388C0.799263 2.53369 0.314749 3.76228 0.141709 5.11199C-0.0313316 6.4098 0.00327651 7.2923 0.00327651 7.2923C0.00327651 7.2923 -0.0313316 8.17481 0.124405 9.47261C0.297445 10.8222 0.781958 12.0509 1.62986 12.9507C2.52967 13.7986 3.75825 14.283 5.10797 14.456C6.40577 14.629 7.28828 14.5773 7.28828 14.5773C7.28828 14.5773 8.17078 14.6117 9.46859 14.456C10.8183 14.283 12.0469 13.7986 12.9467 12.9507C13.7946 12.0511 14.2791 10.8222 14.4522 9.47261C14.6252 8.17481 14.5733 7.2923 14.5733 7.2923C14.5733 7.2923 14.6425 6.4098 14.4695 5.11199Z" fill="#1E4BC6"/>
<path d="M2.70264 5.16382V8.98794H3.41204V7.89799H4.00044C4.20809 7.89799 4.39864 7.86311 4.55437 7.7939C4.71011 7.72503 4.86584 7.62082 4.98697 7.49986C5.1081 7.37891 5.21179 7.2403 5.28101 7.06726C5.35022 6.89422 5.38476 6.72125 5.38476 6.53091C5.38476 6.34056 5.35022 6.16759 5.28101 5.99455C5.21179 5.82151 5.1081 5.68308 4.98697 5.56195C4.86584 5.44082 4.72741 5.33679 4.55437 5.26758C4.38133 5.19836 4.20809 5.16382 4.00044 5.16382L2.70264 5.16382ZM3.3948 5.80427H3.94873C4.05255 5.80427 4.15624 5.82171 4.24276 5.85632C4.32928 5.89093 4.39864 5.94257 4.46785 6.01179C4.51976 6.081 4.57147 6.15035 4.60608 6.23687C4.64069 6.32339 4.65813 6.40985 4.65813 6.51367C4.65813 6.6175 4.64069 6.70395 4.60608 6.79047C4.57147 6.87699 4.53707 6.94634 4.46785 7.01556C4.39864 7.08477 4.32928 7.13675 4.24276 7.17136C4.15624 7.20597 4.05255 7.22307 3.94873 7.22307H3.3948V5.82151V5.80427ZM7.02865 5.90803C6.821 5.90803 6.64816 5.94257 6.45782 6.01179C6.28478 6.081 6.1116 6.16739 5.97317 6.30582C5.83474 6.44425 5.71361 6.60012 5.62709 6.79047C5.54057 6.98081 5.50609 7.2059 5.50609 7.44816C5.50609 7.69041 5.5578 7.91516 5.64432 8.10551C5.73084 8.29585 5.85197 8.45155 5.99041 8.59016C6.12884 8.71111 6.30201 8.81497 6.47505 8.88419C6.6654 8.95358 6.8383 8.98794 7.02865 8.98794C7.2363 8.98794 7.40954 8.95375 7.58258 8.88419C7.75562 8.79767 7.91136 8.69395 8.01518 8.55534V8.98794H8.72458V5.90803H8.01518V6.30582C7.89405 6.18469 7.75562 6.081 7.58258 6.01179C7.42684 5.94257 7.2363 5.90803 7.02865 5.90803ZM8.9669 5.92526L10.2127 8.84971L9.57254 10.3898H10.2992L12.1161 5.92526H11.3719L10.576 8.01898L9.71077 5.92526H8.9669ZM7.14998 6.56572C7.27111 6.56572 7.39217 6.58302 7.5133 6.65224C7.63442 6.70415 7.72081 6.75599 7.80733 6.84251C7.89385 6.91173 7.94569 7.01549 7.99761 7.11931C8.04952 7.22296 8.06689 7.34409 8.06689 7.46539C8.06689 7.58635 8.04952 7.7073 7.99761 7.81147C7.94569 7.9153 7.89385 8.00175 7.80733 8.08827C7.72081 8.17479 7.61712 8.22697 7.5133 8.27888C7.40947 8.3308 7.28841 8.34783 7.14998 8.34783C7.01155 8.34783 6.89015 8.31332 6.78632 8.27888C6.6825 8.2268 6.57881 8.17479 6.49229 8.08827C6.42307 8.00175 6.35392 7.89841 6.30201 7.79424C6.2501 7.69041 6.23273 7.56928 6.23273 7.44815C6.23273 7.32703 6.2501 7.2059 6.30201 7.10207C6.33662 6.99825 6.40577 6.9118 6.49229 6.82528C6.57881 6.73876 6.66519 6.68691 6.78632 6.635C6.90745 6.58309 7.02885 6.56572 7.14998 6.56572Z" fill="white"/>
</svg>
