<svg width="80" height="17" viewBox="0 0 80 17" fill="none" xmlns="http://www.w3.org/2000/svg">
<path d="M16.4524 10.3726C15.3376 14.8471 10.805 17.5699 6.33008 16.454C1.85723 15.3387 -0.866107 10.8066 0.250272 6.33217C1.36455 1.85722 5.89716 -0.866114 10.3711 0.250265C14.8455 1.3656 17.5683 5.8982 16.4524 10.3731V10.3726Z" fill="#F7931A"/>
<path d="M12.0338 7.16235C12.2004 6.05122 11.354 5.45372 10.1972 5.05486L10.5725 3.54906L9.65582 3.32107L9.29051 4.78651C9.04649 4.72645 8.80189 4.6688 8.55674 4.61355L8.92414 3.13867L8.0085 2.91016L7.63271 4.41491C7.43354 4.36984 7.23752 4.32476 7.04779 4.27759L7.04884 4.27235L5.78518 3.95735L5.54146 4.93589C5.54146 4.93589 6.22125 5.09207 6.2071 5.10151C6.57818 5.19428 6.64526 5.43957 6.63373 5.63454L6.20605 7.34947C6.23226 7.35628 6.26475 7.36519 6.30144 7.37987L6.20448 7.35628L5.60541 9.75885C5.55981 9.87154 5.44503 10.0403 5.18559 9.97636C5.1945 9.98947 4.51943 9.81022 4.51943 9.81022L4.06396 10.8585L5.25634 11.1556C5.47857 11.2112 5.69556 11.2694 5.90992 11.3244L5.53046 12.847L6.4461 13.0755L6.82137 11.5692C7.07137 11.6373 7.31404 11.6997 7.55199 11.7584L7.17725 13.2579L8.09394 13.4864L8.47288 11.9665C10.0358 12.2621 11.2109 12.1431 11.7057 10.7295C12.104 9.59166 11.6857 8.93493 10.8634 8.50725C11.4619 8.36888 11.9132 7.97527 12.0332 7.16183L12.0338 7.16235ZM9.94042 10.098C9.65739 11.2364 7.7412 10.621 7.11959 10.4669L7.62275 8.44907C8.24436 8.60421 10.236 8.91135 9.94042 10.098ZM10.2234 7.14558C9.96505 8.18072 8.37067 7.65503 7.85336 7.52609L8.30935 5.69639C8.82666 5.82532 10.4928 6.06589 10.2234 7.14558Z" fill="white"/>
<path d="M24.4761 5.05316C25.1533 5.05316 25.7382 5.17423 26.2304 5.4127C26.7076 5.64088 27.1274 5.97332 27.4589 6.38547C27.7818 6.79481 28.0218 7.27386 28.177 7.82262C28.3305 8.37294 28.4076 8.9652 28.4076 9.59834C28.4076 10.5716 28.2294 11.4904 27.8698 12.3573C27.5098 13.2253 27.0213 13.9779 26.4002 14.6199C25.7732 15.2648 25.0263 15.7812 24.2015 16.1399C23.3577 16.5141 22.4404 16.7007 21.4551 16.7007C21.3277 16.7007 21.1039 16.6976 20.7879 16.6908C20.4239 16.6796 20.0608 16.6481 19.7003 16.5964C19.291 16.5393 18.8576 16.4549 18.4 16.3417C17.9511 16.2333 17.515 16.0774 17.0991 15.8768L20.757 0.509547L24.0327 0.00219727L22.7229 5.45463C22.9952 5.3317 23.2777 5.23296 23.5673 5.15955C23.8648 5.08697 24.17 5.05106 24.4761 5.05263V5.05316ZM21.7282 14.1026C22.2214 14.1026 22.6863 13.981 23.1229 13.7426C23.562 13.5025 23.9474 13.1752 24.2555 12.7808C24.5772 12.3695 24.8305 11.909 25.0055 11.417C25.1888 10.9082 25.282 10.3713 25.2807 9.83053C25.2807 9.15441 25.1674 8.62662 24.9421 8.24506C24.7167 7.86559 24.3 7.67429 23.6947 7.67429C23.4966 7.67429 23.2413 7.71203 22.9242 7.77964C22.6051 7.85278 22.31 8.00612 22.0667 8.22514L20.6726 14.0162C20.7564 14.0308 20.8309 14.045 20.8943 14.0581C20.9567 14.0728 21.0253 14.0827 21.0935 14.0895C21.1658 14.0979 21.2486 14.1021 21.3487 14.1021H21.7282V14.1026ZM31.8055 16.4067H28.6764L31.318 5.28901H34.4685L31.8049 16.4067H31.8055ZM33.327 3.93468C32.9001 3.93824 32.484 3.801 32.143 3.54421C31.7887 3.28529 31.6136 2.88696 31.6136 2.34921C31.6136 2.05413 31.6734 1.77687 31.7923 1.51586C31.9129 1.25432 32.0712 1.02948 32.2693 0.838695C32.4664 0.648963 32.6954 0.498016 32.9559 0.383758C33.22 0.270819 33.5046 0.213375 33.7919 0.214991C34.2279 0.214991 34.6221 0.344973 34.9748 0.605461C35.326 0.867522 35.5026 1.26585 35.5026 1.79993C35.5026 2.09659 35.4429 2.3749 35.3228 2.63538C35.2088 2.88909 35.0476 3.11887 34.848 3.31255C34.652 3.50228 34.4208 3.65323 34.1614 3.76591C33.8993 3.88017 33.6226 3.93416 33.327 3.93416V3.93468ZM37.2102 2.5185L40.4875 2.01116L39.6825 5.28849H43.192L42.5583 7.86664H39.0703L38.141 11.7556C38.0601 12.0524 38.0106 12.3568 37.9932 12.6639C37.9775 12.9464 38.0137 13.1891 38.0981 13.3935C38.1819 13.5984 38.3334 13.7562 38.5525 13.8678C38.7705 13.9816 39.0829 14.0387 39.4927 14.0387C39.8232 14.0393 40.1529 14.0072 40.477 13.9428C40.7931 13.8799 41.1133 13.7929 41.4378 13.6791L41.671 16.0901C41.248 16.2447 40.7905 16.3784 40.2973 16.4905C39.803 16.6043 39.2176 16.6588 38.542 16.6588C37.5703 16.6588 36.8166 16.5146 36.2799 16.2274C35.7437 15.9376 35.3648 15.5424 35.1373 15.0419C34.914 14.5429 34.8139 13.9679 34.8422 13.3201C34.871 12.6707 34.969 11.9883 35.1378 11.2692L37.2102 2.5185ZM43.0541 11.9674C43.0541 11.0093 43.2093 10.1067 43.519 9.26081C43.8137 8.44045 44.2665 7.68594 44.8519 7.0401C45.4284 6.40801 46.1302 5.90747 46.9562 5.54007C47.7781 5.17423 48.6989 4.98974 49.7131 4.98974C50.3484 4.98974 50.9155 5.05001 51.4144 5.17056C51.916 5.29216 52.3694 5.44834 52.7792 5.64541L51.7001 8.09883C51.4126 7.98341 51.12 7.88127 50.8232 7.79274C50.5203 7.69945 50.1508 7.65437 49.7136 7.65437C48.6696 7.65437 47.8436 8.01444 47.2293 8.73197C46.6171 9.45001 46.3089 10.4165 46.3089 11.6288C46.3089 12.3474 46.4641 12.9286 46.7754 13.3731C47.0846 13.8175 47.6565 14.0387 48.4867 14.0387C48.8965 14.0387 49.2922 13.9957 49.6712 13.9124C50.0184 13.8378 50.358 13.7317 50.6859 13.5953L50.9196 16.1105C50.5239 16.2636 50.0879 16.4025 49.6093 16.5236C49.1292 16.641 48.5579 16.7018 47.896 16.7018C47.0217 16.7018 46.2817 16.5739 45.6769 16.3218C45.071 16.066 44.571 15.7269 44.1768 15.2966C43.78 14.864 43.4869 14.3467 43.3199 13.784C43.1417 13.195 43.0522 12.5827 43.0541 11.9674ZM56.9528 16.7018C56.2059 16.7018 55.5576 16.588 55.0073 16.3627C54.4585 16.1373 54.0041 15.8212 53.6446 15.4114C53.285 15.0041 53.0156 14.5204 52.8311 13.9643C52.6466 13.4077 52.5581 12.7913 52.5581 12.1162C52.5581 11.2692 52.6938 10.4223 52.9684 9.5779C53.2327 8.74988 53.6451 7.97668 54.1854 7.29587C54.7229 6.61663 55.3908 6.05173 56.1499 5.63441C56.9229 5.20568 57.8129 4.98974 58.8119 4.98974C59.5451 4.98974 60.1903 5.104 60.748 5.32937C61.3035 5.55422 61.7606 5.87288 62.1217 6.28065C62.4797 6.69051 62.7512 7.17166 62.9341 7.7288C63.1175 8.28437 63.2087 8.90231 63.2087 9.5779C63.2087 10.4223 63.0745 11.2687 62.8083 12.1157C62.5513 12.9404 62.1504 13.7131 61.6243 14.3982C61.1033 15.0744 60.4518 15.6268 59.6693 16.0566C58.8884 16.4863 57.9817 16.7018 56.9528 16.7018ZM58.5168 7.6549C58.0529 7.6549 57.6426 7.7896 57.2919 8.05533C56.9323 8.33215 56.6308 8.67713 56.4046 9.07055C56.1604 9.48965 55.9784 9.94196 55.8642 10.4133C55.749 10.8657 55.689 11.3303 55.6855 11.797C55.6855 12.5025 55.7992 13.0523 56.023 13.448C56.25 13.8411 56.6572 14.0387 57.2495 14.0387C57.7149 14.0387 58.1227 13.905 58.4759 13.6362C58.8349 13.3593 59.1362 13.0147 59.3627 12.622C59.6068 12.203 59.789 11.7509 59.9036 11.2797C60.0221 10.7944 60.0818 10.3316 60.0818 9.89552C60.0818 9.19162 59.9686 8.64077 59.7432 8.24611C59.5179 7.85301 59.1085 7.6549 58.5168 7.6549ZM66.6176 16.4067H63.4865L66.1286 5.28901H69.2807L66.6181 16.4067H66.6176ZM68.1376 3.93468C67.7112 3.93816 67.2956 3.80092 66.9551 3.54421C66.6029 3.28529 66.4258 2.88696 66.4258 2.34921C66.4258 2.05413 66.4866 1.77687 66.6061 1.51586C66.7251 1.25432 66.8839 1.02948 67.082 0.838695C67.2785 0.648963 67.5097 0.498016 67.7686 0.383758C68.032 0.270879 68.3159 0.213602 68.6025 0.215515C69.0401 0.215515 69.4353 0.345497 69.787 0.605985C70.1392 0.868046 70.3169 1.26638 70.3169 1.80046C70.3169 2.09711 70.254 2.37542 70.1355 2.63591C70.0217 2.88965 69.8608 3.11945 69.6612 3.31307C69.4631 3.50281 69.2345 3.65375 68.9746 3.76644C68.7125 3.8807 68.4347 3.93468 68.1381 3.93468H68.1376ZM71.5354 5.79427C71.7729 5.72508 72.0381 5.64122 72.3269 5.55055C72.6157 5.45988 72.939 5.37497 73.3007 5.29897C73.6576 5.22035 74.0607 5.15693 74.5046 5.10714C74.948 5.05683 75.4533 5.03272 76.0146 5.03272C77.6645 5.03272 78.8024 5.51281 79.4303 6.47091C80.0577 7.42952 80.1662 8.74035 79.7589 10.4029L78.3197 16.4056H75.1708L76.5654 10.5292C76.6503 10.1623 76.7174 9.80746 76.7667 9.46049C76.8165 9.1172 76.8139 8.81425 76.7557 8.55219C76.7044 8.30133 76.5664 8.07658 76.3657 7.91748C76.1592 7.75605 75.8469 7.67481 75.4239 7.67481C75.0161 7.67481 74.601 7.71832 74.1775 7.80322L72.1266 16.4056H68.9762L71.5354 5.79427Z" fill="white"/>
</svg>
