<svg width="78" height="24" viewBox="0 0 78 24" fill="none" xmlns="http://www.w3.org/2000/svg">
<path d="M50.2552 3.43911V17.8818C50.2564 17.9346 50.2471 17.9872 50.2279 18.0363C50.2087 18.0854 50.1799 18.1299 50.1433 18.1673C50.1068 18.2047 50.0632 18.2341 50.0152 18.2538C49.9672 18.2735 49.9158 18.283 49.8641 18.2818H46.9832C46.9315 18.283 46.8801 18.2735 46.8321 18.2538C46.7841 18.2341 46.7405 18.2047 46.7039 18.1673C46.6674 18.1299 46.6386 18.0854 46.6194 18.0363C46.6001 17.9872 46.5908 17.9346 46.592 17.8818V3.43911C46.5908 3.38625 46.6001 3.33369 46.6194 3.28461C46.6386 3.23553 46.6674 3.19095 46.7039 3.15356C46.7405 3.11617 46.7841 3.08675 46.8321 3.06708C46.8801 3.04741 46.9315 3.0379 46.9832 3.03911H49.8641C49.9158 3.0379 49.9672 3.04741 50.0152 3.06708C50.0632 3.08675 50.1068 3.11617 50.1433 3.15356C50.1799 3.19095 50.2087 3.23553 50.2279 3.28461C50.2471 3.33369 50.2564 3.38625 50.2552 3.43911ZM72.7424 3.03911C72.8545 3.03911 72.9945 3.096 73.1335 3.21067C73.2179 3.296 73.2179 3.43911 73.19 3.55378L68.435 18.0249C68.4061 18.0998 68.3562 18.1642 68.2915 18.2101C68.2268 18.256 68.1503 18.2812 68.0716 18.2827H65.4985C65.3307 18.2827 65.1907 18.1964 65.1351 18.0249L62.3646 9.58844L59.5959 18.024C59.567 18.0989 59.5171 18.1633 59.4524 18.2092C59.3878 18.2551 59.3112 18.2804 59.2325 18.2818H56.6594C56.4916 18.2818 56.3517 18.1964 56.296 18.024L51.5409 3.55289C51.5131 3.43911 51.5131 3.32444 51.5966 3.21067C51.6531 3.096 51.793 3.03911 51.9043 3.03911H55.1207C55.2885 3.03911 55.4285 3.15289 55.485 3.32445L58.0294 11.8756L60.8268 3.32445C60.8557 3.24956 60.9056 3.1851 60.9703 3.13922C61.035 3.09334 61.1115 3.06809 61.1902 3.06667H63.4556C63.6234 3.06667 63.7633 3.15289 63.819 3.32445L66.6164 11.8756L69.1617 3.32445C69.1845 3.24344 69.2321 3.17203 69.2975 3.12069C69.3629 3.06934 69.4426 3.04075 69.5251 3.03911H72.7424ZM77.6087 3.03911C77.8043 3.03911 77.9721 3.21067 77.9999 3.43911V17.8818C78.0011 17.9346 77.9918 17.9872 77.9725 18.0363C77.9533 18.0854 77.9245 18.1299 77.888 18.1673C77.8514 18.2047 77.8078 18.2341 77.7598 18.2538C77.7118 18.2735 77.6604 18.283 77.6087 18.2818H74.7278C74.6761 18.283 74.6247 18.2735 74.5767 18.2538C74.5287 18.2341 74.4851 18.2047 74.4486 18.1673C74.412 18.1299 74.3832 18.0854 74.364 18.0363C74.3448 17.9872 74.3355 17.9346 74.3367 17.8818V3.43911C74.3355 3.38625 74.3448 3.33369 74.364 3.28461C74.3832 3.23553 74.412 3.19095 74.4486 3.15356C74.4851 3.11617 74.5287 3.08675 74.5767 3.06708C74.6247 3.04741 74.6761 3.0379 74.7278 3.03911H77.6087ZM44.9134 17.768C45.0812 17.968 44.9412 18.2533 44.6891 18.2533H41.165C41.0956 18.2552 41.0267 18.2408 40.9636 18.211C40.9006 18.1813 40.8452 18.137 40.8016 18.0818L40.2148 17.3387C38.9839 18.1387 37.5287 18.6258 35.9909 18.6258C31.6843 18.6258 28.188 15.0507 28.188 10.6462C28.188 6.24178 31.6843 2.66667 35.9909 2.66667C40.2983 2.66667 43.7946 6.24178 43.7946 10.6462C43.7946 12.2196 43.3469 13.7067 42.5637 14.9644L44.9134 17.768ZM37.9207 14.5644L36.3821 12.648C36.2151 12.448 36.3551 12.1333 36.6063 12.1333H39.8506C40.0183 11.6756 40.1027 11.1609 40.1027 10.6462C40.1027 8.27289 38.3684 6.21333 35.9909 6.21333C33.6142 6.21333 31.8791 8.27289 31.8791 10.6462C31.8791 13.0196 33.6142 15.0507 35.9909 15.0507C36.662 15.0791 37.3339 14.8791 37.9207 14.5644Z" fill="#FF8C00"/>
<path d="M18.6626 15.1103C19.0706 15.2656 19.2276 15.8702 19.2588 16.134C19.3217 16.6152 19.1808 16.8014 19.0238 16.8014C18.8669 16.8014 18.647 16.6152 18.4121 16.243C18.1766 15.8702 18.0826 15.4517 18.2083 15.2342C18.2863 15.0944 18.4584 15.0327 18.6626 15.1103ZM16.279 16.8636C16.53 16.8636 16.8123 16.972 17.0633 17.189C17.5493 17.5926 17.6906 18.0579 17.4396 18.3993C17.2982 18.57 17.0633 18.6785 16.7967 18.6785C16.53 18.6785 16.2478 18.5854 16.0596 18.4147C15.6204 18.0425 15.4952 17.4214 15.7769 17.0805C15.8871 16.9407 16.0596 16.8636 16.279 16.8636ZM10.7903 21.3469C4.83017 21.3469 0 16.5685 0 10.6732C0 4.778 4.83066 0 10.7898 0C16.7494 0 21.58 4.77848 21.58 10.6732C21.58 12.6743 21.0156 14.5519 20.0592 16.1499C20.0275 16.1962 19.949 16.1808 19.9334 16.1186C19.5571 13.4969 17.9417 12.0537 15.5892 11.6198C15.385 11.5884 15.3538 11.4645 15.6204 11.4336C16.3419 11.3714 17.3611 11.3869 17.8944 11.4799C17.9256 11.2162 17.9417 10.937 17.9417 10.6578C17.9417 6.76365 14.742 3.59857 10.8054 3.59857C6.86919 3.59857 3.66955 6.76365 3.66955 10.6578C3.66955 14.5519 6.86919 17.717 10.8059 17.717H11.1349C11.0231 17.0872 10.9757 16.4478 10.9935 15.8085C11.0096 15.3741 11.1037 15.3119 11.2919 15.6533C12.2799 17.3443 13.6916 18.8646 16.4515 19.4698C18.7099 19.9664 20.9683 20.5402 23.3992 23.5963C23.6186 23.8601 23.2895 24.1393 23.0385 23.9223C20.5608 21.75 18.3024 21.0364 16.2478 21.0364C13.9421 21.0523 12.3745 21.3469 10.7903 21.3469Z" fill="#FF8C00"/>
</svg>
