<svg width="80" height="41" viewBox="0 0 80 41" fill="none" xmlns="http://www.w3.org/2000/svg">
<path fill-rule="evenodd" clip-rule="evenodd" d="M17.0305 25.4572C17.534 25.4542 19.0305 25.3194 19.6644 27.4588C20.0914 28.8999 20.7716 31.2605 21.705 34.5406H22.0851C23.086 31.0825 23.7736 28.7219 24.1479 27.4588C24.7884 25.2971 26.3896 25.4573 27.0301 25.4573L31.9717 25.4573V40.8291H26.9351V31.7702H26.5974L23.7897 40.8291H20.0003L17.1927 31.7635H16.8549V40.8291H11.8184V25.4573L17.0305 25.4572ZM39.2041 25.4573V34.5229H39.6059L43.0212 27.0683C43.6842 25.5848 45.0971 25.4573 45.0971 25.4573H49.971V40.8292H44.8293V31.7635H44.4275L41.0792 39.2181C40.4162 40.6949 38.9363 40.8292 38.9363 40.8292H34.0624V25.4573H39.2041ZM67.7433 32.7621C67.0261 34.7945 64.7737 36.2501 62.28 36.2501H56.8879V40.8292H51.9984V32.7621H67.7433Z" fill="#0F754E"/>
<path fill-rule="evenodd" clip-rule="evenodd" d="M62.5156 25.4573H51.7417C51.9981 28.8796 54.9453 31.8093 57.9963 31.8093H68.0828C68.6649 28.965 66.6611 25.4573 62.5156 25.4573Z" fill="url(#paint0_linear_2_2194)"/>
<path d="M16.1687 1.68237H9.28613V14.0491H16.1687V1.68237Z" fill="#FF5F00"/>
<path d="M9.72298 7.86602C9.72298 5.35334 10.9028 3.12471 12.7163 1.68265C11.3835 0.633879 9.70113 0.000244141 7.86578 0.000244141C3.51775 0.000244141 0 3.518 0 7.86602C0 12.2141 3.51775 15.7318 7.86578 15.7318C9.70113 15.7318 11.3835 15.0982 12.7163 14.0494C10.9028 12.6292 9.72298 10.3787 9.72298 7.86602Z" fill="#EB001B"/>
<path d="M25.4546 7.86578C25.4546 12.2138 21.9369 15.7316 17.5888 15.7316C15.7535 15.7316 14.0711 15.0979 12.7383 14.0492C14.5736 12.6071 15.7316 10.3785 15.7316 7.86578C15.7316 5.3531 14.5518 3.12446 12.7383 1.68241C14.0711 0.633635 15.7535 0 17.5888 0C21.9369 0 25.4546 3.5396 25.4546 7.86578Z" fill="#F79E1B"/>
<path d="M55.2728 14.13H51.738L53.9489 0.459184H57.4836L55.2728 14.13Z" fill="white"/>
<path d="M68.087 0.793448C67.3897 0.516838 66.2839 0.211426 64.9165 0.211426C61.4257 0.211426 58.9675 2.07289 58.9525 4.73422C58.9235 6.69775 60.7124 7.78834 62.0504 8.44304C63.418 9.11205 63.8829 9.54871 63.8829 10.145C63.869 11.0609 62.7778 11.483 61.7601 11.483C60.3488 11.483 59.5927 11.2654 58.4435 10.7559L57.978 10.5374L57.4834 13.6062C58.3124 13.9839 59.8399 14.3191 61.4257 14.3338C65.1347 14.3338 67.5494 12.5012 67.578 9.66508C67.5921 8.10883 66.6475 6.91637 64.6109 5.94195C63.3745 5.31644 62.6174 4.89466 62.6174 4.25465C62.6319 3.67282 63.2578 3.07688 64.6534 3.07688C65.8026 3.04769 66.6469 3.32392 67.2865 3.60034L67.6062 3.7455L68.087 0.793448Z" fill="white"/>
<path d="M72.7851 9.28693C73.0762 8.50156 74.1963 5.46194 74.1963 5.46194C74.1816 5.49113 74.4869 4.66207 74.6614 4.15312L74.9085 5.33108C74.9085 5.33108 75.5778 8.60343 75.7232 9.28693C75.1708 9.28693 73.4833 9.28693 72.7851 9.28693ZM77.1484 0.459184H74.4142C73.571 0.459184 72.9304 0.70622 72.5666 1.59346L67.3161 14.1298H71.0251C71.0251 14.1298 71.6357 12.4425 71.767 12.0791C72.1739 12.0791 75.782 12.0791 76.3054 12.0791C76.4069 12.5591 76.7272 14.1298 76.7272 14.1298H80.0001L77.1484 0.459184Z" fill="white"/>
<path d="M48.7855 0.459184L45.3237 9.78139L44.9454 7.89074C44.3054 5.70917 42.2982 3.33895 40.0583 2.1604L43.2291 14.1155H46.9672L52.5233 0.459184H48.7855Z" fill="white"/>
<path d="M42.1092 0.459184H36.422L36.3638 0.735408C40.8002 1.86988 43.7383 4.60389 44.9454 7.89074L43.7091 1.60834C43.5056 0.735215 42.8801 0.487986 42.1092 0.459184Z" fill="white"/>
<defs>
<linearGradient id="paint0_linear_2_2194" x1="68.1817" y1="29.453" x2="51.7417" y2="29.453" gradientUnits="userSpaceOnUse">
<stop stop-color="#1F5CD7"/>
<stop offset="1" stop-color="#02AEFF"/>
</linearGradient>
</defs>
</svg>
