<svg width="80" height="29" viewBox="0 0 80 29" fill="none" xmlns="http://www.w3.org/2000/svg">
<path d="M0 10.2123V14.399L11.744 13.1566V8.62521L0 10.2123ZM3.74771 14.6536V29H8.0473V14.231L3.74771 14.6536ZM13.3301 8.41091V29H17.8606V7.79832L13.3301 8.41091ZM18.7047 7.68414V12.4205L25.2468 11.7283V6.80016L18.7047 7.68414ZM18.7047 15.9457V20.7683L22.9992 20.5431V15.5902L18.7047 15.9457ZM18.7047 24.2445V29H25.2468V24.0547L18.7047 24.2445ZM42.1656 4.50614V29H48.1048V3.70334L42.1656 4.50614ZM49.2139 3.55326V9.1874L57.8692 8.2722V2.38317L49.2139 3.55326ZM49.2139 13.4247V19.1632L54.887 18.8652V12.9575L49.2139 13.4247ZM49.2139 23.3576V29H57.8692V23.1063L49.2139 23.3576ZM26.9779 6.56579V29H32.1387V5.86802L26.9779 6.56579ZM33.1019 23.8268V28.9998H40.5932V23.6094L33.1019 23.8268ZM77.274 2.1062C75.3969 0.400679 72.6446 -0.298878 69.6343 0.11702V6.36598C70.8533 6.30086 71.8412 6.73594 72.2813 7.61189C72.9762 8.99294 72.2592 11.0651 70.5679 12.9849C67.9573 15.9475 61.0154 22.0113 61.0154 22.0113L70.9809 21.6962C77.0699 15.9754 79.2566 12.5028 79.6489 8.16873C79.8551 5.87582 78.9897 3.66654 77.274 2.1062ZM80 29V22.4614L59.7871 23.047L80 29ZM59.7871 23.047L59.7892 28.9998H80L59.7871 23.047ZM68.4723 0.257289C62.6003 1.45994 59.7169 5.61446 60.0496 12.3935L66.3105 11.8592C66.0253 8.02935 67.2434 7.12084 68.4754 6.62132L68.4723 0.257289Z" fill="white"/>
</svg>
