<svg width="80" height="32" viewBox="0 0 80 32" fill="none" xmlns="http://www.w3.org/2000/svg">
<path d="M37.695 15.4646V24.739H34.7505V1.83021H42.5559C44.4388 1.79015 46.2583 2.50459 47.6104 3.81328C48.9792 5.04518 49.7504 6.80791 49.7203 8.64742C49.7604 10.5003 48.9892 12.2764 47.6104 13.5116C46.2449 14.8136 44.559 15.4646 42.5559 15.4613L37.695 15.4646ZM37.695 4.65124V12.6503H42.6293C43.7244 12.6837 44.7793 12.253 45.5405 11.4651C47.0862 9.96279 47.123 7.48897 45.6173 5.94324C45.5906 5.91653 45.5672 5.88982 45.5405 5.86646C44.7893 5.06188 43.7277 4.6212 42.6293 4.65124H37.695ZM56.5041 8.55395C58.6808 8.55395 60.3968 9.13484 61.6554 10.2966C62.9141 11.4584 63.5417 13.0542 63.5417 15.0774V24.739H60.7273V22.5623H60.6005C59.3819 24.3551 57.7594 25.2498 55.7363 25.2498C54.0103 25.2498 52.5647 24.739 51.4029 23.7141C50.2745 22.7626 49.6335 21.3537 49.6602 19.8748C49.6602 18.2523 50.2745 16.9636 51.4997 16.0055C52.725 15.0473 54.3608 14.5666 56.4107 14.5666C58.1567 14.5666 59.5989 14.8871 60.7273 15.5247V14.8504C60.734 13.8421 60.2867 12.8873 59.5121 12.2463C58.7343 11.5452 57.7194 11.1613 56.6711 11.1747C55.0285 11.1747 53.7265 11.8691 52.7684 13.2545L50.1777 11.622C51.5999 9.57553 53.7098 8.55395 56.5041 8.55395ZM52.6949 19.9416C52.6916 20.7027 53.0555 21.4172 53.6698 21.8612C54.3208 22.372 55.1287 22.6457 55.9566 22.6291C57.1985 22.6257 58.3904 22.1316 59.2684 21.2536C60.2433 20.3355 60.7307 19.2605 60.7307 18.0219C59.8126 17.2908 58.5339 16.9236 56.8914 16.9236C55.6962 16.9236 54.698 17.2107 53.9001 17.7882C53.0955 18.3758 52.6949 19.0869 52.6949 19.9416ZM79.7 9.06474L69.8748 31.6497H66.8368L70.4824 23.7474L64.0191 9.06474H67.2174L71.8879 20.3255H71.9514L76.4951 9.06474H79.7Z" fill="white"/>
<path d="M25.7997 13.4617C25.7997 12.5636 25.7263 11.6689 25.5727 10.7842H13.1602V15.852H20.2678C19.974 17.4879 19.0259 18.9335 17.6404 19.8515V23.1433H21.8836C24.3675 20.8564 25.7997 17.4679 25.7997 13.4617Z" fill="#4285F4"/>
<path d="M13.1605 26.3248C16.7127 26.3248 19.704 25.1596 21.884 23.1465L17.6408 19.8548C16.459 20.656 14.94 21.1134 13.1605 21.1134C9.72856 21.1134 6.81405 18.7998 5.77244 15.6816H1.40234V19.0736C3.6358 23.5204 8.18617 26.3248 13.1605 26.3248Z" fill="#34A853"/>
<path d="M5.77226 15.6817C5.22141 14.0491 5.22141 12.2764 5.77226 10.6439V7.25195H1.40217C-0.46739 10.971 -0.46739 15.3545 1.40217 19.0736L5.77226 15.6817Z" fill="#FBBC04"/>
<path d="M13.1605 5.21219C15.0368 5.18215 16.8496 5.88991 18.2083 7.18525L21.9675 3.42944C19.5838 1.19264 16.4289 -0.0359233 13.1605 0.000800177C8.18617 0.000800177 3.6358 2.80848 1.40234 7.25202L5.77244 10.6439C6.81405 7.52577 9.72856 5.21219 13.1605 5.21219Z" fill="#EA4335"/>
</svg>
