<svg width="80" height="11" viewBox="0 0 80 11" fill="none" xmlns="http://www.w3.org/2000/svg">
<path fill-rule="evenodd" clip-rule="evenodd" d="M8.84858 10.8714H2.47871C2.15509 10.8714 1.88672 10.6028 1.88672 10.2789C1.88672 9.95493 2.15509 9.68631 2.47871 9.68631H8.84858C9.5274 9.68631 10.1668 9.41769 10.6561 8.92784C11.1376 8.4459 11.3981 7.80595 11.3981 7.13439C11.3902 5.76757 10.2615 4.63778 8.88015 4.62198L4.93352 4.59037C4.6099 4.59037 4.34152 4.32175 4.34942 3.98992C4.34942 3.666 4.61779 3.40527 4.94141 3.40527H4.94931L8.89594 3.43688C10.9166 3.46058 12.5742 5.11972 12.5821 7.12649C12.59 8.11408 12.2032 9.04635 11.5007 9.75741C10.7824 10.4764 9.84313 10.8714 8.84858 10.8714Z" fill="white"/>
<path fill-rule="evenodd" clip-rule="evenodd" d="M7.6408 7.45824C7.63291 7.45824 7.63291 7.45824 7.6408 7.45824L3.68627 7.42663C1.6656 7.40293 0.00801174 5.74379 0.000118478 3.73702C-0.00777479 2.74943 0.378995 1.81716 1.0815 1.10609C1.79189 0.395034 2.73119 0 3.72574 0H10.0956C10.4192 0 10.6876 0.268623 10.6876 0.59255C10.6876 0.916478 10.4192 1.1851 10.0956 1.1851H3.72574C3.04692 1.1851 2.40756 1.45372 1.91818 1.94357C1.43669 2.42551 1.17622 3.06546 1.17622 3.73702C1.18411 5.10384 2.31285 6.23363 3.69417 6.24943L7.6408 6.28104C7.96442 6.28104 8.23279 6.54966 8.2249 6.88149C8.2249 7.19751 7.96442 7.45824 7.6408 7.45824Z" fill="white"/>
<path fill-rule="evenodd" clip-rule="evenodd" d="M6.30682 8.89595C6.15685 8.89595 6.00687 8.84065 5.88848 8.72214C5.65957 8.49302 5.65957 8.11378 5.88848 7.88466L7.32505 6.44674C7.55395 6.21762 7.93283 6.21762 8.16174 6.44674C8.39064 6.67586 8.39064 7.05509 8.16174 7.28421L6.72516 8.72214C6.60676 8.83275 6.45679 8.89595 6.30682 8.89595Z" fill="white"/>
<path fill-rule="evenodd" clip-rule="evenodd" d="M4.8703 4.58247C4.72032 4.58247 4.57035 4.52717 4.45195 4.40866C4.22305 4.17954 4.22305 3.80031 4.45195 3.57119L5.88853 2.13327C6.11743 1.90415 6.49631 1.90415 6.72521 2.13327C6.95412 2.36238 6.95412 2.74162 6.72521 2.97074L5.28864 4.40866C5.17024 4.52717 5.02027 4.58247 4.8703 4.58247Z" fill="white"/>
<path d="M24.304 3.26892H26.3439C26.3144 1.47074 24.8398 0.229248 22.5984 0.229248C20.3913 0.229248 18.7742 1.45103 18.784 3.2837C18.7791 4.77152 19.8261 5.62381 21.5268 6.03271L22.6229 6.3086C23.7191 6.57463 24.3286 6.88993 24.3335 7.56979C24.3286 8.30878 23.6306 8.81128 22.5492 8.81128C21.4432 8.81128 20.6469 8.29892 20.5781 7.28898H18.5186C18.5726 9.47144 20.1308 10.5996 22.5738 10.5996C25.0315 10.5996 26.4766 9.42217 26.4815 7.57472C26.4766 5.89477 25.2134 5.00307 23.4635 4.60894L22.559 4.39218C21.6841 4.19019 20.9517 3.86504 20.9664 3.14083C20.9664 2.49053 21.5415 2.01266 22.5836 2.01266C23.6011 2.01266 24.2254 2.47575 24.304 3.26892Z" fill="white"/>
<path d="M28.3284 10.4567H30.4568V7.5895L31.5038 6.3086L34.2613 10.4567H36.8075L33.0275 4.88483L36.7633 0.367191H34.2122L30.5895 4.81586H30.4568V0.367191H28.3284V10.4567Z" fill="white"/>
<path d="M40.4153 0.367191H38.2869V10.4567H40.4153V0.367191Z" fill="white"/>
<path d="M51.0018 0.367191H48.8833V6.71258H48.7948L44.4496 0.367191H42.5817V10.4567H44.7101V4.10644H44.7838L49.1634 10.4567H51.0018V0.367191Z" fill="white"/>
<path d="M53.1753 10.457H55.3037V7.18576H57.0929C59.408 7.18576 60.7549 5.80141 60.7549 3.78645C60.7549 1.78135 59.4326 0.367432 57.1469 0.367432H53.1753V10.457ZM55.3037 5.47626V2.11143H56.739C57.9678 2.11143 58.5626 2.78144 58.5626 3.78645C58.5626 4.78654 57.9678 5.47626 56.7488 5.47626H55.3037Z" fill="#997FF8"/>
<path d="M63.1252 10.457L63.8724 8.15629H67.5049L68.252 10.457H70.5328L67.0625 0.367432H64.3197L60.8445 10.457H63.1252ZM64.4131 6.49112L65.6518 2.67305H65.7304L66.9691 6.49112H64.4131Z" fill="#997FF8"/>
<path d="M70.5425 0.367432L74.2143 6.89017V10.457H76.328V6.89017L79.9998 0.367432H77.6158L75.3203 4.71264H75.222L72.9265 0.367432H70.5425Z" fill="#997FF8"/>
</svg>
