<svg width="80" height="25" viewBox="0 0 80 25" fill="none" xmlns="http://www.w3.org/2000/svg">
<path d="M0 12.1512C0 18.8625 5.43992 24.302 12.153 24.302C18.8631 24.302 24.3043 18.8625 24.3043 12.1512C24.3043 5.43938 18.8631 -0.000106812 12.153 -0.000106812C5.43992 -0.000106812 0 5.43938 0 12.1512Z" fill="url(#paint0_linear_2_2311)"/>
<mask id="mask0_2_2311" style="mask-type:alpha" maskUnits="userSpaceOnUse" x="0" y="0" width="25" height="25">
<path d="M0 12.1512C0 18.8625 5.43992 24.302 12.153 24.302C18.8631 24.302 24.3043 18.8625 24.3043 12.1512C24.3043 5.43938 18.8631 -0.000106812 12.153 -0.000106812C5.43992 -0.000106812 0 5.43938 0 12.1512Z" fill="url(#paint1_linear_2_2311)"/>
</mask>
<g mask="url(#mask0_2_2311)">
<path d="M24.3025 9.56045H0V14.7616H24.3025V9.56045ZM24.3025 19.9611H0V24.2996H24.3025V19.9611ZM24.3025 4.36054H0V0.0022049H24.3025V4.36054Z" fill="black"/>
</g>
<path d="M76.7092 9.75243C76.6965 9.75243 76.682 9.76522 76.682 9.77963V10.0288C76.682 10.0432 76.6965 10.056 76.7092 10.056H77.1716V11.6311C77.1716 11.6457 77.1837 11.6585 77.1988 11.6585H77.458C77.4724 11.6585 77.4875 11.6457 77.4875 11.6311V10.056H77.9475C77.962 10.056 77.9749 10.0432 77.9749 10.0288V9.77963C77.9749 9.76522 77.962 9.75243 77.9475 9.75243" fill="white"/>
<path d="M57.5735 7.38853C57.5735 7.89897 57.9731 8.29625 58.4834 8.29625C58.9917 8.29625 59.3934 7.89897 59.3934 7.38853C59.3934 6.88242 58.9917 6.48075 58.4834 6.48075C57.9731 6.48075 57.5735 6.88033 57.5735 7.38853Z" fill="white"/>
<path d="M62.3388 10.3698L62.2826 10.4028L62.1652 10.0767C62.1256 9.96583 62.0213 9.89257 61.906 9.89257H61.3202C61.1696 9.89257 61.0459 10.0156 61.0459 10.169V17.677C61.0459 17.8276 61.1696 17.9533 61.3202 17.9533H62.3704C62.5229 17.9533 62.6468 17.8276 62.6468 17.677V11.5995L62.6757 11.5871C63.1089 11.3611 63.5459 11.2231 64.3974 11.2231C65.4204 11.2231 65.6256 11.6059 65.6256 12.2272V17.6771C65.6256 17.8277 65.7492 17.9514 65.8997 17.9514H66.9522C67.1026 17.9514 67.2258 17.8277 67.2258 17.6771V12.2712C67.2258 10.6161 66.2489 9.74207 64.3974 9.74207C63.7114 9.74207 63.019 9.95303 62.3388 10.3698Z" fill="white"/>
<path d="M59.268 10.169C59.268 10.0156 59.1448 9.89256 58.9937 9.89256H57.9707C57.8203 9.89256 57.6971 10.0156 57.6971 10.169V17.677C57.6971 17.8276 57.8203 17.9513 57.9707 17.9513H58.9917C59.1448 17.9513 59.268 17.8276 59.268 17.677" fill="white"/>
<path d="M55.7746 6.41362C55.7746 6.26093 55.651 6.13727 55.4983 6.13727H54.4818C54.3269 6.13727 54.2033 6.26093 54.2033 6.41362V17.677C54.2033 17.8276 54.3269 17.9513 54.4797 17.9513H55.4983C55.651 17.9513 55.7746 17.8276 55.7746 17.677" fill="white"/>
<path d="M40.0344 13.2125C40.1121 12.1789 40.3836 11.223 41.8376 11.223C43.0865 11.223 43.3292 11.8945 43.3587 13.2146L43.3608 13.273H40.03L40.0344 13.2125ZM38.409 13.9238C38.409 14.9575 38.409 18.1039 41.8376 18.1039C42.865 18.1039 43.5428 18.0412 44.4277 17.7569C44.5321 17.7253 44.5909 17.6144 44.5909 17.5077V16.6627C44.5909 16.5684 44.5449 16.4826 44.4673 16.4324C44.39 16.3799 44.3001 16.3906 44.2081 16.4094C43.4401 16.5705 42.8273 16.6226 41.8376 16.6226C40.411 16.6226 40.1309 15.7169 40.0409 14.74L40.0344 14.6789H44.6911C44.8443 14.6789 44.9675 14.5559 44.9675 14.4053V13.9239C44.9675 11.9011 44.7271 9.74441 41.8376 9.74441C38.409 9.74211 38.409 12.8908 38.409 13.9238Z" fill="white"/>
<path d="M47.827 13.2126C47.9043 12.1789 48.1764 11.223 49.6325 11.223C50.8793 11.223 51.122 11.8945 51.1492 13.2146L51.1513 13.273H47.8229L47.827 13.2126ZM46.2017 13.9238C46.2017 14.9575 46.2017 18.1039 49.6325 18.1039C50.6597 18.1039 51.3356 18.0412 52.2224 17.7569C52.3247 17.7253 52.3858 17.6144 52.3858 17.5077V16.6628C52.3858 16.5684 52.3377 16.4826 52.2601 16.4324C52.1829 16.3799 52.0908 16.3906 52.003 16.4094C51.2329 16.5705 50.6222 16.6226 49.6325 16.6226C48.2036 16.6226 47.9235 15.717 47.8335 14.74L47.827 14.6789H52.486C52.6364 14.6789 52.7603 14.5559 52.7603 14.4053V13.9239C52.7603 11.9011 52.5176 9.74442 49.6325 9.74442C46.2017 9.74212 46.2017 12.8908 46.2017 13.9238Z" fill="white"/>
<path d="M70.2366 13.2126C70.3138 12.1789 70.5857 11.223 72.0399 11.223C73.2889 11.223 73.5313 11.8945 73.5588 13.2146L73.5608 13.273H70.2324L70.2366 13.2126ZM68.6127 13.9238C68.6127 14.9575 68.6127 18.1039 72.0399 18.1039C73.0671 18.1039 73.7424 18.0412 74.632 17.7569C74.7322 17.7253 74.7926 17.6144 74.7926 17.5077V16.6628C74.7926 16.5684 74.7466 16.4826 74.6694 16.4324C74.5918 16.3799 74.5002 16.3906 74.4102 16.4094C73.6401 16.5705 73.0311 16.6226 72.0399 16.6226C70.6111 16.6226 70.3324 15.717 70.2425 14.74L70.2345 14.6789H74.8933C75.0439 14.6789 75.1675 14.5559 75.1675 14.4053V13.9239C75.1675 11.9011 74.9265 9.74442 72.0399 9.74442C68.609 9.74212 68.6127 12.8908 68.6127 13.9238Z" fill="white"/>
<path d="M33.3297 12.6058C34.9531 12.6058 35.5282 13.0994 35.5282 14.4888C35.5282 15.4195 35.2625 16.3718 33.3002 16.3718H30.9385V12.6035H33.3296L33.3297 12.6058ZM33.2082 7.67898C34.9172 7.67898 35.1516 8.49094 35.1516 9.36562C35.1516 10.4807 34.5557 11.0241 33.3297 11.0241H30.9386V7.67898H33.2082ZM29.5745 6.09741C29.4111 6.09741 29.2793 6.22921 29.2793 6.39261V17.656C29.2793 17.8194 29.4111 17.9533 29.5745 17.9533H33.2414C35.863 17.9533 37.3062 16.7211 37.3062 14.4888C37.3062 13.273 36.7208 12.2357 35.7397 11.7146C35.7397 11.7146 35.7146 11.7022 35.6915 11.6872C35.7125 11.6748 35.7355 11.6583 35.7355 11.6583C36.4949 11.1062 36.9299 10.2713 36.9299 9.36566C36.9299 8.14555 36.4382 6.09745 33.1347 6.09745" fill="white"/>
<path d="M79.6585 9.75243C79.6462 9.75243 79.6377 9.76099 79.6334 9.76897C79.6334 9.76897 79.1611 10.8696 79.1151 10.9784C79.069 10.8696 78.5981 9.76897 78.5981 9.76897C78.5939 9.76099 78.5837 9.75243 78.573 9.75243H78.2613C78.2448 9.75243 78.2318 9.76522 78.2318 9.77963V11.6311C78.2318 11.6457 78.2427 11.6585 78.2613 11.6585H78.5146C78.5184 11.6585 78.529 11.6564 78.5334 11.6499C78.5377 11.6457 78.5414 11.6397 78.5414 11.629C78.5414 11.629 78.5334 10.5558 78.529 10.3299C78.6169 10.5307 78.9935 11.3949 78.9935 11.3949C78.9956 11.4052 79.0063 11.4116 79.0186 11.4116H79.2153C79.2259 11.4116 79.236 11.4052 79.2383 11.3949C79.2383 11.3949 79.6146 10.5307 79.6987 10.3299C79.6987 10.5558 79.6901 11.629 79.6901 11.629C79.6901 11.6397 79.6922 11.6457 79.6966 11.6499C79.7025 11.6564 79.709 11.6585 79.7176 11.6585H79.9703C79.9853 11.6585 79.9997 11.6457 79.9997 11.6311V9.77963C79.9997 9.76522 79.9874 9.75243 79.9703 9.75243" fill="white"/>
<defs>
<linearGradient id="paint0_linear_2_2311" x1="0.00043246" y1="12.1594" x2="24.3025" y2="12.1594" gradientUnits="userSpaceOnUse">
<stop stop-color="#FAA61A"/>
<stop offset="1" stop-color="#FFE100"/>
</linearGradient>
<linearGradient id="paint1_linear_2_2311" x1="0.00043246" y1="12.1594" x2="24.3025" y2="12.1594" gradientUnits="userSpaceOnUse">
<stop stop-color="#FAA61A"/>
<stop offset="1" stop-color="#FFE100"/>
</linearGradient>
</defs>
</svg>
