<svg width="80" height="22" viewBox="0 0 80 22" fill="none" xmlns="http://www.w3.org/2000/svg">
<path d="M11.0859 1.08788e-06C12.7739 -0.000742454 14.4403 0.379668 15.9615 1.11297L16.6597 1.47741L15.6415 2.3812L14.1164 0.806852L11.4881 3.11735L9.94043 1.45773L5.10698 5.76312L8.20152 9.14504L6.99425 10.1946L10.0473 13.5765L8.84006 14.6261L13.2073 19.4366L15.7921 17.0845L18.0466 19.6064C17.6008 19.9417 17.1135 20.2792 16.5921 20.5729C14.9211 21.5102 13.0379 22.0016 11.123 22C4.98189 21.9869 7.1393e-05 17.0525 7.1393e-05 10.984C-0.0217468 4.95627 4.96007 1.08788e-06 11.0859 1.08788e-06ZM9.04952 10.312L11.6997 7.95991L14.0742 10.5853L11.4241 12.9373L9.04952 10.312ZM10.9368 14.8484L13.5652 12.4752L15.9608 15.0991L13.3106 17.4512L10.9368 14.8484ZM7.1637 5.84038L9.81243 3.48834L12.1862 6.1137L9.53606 8.46574L7.1637 5.84038ZM12.0168 4.57945L13.9804 2.8156L15.7622 4.76895L13.7986 6.55466L12.0168 4.57945ZM15.5368 12.6647L17.5004 10.9009L19.2822 12.8746L17.3179 14.6378L15.5368 12.6647ZM17.2822 16.6341L19.2459 14.8703L21.0255 16.8236L19.0619 18.6079L17.2822 16.6341ZM18.0888 7.56778L19.403 6.3914L20.5899 7.69388L19.2757 8.86953L18.0888 7.56778ZM16.3928 3.68294L17.707 2.48615L18.8946 3.80904L17.5797 4.98542L16.3928 3.68294ZM19.763 11.4541L21.0771 10.2777L22.2844 11.5802L20.9491 12.7558L19.763 11.4541ZM13.8488 8.53498L15.8124 6.77114L17.5928 8.72449L15.6291 10.4883L13.8488 8.53498ZM27.555 5.59475H28.6197L30.2822 11.9679H30.3659L31.5862 5.59475H32.9855L31.0546 14.1275H29.763L28.1368 8.11589H28.0524L26.4728 14.1275H25.1819L23.2364 5.58673H24.576L25.9157 11.9599H25.9993L27.555 5.59475ZM34.6851 10.5H37.4233C37.3637 9.23542 36.7542 8.73032 36.1142 8.73032C35.3848 8.73032 34.8219 9.29665 34.691 10.5H34.6851ZM38.3855 12.7653V13.6808C37.8473 13.9942 37.1302 14.2347 36.2764 14.2347C34.2677 14.2347 33.4422 12.981 33.4422 11.0787C33.4422 9.24708 34.3629 7.92274 36.1571 7.92274C37.6517 7.92274 38.5731 8.89942 38.5731 10.8622V11.3083H34.675C34.675 12.7536 35.2604 13.3929 36.4931 13.3929C37.139 13.3929 37.7295 13.1633 38.3942 12.766L38.3855 12.7653ZM41.3564 13.2762C41.7389 13.4439 42.1579 13.4701 42.4575 13.4701C43.3426 13.4701 44.0117 12.9162 44.0117 10.9643C44.0117 9.43367 43.4619 8.94023 42.6604 8.94023C42.1819 8.94023 41.8349 9.07289 41.3564 9.33746V13.2762ZM41.3688 8.44606C41.7266 8.25364 42.336 8 42.9833 8C44.4669 8 45.2684 9.03498 45.2684 10.9636C45.2684 13.223 44.192 14.3127 42.4582 14.3127C41.6467 14.2902 40.85 14.0886 40.1251 13.7223V5.29956L41.3615 4.99854V8.4242L41.3688 8.44606ZM50.9135 14.1312H50.1484L47.7077 8.08382H47.6008V14.1312H46.5244V5.58892H47.9789L50.6575 12.3236H50.7171L53.2771 5.58892H54.7607V14.1312H53.4546V7.93221H53.3469L50.9135 14.1312ZM60.0313 11.0787C60.0313 9.45335 59.3738 8.76603 58.5608 8.76603C57.7717 8.76603 57.0895 9.45262 57.0895 11.0787C57.0895 12.7296 57.712 13.3914 58.5608 13.3914C59.4095 13.3914 60.0313 12.7296 60.0313 11.0787ZM55.8335 11.0787C55.8335 8.97012 56.9826 7.92274 58.5608 7.92274C60.1389 7.92274 61.288 8.97012 61.288 11.0787C61.288 13.1385 60.2 14.2347 58.5608 14.2347C56.9215 14.2347 55.8335 13.1378 55.8335 11.0787ZM62.2182 8.80685C62.7564 8.48105 63.8931 7.91472 65.2684 7.91472C66.7033 7.91472 67.2407 8.48105 67.2407 9.7223V14.0838H66.0044V10C66.0044 9.04883 65.5389 8.87974 64.928 8.87974C64.4502 8.87974 63.8393 9.09694 63.4691 9.31341V14.0838H62.2327L62.2182 8.80685ZM69.8735 10.492H72.6124C72.5542 9.2274 71.9433 8.7223 71.3033 8.7223C70.5738 8.7223 70.0124 9.28863 69.88 10.492H69.8735ZM73.5746 12.7573V13.6727C73.0364 13.9861 72.3193 14.2267 71.4655 14.2267C69.4582 14.2267 68.6313 12.973 68.6313 11.0707C68.6313 9.23907 69.552 7.91472 71.3462 7.91472C72.8415 7.91472 73.7629 8.8914 73.7629 10.8542V11.3003H69.8633C69.8633 12.7456 70.4495 13.3848 71.6815 13.3848C72.3266 13.3848 72.9178 13.1552 73.5826 12.758L73.5746 12.7573ZM78.7316 7.91472H80L77.8349 13.9373C77.2364 15.5991 76.5069 16.4665 75.1324 16.4665V15.4796C75.9469 15.4796 76.4415 14.8287 76.7353 13.9366L74.4386 7.91399H75.7476L77.2785 12.3469H77.3513L78.7316 7.91472Z" fill="#31A6FF"/>
</svg>
