<svg width="80" height="25" viewBox="0 0 80 25" fill="none" xmlns="http://www.w3.org/2000/svg">
<path d="M16.2846 0L8.14258 8.14275H16.2846V24.4275L24.4273 16.3044V0H16.2846Z" fill="#EA5616"/>
<path d="M8.14275 24.4275L16.2855 16.2848H8.14275V0L0 8.12316V24.4275H8.14275Z" fill="#2C2D84"/>
<path d="M32.5703 20.3562H36.8448V7.73514H43.3584V20.3562H47.6329V4.07141H32.5703V20.3562ZM74.0943 10.173H70.4421V7.73514H78.5747V4.07141H66.1677V20.3569C66.1677 20.3569 72.2657 20.3569 74.2981 20.3569C77.5578 20.3569 80 18.7227 80 15.265C80 11.8007 77.5571 10.173 74.0943 10.173ZM73.6873 16.8955H70.4429V13.6416H73.6873C74.6956 13.6416 75.7169 14.0391 75.7169 15.2642C75.7169 16.4894 74.6956 16.8955 73.6873 16.8955ZM58.096 16.8861C55.2432 16.8861 53.6387 14.7942 53.6387 12.2084C53.6387 10.1324 54.8066 7.52624 58.0148 7.52624C60.0175 7.52624 61.3093 8.75062 61.7677 9.32074L64.3674 6.7211C62.7992 4.8497 60.4447 3.65796 57.8117 3.65796C53.0897 3.65796 49.3636 7.15268 49.3636 12.2076C49.3636 16.9296 53.0897 20.7573 57.8117 20.7573C60.6383 20.7573 63.1437 19.3842 64.7003 17.2698L62.084 14.6535C61.2571 15.9511 59.9065 16.8861 58.096 16.8861Z" fill="white"/>
</svg>
