<svg width="80" height="8" viewBox="0 0 80 8" fill="none" xmlns="http://www.w3.org/2000/svg">
<path d="M0.119033 7.90324V6.53678H5.99897C6.36611 6.53678 6.64862 6.44408 6.84647 6.25867C6.94561 6.16301 7.02329 6.04761 7.07443 5.92003C7.12558 5.79246 7.14903 5.65558 7.14326 5.51837C7.14326 5.18238 7.04433 4.93026 6.84647 4.762C6.64862 4.59373 6.36611 4.51014 5.99897 4.51121H2.39548C2.05583 4.51758 1.7178 4.46313 1.39756 4.35045C1.11633 4.25037 0.859118 4.09325 0.642252 3.88907C0.43587 3.69086 0.274085 3.45142 0.167554 3.18655C0.053481 2.90292 -0.00339606 2.59977 0.00015674 2.29433C-0.0027448 1.99573 0.0501781 1.69919 0.156233 1.4198C0.256947 1.15775 0.415577 0.921513 0.620417 0.728535C0.840246 0.526751 1.09918 0.371671 1.38139 0.272782C1.71405 0.156734 2.06481 0.100395 2.41731 0.106395H8.04899V1.47285H2.41731C2.10031 1.47285 1.85555 1.55672 1.68303 1.72444C1.51051 1.89217 1.42425 2.12447 1.42425 2.42133C1.42425 2.72196 1.5124 2.95425 1.68869 3.11823C1.86498 3.2822 2.10408 3.36446 2.40599 3.36499H5.99897C6.79795 3.36499 7.4042 3.55094 7.8177 3.92283C8.23121 4.29472 8.43796 4.85952 8.43796 5.61724C8.44081 5.92747 8.38965 6.23585 8.28674 6.52874C8.19021 6.79961 8.0357 7.04642 7.83388 7.25216C7.61825 7.46433 7.35851 7.62702 7.0729 7.72882C6.72844 7.85088 6.3646 7.90997 5.99897 7.90324H0.119033Z" fill="#7F9CFC"/>
<path d="M9.61379 7.90324V0.106395H10.9837V7.90324H9.61379ZM16.0768 7.90324L11.6856 4.47102C11.5838 4.40357 11.5034 4.30881 11.4535 4.19773C11.4202 4.10295 11.4038 4.00312 11.405 3.90274C11.4026 3.79214 11.4247 3.68237 11.4697 3.58122C11.5379 3.46028 11.6341 3.35723 11.7503 3.28059L15.9037 0.106395H18.0063L12.872 3.91399L18.1697 7.90324H16.0768Z" fill="#7F9CFC"/>
<path d="M19.1304 7.90324V0.106395H20.5003V7.90324H19.1304Z" fill="#7F9CFC"/>
<path d="M23.2094 2.19788V7.90485H21.9034V0.824991C21.8912 0.610284 21.9582 0.398533 22.0918 0.229376C22.155 0.156665 22.234 0.0991431 22.3228 0.0611358C22.4116 0.0231285 22.5079 0.00562446 22.6045 0.00993944C22.7051 0.0101465 22.8044 0.0320879 22.8956 0.0742433C23.0047 0.127958 23.1033 0.20064 23.1867 0.288858L28.7222 5.74745V0.0420914H30.0274V7.18464C30.0274 7.44186 29.9646 7.64201 29.839 7.78508C29.7784 7.85499 29.7029 7.91055 29.618 7.94768C29.5331 7.98482 29.4408 8.00259 29.3481 7.9997C29.2295 7.99608 29.1129 7.96857 29.0053 7.91883C28.8977 7.86909 28.8014 7.79816 28.7222 7.71033L23.2094 2.19788Z" fill="#7F9CFC"/>
<path d="M31.3544 7.90324V6.53678H37.2352C37.6023 6.53678 37.8846 6.44408 38.0819 6.25867C38.1812 6.16313 38.259 6.04775 38.3101 5.92015C38.3613 5.79254 38.3846 5.65561 38.3787 5.51837C38.3787 5.18238 38.2797 4.93026 38.0819 4.762C37.884 4.59373 37.6018 4.51014 37.2352 4.51121H33.6317C33.2918 4.51752 32.9535 4.46307 32.633 4.35045C32.352 4.25038 32.095 4.09325 31.8785 3.88907C31.6719 3.69089 31.5098 3.45146 31.403 3.18655C31.2895 2.90362 31.2329 2.60132 31.2364 2.29675C31.2335 1.99814 31.2864 1.7016 31.3925 1.42221C31.4929 1.16 31.6515 0.92371 31.8566 0.730947C32.0763 0.528981 32.3353 0.373876 32.6176 0.275193C32.95 0.159206 33.3005 0.102868 33.6527 0.108807H39.2852V1.47526H33.6527C33.3368 1.47526 33.0923 1.55913 32.9192 1.72685C32.7462 1.89458 32.6599 2.12607 32.6605 2.42133C32.6605 2.72196 32.7486 2.95425 32.9249 3.11823C33.1012 3.28301 33.3398 3.36499 33.6422 3.36499H37.2352C38.0336 3.36499 38.6396 3.55094 39.0531 3.92283C39.4666 4.29472 39.6734 4.85952 39.6734 5.61724C39.6765 5.92742 39.6256 6.2358 39.523 6.52874C39.4264 6.7998 39.2716 7.04668 39.0693 7.25216C38.8541 7.4645 38.5946 7.62723 38.3091 7.72882C37.9645 7.84999 37.6007 7.90826 37.2352 7.90083L31.3544 7.90324Z" fill="#7F9CFC"/>
<path d="M40.8387 7.90324V0.106395H46.5803C46.9318 0.102462 47.2821 0.145722 47.6219 0.235003C47.9118 0.310049 48.1846 0.43936 48.4258 0.616003C48.6471 0.78227 48.8247 0.999311 48.9433 1.24859C49.0699 1.5224 49.1326 1.82106 49.1269 2.12232C49.1308 2.34347 49.1016 2.56398 49.0404 2.77661C48.9901 2.94833 48.9099 3.10993 48.8034 3.25407C48.7058 3.38361 48.5872 3.49608 48.4524 3.58684C48.3248 3.67458 48.1843 3.74235 48.036 3.78779C48.3908 3.89739 48.7019 4.11502 48.9255 4.40993C49.1552 4.71055 49.27 5.08968 49.27 5.54731C49.2729 5.87837 49.2108 6.20682 49.0873 6.51428C48.9742 6.79606 48.8013 7.05024 48.5802 7.2594C48.3511 7.47279 48.079 7.63552 47.782 7.73685C47.4476 7.85121 47.0958 7.90749 46.7421 7.90324H40.8387ZM43.2017 4.51121V3.3666H46.59C46.9782 3.3666 47.2658 3.29506 47.4529 3.15199C47.64 3.00891 47.7335 2.76536 47.7335 2.42133C47.742 2.2474 47.7007 2.07464 47.6146 1.92298C47.5325 1.79522 47.4144 1.69431 47.275 1.63281C47.1073 1.55982 46.9286 1.51475 46.7461 1.49938C46.5185 1.47671 46.2899 1.46598 46.0612 1.46723H42.2134V6.55205H46.1841C46.4116 6.55352 46.6389 6.53551 46.8634 6.4982C47.0518 6.46926 47.234 6.4095 47.4028 6.32136C47.5451 6.24734 47.6659 6.13831 47.7537 6.00467C47.8406 5.859 47.8835 5.69161 47.8775 5.52239C47.8775 5.20087 47.7769 4.9525 47.5758 4.77727C47.3747 4.60204 47.0785 4.51335 46.6871 4.51121H43.2017Z" fill="#7F9CFC"/>
<path d="M58.6419 7.90324L57.4652 5.94036H53.7542L54.4011 4.83595H56.8078L55.0594 1.91896L51.5012 7.90324H49.9348L54.4448 0.439168C54.5146 0.313601 54.6102 0.204051 54.7254 0.117648C54.8386 0.0378054 54.9748 -0.0033746 55.1136 0.000293861C55.2509 -0.00392378 55.3857 0.0373594 55.4969 0.117648C55.6088 0.205891 55.7023 0.315132 55.7718 0.439168L60.2924 7.90324H58.6419Z" fill="#7F9CFC"/>
<path d="M63.6703 7.90324C63.1489 7.90832 62.6322 7.80425 62.154 7.5978C61.6953 7.39945 61.2813 7.11164 60.9366 6.75143C60.5918 6.39121 60.3233 5.96591 60.1468 5.50069C59.9531 4.99769 59.8563 4.46299 59.8614 3.92444C59.8543 3.38911 59.9512 2.85745 60.1468 2.35864C60.3254 1.90564 60.5976 1.4949 60.9458 1.15294C61.2919 0.816834 61.7029 0.553807 62.154 0.379687C62.6374 0.193773 63.152 0.101025 63.6703 0.106395H67.9207V1.47285H63.6703C63.3352 1.46915 63.003 1.53285 62.6934 1.66014C62.4035 1.77991 62.1411 1.95682 61.9219 2.1802C61.7017 2.40867 61.5293 2.67834 61.4148 2.97354C61.2894 3.29871 61.2271 3.64455 61.2313 3.99276C61.2283 4.34061 61.2906 4.68597 61.4148 5.01117C61.528 5.31205 61.7004 5.58749 61.9219 5.8214C62.1403 6.04823 62.4028 6.2287 62.6934 6.35191C63.0021 6.48256 63.3347 6.54825 63.6703 6.54482H67.9207V7.91128L63.6703 7.90324Z" fill="#7F9CFC"/>
<path d="M80 7.89842H77.582L72.2908 3.91399L77.6419 0.105591L79.8383 0.101572L74.7023 3.90917L80 7.89842Z" fill="#7F9CFC"/>
<path d="M79.0975 0.10318H76.9949L72.62 3.28461C72.5038 3.36098 72.4076 3.46375 72.3393 3.58443C72.2944 3.68561 72.2723 3.79536 72.2746 3.90595C72.2735 4.00633 72.2899 4.10615 72.3232 4.20094C72.373 4.31202 72.4535 4.40679 72.5553 4.47424L76.9464 7.90565H79.0393L79.0328 7.90083L73.7384 3.9172L79.0894 0.108807L79.0975 0.10318Z" fill="#7F9CFC"/>
<path d="M78.3616 0.10318H76.259L71.8841 3.28461C71.7679 3.36098 71.6717 3.46375 71.6034 3.58443C71.5585 3.68561 71.5364 3.79536 71.5387 3.90595C71.5376 4.00633 71.554 4.10615 71.5873 4.20094C71.6371 4.31202 71.7176 4.40679 71.8194 4.47424L76.2105 7.90565H78.3034L78.2969 7.90083L73.0057 3.9172L78.3568 0.108807L78.3616 0.10318Z" fill="#7F9CFC"/>
<path d="M69.0326 0.107199V7.90404H70.4025V0.107199H69.0326ZM77.65 0.0999649H75.5474L71.1692 3.2814C71.053 3.35776 70.9568 3.46054 70.8886 3.58122C70.8436 3.68239 70.8215 3.79215 70.8239 3.90274C70.8227 4.00338 70.8391 4.10346 70.8724 4.19853C70.9222 4.30961 71.0027 4.40437 71.1045 4.47182L75.4956 7.90324H77.5885L77.582 7.89842L72.2908 3.91399L77.6419 0.104788L77.65 0.0999649Z" fill="#7F9CFC"/>
</svg>
