<svg width="16" height="16" viewBox="0 0 16 16" fill="none" xmlns="http://www.w3.org/2000/svg">
<path fill-rule="evenodd" clip-rule="evenodd" d="M7.21951 1.17073C3.87886 1.17073 1.17073 3.87886 1.17073 7.21951C1.17073 10.5602 3.87886 13.2683 7.21951 13.2683C10.5602 13.2683 13.2683 10.5602 13.2683 7.21951C13.2683 3.87886 10.5602 1.17073 7.21951 1.17073ZM0 7.21951C0 3.23229 3.23229 0 7.21951 0C11.2067 0 14.439 3.23229 14.439 7.21951C14.439 11.2067 11.2067 14.439 7.21951 14.439C3.23229 14.439 0 11.2067 0 7.21951Z" fill="white"/>
<path fill-rule="evenodd" clip-rule="evenodd" d="M11.4885 11.4885C11.7171 11.2599 12.0878 11.2599 12.3164 11.4885L15.8286 15.0007C16.0571 15.2293 16.0571 15.6 15.8286 15.8286C15.6 16.0571 15.2293 16.0571 15.0007 15.8286L11.4885 12.3164C11.2599 12.0878 11.2599 11.7171 11.4885 11.4885Z" fill="white"/>
</svg>
