<svg width="16" height="16" viewBox="0 0 16 16" fill="none" xmlns="http://www.w3.org/2000/svg">
<path d="M8 0C3.5824 0 0 3.5816 0 8C0 12.4168 3.5824 16 8 16C12.4176 16 16 12.4168 16 8C16 3.5816 12.4184 0 8 0ZM9.6 4.8C9.6 4.35817 9.95817 4 10.4 4C10.8418 4 11.2 4.35817 11.2 4.8V6.4C11.2 6.84183 10.8418 7.2 10.4 7.2C9.95817 7.2 9.6 6.84183 9.6 6.4V4.8ZM4.8 4.8C4.8 4.35817 5.15817 4 5.6 4C6.04183 4 6.4 4.35817 6.4 4.8V6.4C6.4 6.84183 6.04183 7.2 5.6 7.2C5.15817 7.2 4.8 6.84183 4.8 6.4V4.8ZM12.272 12.0789C11.8977 12.453 11.2769 12.3905 10.884 12.0362C10.1085 11.337 9.09195 10.9209 8.00081 10.9209C6.90661 10.9209 5.89062 11.3379 5.11568 12.0382C4.72307 12.393 4.10213 12.4555 3.72805 12.0812C3.42654 11.7796 3.39162 11.2959 3.69129 10.9924C4.80612 9.86326 6.34302 9.18398 8.00081 9.18398C9.65447 9.18398 11.1921 9.86144 12.3083 10.9884C12.6091 11.292 12.5743 11.7768 12.272 12.0789Z" fill="url(#paint0_linear_48_63833)" fill-opacity="0.75"/>
<defs>
<linearGradient id="paint0_linear_48_63833" x1="3.33333" y1="-7.33333" x2="23.7454" y2="2.96988" gradientUnits="userSpaceOnUse">
<stop stop-color="#FF4949"/>
<stop offset="1" stop-color="#872B2B"/>
</linearGradient>
</defs>
</svg>
