<svg width="16" height="16" viewBox="0 0 16 16" fill="none" xmlns="http://www.w3.org/2000/svg">
<path d="M8 0C3.5824 0 0 3.5816 0 8C0 12.4168 3.5824 16 8 16C12.4176 16 16 12.4168 16 8C16 3.5816 12.4184 0 8 0ZM9.6 4C9.6 3.55817 9.95817 3.2 10.4 3.2C10.8418 3.2 11.2 3.55817 11.2 4V5.6C11.2 6.04183 10.8418 6.4 10.4 6.4C9.95817 6.4 9.6 6.04183 9.6 5.6V4ZM4.8 4C4.8 3.55817 5.15817 3.2 5.6 3.2C6.04183 3.2 6.4 3.55817 6.4 4V5.6C6.4 6.04183 6.04183 6.4 5.6 6.4C5.15817 6.4 4.8 6.04183 4.8 5.6V4ZM12.8 9.6C12.8 11.6936 10.512 13.6 8 13.6C5.488 13.6 3.2 11.6936 3.2 9.6C3.2 9.15817 3.55817 8.8 4 8.8H12C12.4418 8.8 12.8 9.15817 12.8 9.6Z" fill="url(#paint0_linear_48_63832)" fill-opacity="0.75"/>
<defs>
<linearGradient id="paint0_linear_48_63832" x1="3.33333" y1="-7.33333" x2="23.7454" y2="2.96988" gradientUnits="userSpaceOnUse">
<stop stop-color="#49FFB3"/>
<stop offset="1" stop-color="#2B8760"/>
</linearGradient>
</defs>
</svg>
