<svg width="24" height="20" viewBox="0 0 24 20" fill="none" xmlns="http://www.w3.org/2000/svg">
<path id="twi_red copy" fill-rule="evenodd" clip-rule="evenodd" d="M0 17.7313C2.1792 19.165 4.7664 20 7.548 20C16.6056 20 21.558 12.305 21.558 5.6325C21.558 5.41375 21.5532 5.1975 21.5436 4.98125C22.506 4.26875 23.3412 3.38 24 2.3675C23.118 2.77 22.1688 3.04 21.1728 3.16C22.1892 2.53875 22.968 1.54625 23.3376 0.36875C22.386 0.94625 21.3312 1.36625 20.2104 1.5925C19.3128 0.6125 18.0324 0 16.6164 0C13.8972 0 11.6916 2.25875 11.6916 5.04625C11.6916 5.44375 11.736 5.8275 11.82 6.1975C7.728 5.9875 4.098 3.9775 1.6716 0.9225C1.248 1.67 1.0044 2.535 1.0044 3.46125C1.0044 5.2125 1.8732 6.75875 3.1944 7.66375C2.3868 7.64 1.6284 7.41125 0.9636 7.0325C0.9636 7.05375 0.9636 7.075 0.9636 7.09625C0.9636 9.54125 2.6628 11.5838 4.9128 12.0475C4.5012 12.1638 4.0656 12.2238 3.6168 12.2238C3.2988 12.2238 2.9904 12.1938 2.6904 12.1337C3.3156 14.1412 5.1348 15.6012 7.2888 15.64C5.604 16.995 3.4836 17.8 1.1748 17.8C0.7776 17.8 0.3864 17.78 0 17.7313Z" fill="#4E4C66"/>
</svg>
