<svg width="24" height="20" viewBox="0 0 24 20" fill="none" xmlns="http://www.w3.org/2000/svg">
<path fill-rule="evenodd" clip-rule="evenodd" d="M12.7844 15.674C11.8626 16.5651 10.9508 17.4403 10.0469 18.3235C9.73083 18.6323 9.3753 18.8029 8.92197 18.7786C8.61322 18.7621 8.43991 18.6261 8.3453 18.3341C7.65352 16.1997 6.95044 14.0688 6.26179 11.9334C6.19469 11.7255 6.09364 11.6256 5.88318 11.5617C4.25202 11.0662 2.62411 10.5601 0.998291 10.0477C0.757568 9.97183 0.513836 9.8743 0.304976 9.73665C-0.0585345 9.49714 -0.110412 9.11631 0.221542 8.84057C0.528264 8.58575 0.891896 8.37241 1.26443 8.22603C3.32553 7.41638 5.39713 6.63295 7.46498 5.84019C12.4393 3.93319 17.4137 2.02638 22.3876 0.118463C23.3411 -0.247299 24.082 0.259961 23.9927 1.28131C23.9339 1.95459 23.7574 2.61908 23.6158 3.28376C22.5135 8.4573 21.407 13.6299 20.3018 18.8029C20.2997 18.8128 20.299 18.8231 20.2967 18.8329C20.0265 20.0163 19.1609 20.3399 18.174 19.6185C16.4606 18.3662 14.7516 17.1081 13.0405 15.8529C12.9596 15.7935 12.8759 15.7378 12.7844 15.674ZM8.99853 17.3032C9.02517 17.1818 9.04365 17.1257 9.04905 17.0685C9.15778 15.9051 9.27142 14.7422 9.36768 13.5777C9.38911 13.3193 9.46671 13.1285 9.66796 12.949C12.2644 10.634 14.8528 8.31007 17.4432 5.98846C18.1802 5.32805 18.9201 4.67094 19.6498 4.00284C19.7264 3.9327 19.743 3.79791 19.7876 3.69313C19.6748 3.66142 19.5485 3.58103 19.4522 3.60768C19.2298 3.66928 19.0056 3.75717 18.8105 3.87903C14.959 6.28536 11.1125 8.69944 7.26085 11.1055C7.06488 11.2279 7.00895 11.3287 7.08753 11.5632C7.69742 13.383 8.28962 15.2086 8.8882 17.0321C8.91165 17.1036 8.94475 17.1719 8.99853 17.3032Z" fill="#4E4C66"/>
</svg>
