<svg width="28" height="16" viewBox="0 0 28 16" fill="none" xmlns="http://www.w3.org/2000/svg">
<path id="vk_red copy" fill-rule="evenodd" clip-rule="evenodd" d="M13.6996 15.9327H15.3734C15.3734 15.9327 15.8786 15.8773 16.1367 15.599C16.3749 15.3425 16.367 14.8622 16.367 14.8622C16.367 14.8622 16.3344 12.6132 17.3764 12.2815C18.4037 11.9547 19.7235 14.4552 21.1215 15.4168C22.1793 16.1446 22.9831 15.9852 22.9831 15.9852L26.7222 15.9327C26.7222 15.9327 28.6778 15.8119 27.7504 14.272C27.6743 14.1462 27.2096 13.1321 24.9703 11.0495C22.6252 8.8699 22.9396 9.22244 25.7642 5.45138C27.4835 3.15587 28.1716 1.7536 27.9561 1.15348C27.7514 0.581086 26.4869 0.732601 26.4869 0.732601L22.2762 0.758349C22.2762 0.758349 21.9638 0.715766 21.7325 0.854408C21.507 0.99008 21.3617 1.30698 21.3617 1.30698C21.3617 1.30698 20.6944 3.08357 19.8066 4.59477C17.9321 7.78354 17.1817 7.95189 16.8752 7.75383C16.1624 7.29235 16.3403 5.90098 16.3403 4.91167C16.3403 1.82094 16.8089 0.532561 15.4298 0.19883C14.972 0.0889064 14.6349 0.0156242 13.4643 0.00374062C11.9626 -0.0121042 10.6911 0.00770184 9.97139 0.361239C9.49189 0.59594 9.12214 1.11981 9.34755 1.14952C9.62536 1.18715 10.2561 1.31985 10.5903 1.77539C11.0213 2.36363 11.0065 3.6837 11.0065 3.6837C11.0065 3.6837 11.2547 7.32107 10.4272 7.77364C9.85967 8.08261 9.0816 7.4508 7.40978 4.55714C6.5536 3.07565 5.90702 1.4377 5.90702 1.4377C5.90702 1.4377 5.78245 1.13169 5.56 0.967303C5.2901 0.769243 4.91342 0.705863 4.91342 0.705863L0.912325 0.732601C0.912325 0.732601 0.31221 0.749437 0.0917396 1.01088C-0.105003 1.2436 0.0759211 1.72488 0.0759211 1.72488C0.0759211 1.72488 3.20799 9.06499 6.7543 12.7638C10.007 16.1555 13.6996 15.9327 13.6996 15.9327Z" fill="#4E4C66"/>
</svg>
