<svg width="12" height="12" viewBox="0 0 12 12" fill="none" xmlns="http://www.w3.org/2000/svg">
<path d="M7.56245 3.89113L7.67604 4.13227L7.93955 4.17237L11.4807 4.7113L8.90299 7.34305L8.72582 7.52392L8.76677 7.77377L9.37063 11.4586L6.24118 9.73563L6.00003 9.60287L5.75888 9.73563L2.62943 11.4586L3.23329 7.77377L3.27423 7.52392L3.09707 7.34305L0.519336 4.7113L4.0605 4.17237L4.32402 4.13227L4.43761 3.89113L6.00003 0.574178L7.56245 3.89113ZM2.73987 7.69291L2.12496 11.4452L3.98784e-05 4.70142C0.0016339 4.82745 0.0509416 4.94766 0.137128 5.03563L2.73987 7.69291ZM5.95433 0.477168C5.95427 0.477038 5.95421 0.47691 5.95415 0.47679L5.95433 0.477168Z" stroke="#FFB800"/>
</svg>
