<svg width="20" height="14" viewBox="0 0 20 14" fill="none" xmlns="http://www.w3.org/2000/svg">
<path d="M13.9405 4.10513C13.9405 5.24121 14.8462 6.16158 15.9626 6.16158C17.0799 6.16158 17.9861 5.24121 17.9861 4.10513C17.9861 2.96905 17.0799 2.04764 15.9626 2.04764C14.8462 2.04764 13.9405 2.96905 13.9405 4.10513Z" fill="white"/>
<path fill-rule="evenodd" clip-rule="evenodd" d="M0 8.99938V5.31164L7.56894 8.49285C7.72448 8.38914 7.89023 8.29892 8.06719 8.22581C8.46853 8.05781 8.89181 7.98314 9.31355 8.00181L11.9175 4.16268C11.9164 4.1456 11.9164 4.12749 11.9164 4.10938C11.9164 1.84344 13.7294 0 15.9585 0C18.1876 0 20 1.84334 20 4.10928C20 6.37521 18.1876 8.21959 15.9585 8.21959C15.9279 8.21959 15.8973 8.21907 15.8667 8.21803L12.1408 10.9206C12.1521 11.338 12.0761 11.7564 11.9139 12.1546C11.2887 13.6801 9.55732 14.4061 8.05546 13.7688C7.13751 13.3804 6.51534 12.5726 6.31237 11.6527L0 8.99938ZM8.31452 13.1367C9.4742 13.6272 10.8083 13.0678 11.2922 11.8897C11.5258 11.3203 11.5268 10.6903 11.2953 10.1189C11.0643 9.54752 10.6283 9.10107 10.0663 8.86359C9.50887 8.62818 8.91221 8.63544 8.38745 8.83766L9.74754 9.40959C10.6023 9.77152 11.0067 10.7692 10.6502 11.6377C10.2947 12.5057 9.31355 12.9174 8.45833 12.5555L7.14261 12.0017C7.37566 12.4958 7.77956 12.9101 8.31452 13.1367ZM13.2658 4.10928C13.2658 5.61921 14.474 6.8481 15.9585 6.8481C17.443 6.8481 18.6516 5.61921 18.6516 4.10928C18.6516 2.60038 17.443 1.37149 15.9585 1.37149C14.474 1.37149 13.2658 2.60038 13.2658 4.10928Z" fill="white"/>
</svg>
