<svg width="20" height="18" viewBox="0 0 20 18" fill="none" xmlns="http://www.w3.org/2000/svg">
<path d="M10 4.02378L9.19545 2.93384C8.32709 1.75745 6.96987 1 5.55556 1C3.05618 1 1 3.06391 1 5.625C1 8.27271 2.97478 11.0074 5.25975 13.2365C7.49005 15.4123 9.77396 16.8751 9.94501 16.9833L10 4.02378ZM10 4.02378L10.8045 2.93384M10 4.02378L10.8045 2.93384M10.8045 2.93384C11.6729 1.75745 13.0301 1 14.4444 1M10.8045 2.93384L14.4444 1M14.4444 1C16.9438 1 19 3.06391 19 5.625C19 8.27271 17.0252 11.0074 14.7403 13.2365C12.51 15.4123 10.2262 16.8751 10.0551 16.9833C10.0361 16.9953 10.0169 17 10 17C9.98337 17 9.96449 16.9954 9.94551 16.9836L14.4444 1Z" stroke="white" stroke-width="2"/>
</svg>
