<svg width="20" height="20" viewBox="0 0 20 20" fill="none" xmlns="http://www.w3.org/2000/svg">
<path d="M5.07426 3.072L4.1113 3.75775L4.94722 4.59367L15.4063 15.0528L16.2423 15.8887L16.928 14.9257C17.9177 13.5359 18.5 11.8345 18.5 10C18.5 5.30558 14.6944 1.5 10 1.5C8.16552 1.5 6.46407 2.08229 5.07426 3.072ZM14.9257 16.928L15.8887 16.2423L15.0528 15.4063L4.59367 4.94723L3.75774 4.1113L3.072 5.07426C2.08229 6.46407 1.5 8.16552 1.5 10C1.5 14.6944 5.30558 18.5 10 18.5C11.8345 18.5 13.5359 17.9177 14.9257 16.928ZM19 10C19 14.9706 14.9706 19 10 19C5.02944 19 1 14.9706 1 10C1 5.02944 5.02944 1 10 1C14.9706 1 19 5.02944 19 10Z" stroke="white" stroke-width="2"/>
</svg>
