<svg width="18" height="18" viewBox="0 0 18 18" fill="none" xmlns="http://www.w3.org/2000/svg">
<path d="M9.44023 14.1246C9.45785 16.2064 10.9373 18 13.7024 18C16.4676 18 18.0175 16.2064 17.9998 14.1246V13.2598C18.0175 11.1459 16.5028 9.38434 13.7024 9.38434C10.9725 9.38434 9.45785 11.1779 9.44023 13.2598V14.1246ZM0 4.74021C0.0176124 6.82206 1.49705 8.58363 4.26219 8.58363C7.02734 8.58363 8.57723 6.85409 8.55961 4.74021V3.87544C8.57723 1.76157 7.06256 0 4.26219 0C1.5675 0 0.0176124 1.76157 0 3.87544V4.74021ZM0.986293 17.1993H3.48725L15.8864 0.800712H13.3854L0.986293 17.1993ZM12.5048 13.2598C12.5224 12.6192 12.769 11.8826 13.7024 11.8826C14.7063 11.8826 14.9177 12.6192 14.9001 13.2598V14.1246C14.9177 14.7651 14.6711 15.4698 13.7024 15.4698C12.769 15.4698 12.5224 14.7331 12.5048 14.1246V13.2598ZM3.09978 3.87544C3.11739 3.2669 3.32874 2.49822 4.26219 2.49822C5.2661 2.49822 5.47745 3.23488 5.45984 3.87544V4.74021C5.47745 5.38078 5.23088 6.08541 4.26219 6.08541C3.36396 6.08541 3.11739 5.38078 3.09978 4.74021V3.87544Z" fill="white"/>
</svg>
